<?xml version="1.0" standalone="no"?>
<!DOCTYPE svg PUBLIC "-//W3C//DTD SVG 1.1//EN" "http://www.w3.org/Graphics/SVG/1.1/DTD/svg11.dtd" >
<svg xmlns="http://www.w3.org/2000/svg">
<metadata></metadata>
<defs>
<font id="cormorant_infantbook_italic" horiz-adv-x="1335" >
<font-face units-per-em="2048" ascent="1485" descent="-563" />
<missing-glyph horiz-adv-x="479" />
<glyph unicode="&#xfb01;" horiz-adv-x="962" d="M-225 -465q3 30 26 49t54 19q35 0 53 -20t21.5 -43.5t14.5 -43.5t33 -20q18 0 30 14.5t25.5 63.5t27 128.5t34.5 221.5l107 723q10 76 -7.5 93t-103.5 17q-5 0 -6 7.5t1.5 14.5t6.5 7q71 0 101.5 19t39.5 71q31 175 80 300t112 196t134.5 103t157.5 32q99 0 154 -39.5 t47 -95.5q-4 -33 -26 -50.5t-52 -17.5q-29 0 -48 17.5t-29 42t-20.5 49t-31 42t-52.5 17.5q-100 0 -175.5 -140.5t-114.5 -412.5l-19 -125q159 1 303.5 9t163.5 8q24 0 26 -14t-9 -67q-12 -59 -19 -102l-76 -426q-20 -112 31 -112q44 0 127 86q5 5 11 2t8 -9t-1 -10 q-70 -81 -125 -119t-110 -38q-56 0 -71.5 47t3.5 153l76 412q5 26 6 43.5t-4 33t-13.5 25t-29 17.5t-43.5 11.5t-64.5 6.5t-85 3.5t-110.5 0.5l-113 -778q-43 -293 -110.5 -406.5t-198.5 -113.5q-76 0 -114 28.5t-33 69.5z" />
<glyph unicode="&#xfb02;" horiz-adv-x="1024" d="M-225 -465q3 30 26 49t54 19q35 0 53 -20t21.5 -43.5t14.5 -43.5t33 -20q18 0 30 14.5t25.5 63.5t27 128.5t34.5 221.5l107 723q10 76 -7.5 93t-103.5 17q-5 0 -6 7.5t1.5 14.5t6.5 7q71 0 101.5 19t39.5 71q58 337 174.5 484t313.5 147q130 0 213 -57q54 33 65 94 q1 5 7.5 6t12.5 -1.5t5 -6.5l-246 -1340q-22 -112 31 -112q36 0 127 88q4 5 9.5 2.5t7.5 -8.5t-1 -11q-73 -83 -126 -121t-107 -38q-57 0 -72.5 47t4.5 153l207 1104q-24 73 -74.5 119.5t-111.5 46.5q-217 0 -303 -553l-19 -125q43 1 116 6t89 6q18 0 14 -20 q-3 -20 -26 -45.5t-43 -22.5q-88 16 -158 21l-111 -762q-43 -293 -110.5 -406.5t-198.5 -113.5q-76 0 -114 28.5t-33 69.5z" />
<glyph unicode="&#xfb03;" horiz-adv-x="1482" d="M-225 -465q3 30 26 49t54 19q35 0 53 -20t21.5 -43.5t14.5 -43.5t33 -20q18 0 30 14.5t25.5 63.5t27 128.5t34.5 221.5l107 723q10 76 -7.5 93t-103.5 17q-5 0 -6 7.5t1.5 14.5t6.5 7q71 0 101.5 19t39.5 71q103 514 459 514q125 0 223 -55q121 172 322 172 q99 0 154 -39.5t47 -95.5q-4 -33 -26 -50.5t-52 -17.5q-29 0 -48 17.5t-29 42l-20 49t-30.5 42t-52.5 17.5q-100 0 -176 -140.5t-115 -412.5l-19 -125q159 1 303.5 9t163.5 8q24 0 26 -14t-9 -67q-12 -59 -19 -102l-75 -426q-20 -112 30 -112q44 0 127 86q5 5 11.5 2t8.5 -9 t-1 -10q-70 -81 -125.5 -119t-110.5 -38q-56 0 -71 47t4 153l75 412q5 26 6 43.5t-4 33t-13.5 25t-29 17.5t-43.5 11.5t-64.5 6.5t-85 3.5t-110.5 0.5l-112 -778q-43 -292 -111 -406t-199 -114q-76 0 -114 28.5t-33 69.5q3 30 26 49t54 19q35 0 53.5 -20t21.5 -43.5 t14.5 -43.5t33.5 -20q18 0 30 14.5t25 63.5t26.5 128t34.5 222l107 723q6 57 -10 72t-78 20q-89 6 -289 6l-113 -768q-43 -293 -110.5 -406.5t-198.5 -113.5q-76 0 -114 28.5t-33 69.5zM350 768q218 0 281 4q97 3 117 62l6 22q35 192 86 311q-33 78 -84 123t-113 45 q-200 0 -274 -436z" />
<glyph unicode="&#xfb04;" horiz-adv-x="1544" d="M-225 -465q3 30 26 49t54 19q35 0 53 -20t21.5 -43.5t14.5 -43.5t33 -20q18 0 30 14.5t25.5 63.5t27 128.5t34.5 221.5l107 723q10 76 -7.5 93t-103.5 17q-5 0 -6 7.5t1.5 14.5t6.5 7q71 0 101.5 19t39.5 71q103 514 459 514q118 0 219 -53q117 170 330 170 q130 0 213 -57q55 34 66 94q1 5 7.5 6t12 -1.5t4.5 -6.5l-246 -1340q-22 -112 31 -112q36 0 127 88q4 5 10 2.5t8 -8.5t-1 -11q-73 -82 -126.5 -120.5t-107.5 -38.5q-57 0 -72.5 47t4.5 153l207 1104q-24 73 -74.5 119.5t-111.5 46.5q-217 0 -303 -553l-19 -125q43 1 116 6 t89 6q9 0 13 -6t2 -14q-3 -20 -26.5 -45.5t-43.5 -22.5q-88 16 -158 21l-110 -762q-43 -292 -111 -406t-199 -114q-76 0 -114 28.5t-33 69.5q3 30 26 49t54 19q35 0 53.5 -20t21.5 -43.5t14.5 -43.5t33.5 -20q18 0 30 14.5t25 63.5t26.5 128t34.5 222l107 723q6 57 -10 72 t-78 20q-89 6 -289 6l-113 -768q-43 -293 -110.5 -406.5t-198.5 -113.5q-76 0 -114 28.5t-33 69.5zM350 768q218 0 281 4q97 3 117 62l6 22q36 198 82 318q-31 75 -81.5 118t-111.5 43q-200 0 -274 -436z" />
<glyph horiz-adv-x="0" />
<glyph horiz-adv-x="682" />
<glyph unicode=" "  horiz-adv-x="479" />
<glyph unicode="&#x09;" horiz-adv-x="479" />
<glyph unicode="&#xa0;" horiz-adv-x="479" />
<glyph unicode="!" horiz-adv-x="448" d="M78 78q0 42 26 67t70 25q45 0 69.5 -25t24.5 -67q0 -46 -24 -71t-70 -25q-45 0 -70.5 25.5t-25.5 70.5zM209 393q64 592 70 879q0 8 33.5 16t68.5 8q15 0 30 -1.5t27.5 -4t22 -5.5t14.5 -6.5t4 -6.5q-116 -320 -248 -881q-1 -7 -7 -8.5t-11 1.5t-4 9z" />
<glyph unicode="&#x22;" horiz-adv-x="665" d="M174 616l74 631q3 27 91 52q74 20 89 10q3 -1 2 -4l-227 -687q-2 -3 -9 -4.5t-13.5 -1t-6.5 3.5zM483 616l74 631q3 27 91 52q74 20 89 10q3 -1 2 -4l-227 -687q-2 -3 -9 -4.5t-13.5 -1t-6.5 3.5z" />
<glyph unicode="#" horiz-adv-x="897" d="M45 197q0 43 6 43h152l108 321h-123q-8 0 -8 43t8 43h152l115 344q3 5 19 2t32.5 -11.5t13.5 -14.5l-106 -320h235l115 344q3 5 19 2t32.5 -11.5t13.5 -14.5l-106 -320h127q5 0 6.5 -21.5t-1 -43t-7.5 -21.5h-154l-108 -321h127q5 0 6.5 -21.5t-1 -43t-7.5 -21.5h-154 l-108 -322q-1 -3 -8 -3.5t-17 2t-20 6t-16 7.5t-5 6l100 304h-235l-107 -322q-1 -3 -9 -3.5t-18 2t-19.5 6t-15.5 7.5t-5 6l100 304h-123q-6 0 -6 43zM276 240h236l109 321h-236z" />
<glyph unicode="$" horiz-adv-x="942" d="M86 84l41 276q0 9 11.5 9t13.5 -9q13 -145 73 -237.5t170 -106.5l101 580l-25 18q-29 21 -42.5 31t-39.5 31t-39 34t-33.5 34.5t-30 39t-21 42t-15 48t-4 52t5.5 59.5q18 92 74.5 161t131.5 106t163 46l30 181q3 9 16 10t23.5 -5t7.5 -14l-28 -167h10q110 0 227 -50 q28 -14 25 -34l-29 -240q0 -6 -11 -6t-11 6q-7 57 -22.5 104.5t-40.5 88.5t-64.5 66.5t-89.5 29.5l-93 -520l47 -35q25 -18 40 -28.5t38.5 -29t38 -31.5t34 -32t31 -35.5t25 -38t20 -42.5t12 -45.5t5 -51t-5.5 -55.5q-24 -140 -134 -236.5t-286 -110.5l-35 -200 q-2 -9 -14 -10.5t-23 4t-10 14.5l33 190h-6q-151 0 -283 70q-15 10 -12 39zM403 1053q-16 -87 18 -149.5t107 -123.5l86 488q-91 -7 -144 -70t-67 -145zM442 14q93 3 161 60.5t89 167.5q17 105 -24.5 179t-128.5 142z" />
<glyph unicode="%" horiz-adv-x="1069" d="M88 14l879 1114q3 5 15.5 -1.5t22.5 -16.5t7 -14l-881 -1110q-2 -4 -14.5 2t-22.5 14.5t-6 11.5zM147 885q17 108 95 185t174 77q95 0 143 -77.5t27 -188.5t-95.5 -187t-168.5 -76q-96 0 -145.5 78t-29.5 189zM266 893q-36 -244 72 -244q55 0 82.5 55t42.5 162 q18 123 1 186.5t-67 63.5q-38 0 -65.5 -31.5t-41.5 -77.5t-24 -114zM545 256q19 109 95.5 184.5t172.5 75.5q95 0 143 -77t29 -189q-21 -110 -95.5 -185t-168.5 -75q-96 0 -145.5 76t-30.5 190zM663 90.5q17 -70.5 74 -70.5q55 0 82.5 55t42.5 161q38 249 -65 249 q-38 0 -65.5 -31.5t-41.5 -77.5t-24 -114q-20 -101 -3 -171.5z" />
<glyph unicode="&#x26;" horiz-adv-x="1546" d="M149 420.5q-8 73.5 9 148.5q36 166 168.5 274.5t287.5 108.5q101 0 170 -49q115 128 115 225q0 31 -9.5 52t-23 32.5t-27 21.5t-23 26t-9.5 40q0 35 21.5 56.5t56.5 21.5q49 0 78.5 -42t29.5 -113q0 -53 -19 -108.5t-47 -103t-78.5 -104.5t-92.5 -98.5t-112 -99.5 t-114.5 -92.5t-121.5 -93t-113 -87.5q29 -165 146 -266.5t266 -101.5q177 0 300 127.5t152 359.5q-13 7 -55.5 29t-61.5 31.5t-52 23.5t-58.5 19.5t-48.5 5.5q-31 0 -47.5 -12t-16.5 -31q0 -21 19.5 -55.5t19.5 -53.5q0 -22 -14 -38.5t-43 -16.5q-26 0 -43 17t-17 54 q0 83 78 153.5t172 70.5q60 0 145 -39t165.5 -78t130.5 -39q27 0 43 10t16 27t-25.5 48.5t-25.5 57.5q0 25 15.5 38.5t43.5 13.5q60 0 60 -68q0 -84 -66.5 -154.5t-153.5 -70.5q-63 0 -143 41q-39 -274 -189.5 -419t-369.5 -145q-82 0 -156.5 23t-131 64t-101 97t-68 122 t-31.5 139.5zM291 475q34 28 113 90.5t143 115t117 99.5q-50 115 -156 115q-76 0 -133 -74.5t-78 -185.5q-15 -86 -6 -160z" />
<glyph unicode="'" horiz-adv-x="272" d="M137 616l74 631q3 27 91 52q74 20 89 10q3 -1 2 -4l-227 -687q-2 -3 -9 -4.5t-13.5 -1t-6.5 3.5z" />
<glyph unicode="(" horiz-adv-x="581" d="M160 623q50 289 196.5 520.5t352.5 341.5q5 3 10.5 -5t1.5 -12q-301 -286 -399 -845q-91 -525 96 -846q3 -5 -3 -12.5t-12 -4.5q-172 110 -233.5 339t-9.5 524z" />
<glyph unicode=")" horiz-adv-x="581" d="M-59 -223q154 147 251.5 355t147.5 491q91 524 -96 845q-3 5 2.5 12.5t11.5 4.5q172 -111 234 -339.5t10 -522.5q-50 -289 -196.5 -521t-352.5 -342q-5 -3 -10.5 5t-1.5 12z" />
<glyph unicode="*" horiz-adv-x="917" d="M202 822q-2 3 1 5l299 179q6 4 13.5 -2t4.5 -11l-135 -227q-14 -25 -104 11q-69 27 -79 45zM220 1210q5 78 18 86q2 2 4 0l264 -229q5 -3 1.5 -12t-9.5 -8l-258 57q-27 7 -20 106zM518 1350q-3 26 84 50q76 21 97 12q4 -2 3 -5l-137 -324q-1 -6 -11 -6t-11 6zM559 985 q-2 3 1.5 7t8 5.5t6.5 -0.5l177 -198q18 -21 -43 -95q-46 -55 -66 -61q-5 -2 -6 2zM588.5 1040q-2.5 10 1.5 11l244 104q24 10 73 -65q42 -63 41 -86q0 -5 -4 -5l-348 31q-5 0 -7.5 10z" />
<glyph unicode="+" horiz-adv-x="815" d="M61.5 409q1.5 21 6.5 21h297v297q0 9 42 9t42 -9v-297h296q9 0 9 -42t-9 -42h-296v-295q0 -6 -21 -8t-42 -0.5t-21 6.5v297h-295q-6 0 -8 21t-0.5 42z" />
<glyph unicode="," horiz-adv-x="466" d="M23.5 -317.5q-1.5 5.5 1.5 10.5q148 114 168 246q6 42 -3 65q-17 -20 -53 -20q-47 0 -70 30t-18 70q3 38 31 61t76 23q65 0 95.5 -53.5t12.5 -143.5q-26 -156 -225 -299q-4 -3 -9 1t-6.5 9.5z" />
<glyph unicode="-" horiz-adv-x="577" d="M55.5 409.5q0.5 24.5 5.5 26.5l439 72q6 1 8.5 -22t1.5 -47.5t-6 -26.5l-436 -72q-6 -1 -9.5 22t-3 47.5z" />
<glyph unicode="." horiz-adv-x="411" d="M49 78q0 42 26 67t70 25q45 0 70 -25t25 -67q0 -46 -24.5 -71t-70.5 -25q-45 0 -70.5 25.5t-25.5 70.5z" />
<glyph unicode="/" horiz-adv-x="624" d="M-90 -317l786 1816q5 6 22.5 3t34.5 -13.5t13 -18.5l-784 -1814q-6 -6 -23 -2t-34.5 13.5t-14.5 15.5z" />
<glyph unicode="0" horiz-adv-x="956" d="M120.5 294.5q-19.5 148.5 12.5 346.5q51 292 192.5 478t317.5 186q116 0 189.5 -87.5t91 -236.5t-14.5 -346q-53 -295 -192.5 -478.5t-313.5 -183.5q-115 0 -189 86.5t-93.5 235zM266 323.5q1 -144.5 43.5 -231t122.5 -86.5q213 0 311 604q53 330 17.5 497t-142.5 167 q-106 0 -191.5 -171.5t-131.5 -447.5q-30 -187 -29 -331.5z" />
<glyph unicode="1" horiz-adv-x="698" d="M42 12.5q0 12.5 7 12.5q114 0 152 26.5t53 114.5l149 850q7 42 9.5 67t-1.5 44t-14.5 25t-32 4t-50.5 -13t-74 -31q-8 -3 -14 8q-3 10 3 13l346 165q7 3 12 -3t3 -11l-197 -1118q-5 -32 -6.5 -51.5t2 -37t13 -26t29.5 -15.5t47.5 -9t70.5 -2q7 0 7 -12.5t-7 -12.5 q-31 0 -114 2t-134 2q-50 0 -135.5 -2t-116.5 -2q-7 0 -7 12.5z" />
<glyph unicode="2" horiz-adv-x="827" d="M23 10q-3 10 0 19q38 107 92.5 200.5t110 161t114.5 128.5t113 114.5t99 107t77.5 117.5t44.5 135q21 121 -23.5 183.5t-136.5 62.5q-94 0 -167.5 -64.5t-119.5 -183.5q-2 -9 -15 -2q-10 5 -7 12l121 302q3 6 15 3t9 -12q-22 -57 12 -57q17 0 57.5 16.5t95.5 33t108 16.5 q117 0 168.5 -75.5t31.5 -191.5q-12 -68 -50.5 -137t-92 -129.5t-117 -121t-129.5 -121t-124.5 -119.5t-107.5 -128t-73 -135q-2 -5 -1.5 -5.5t7.5 -0.5q99 0 159.5 1t125 4t101 9.5t72 16.5t54 25.5t32 37t19.5 50.5q2 4 8.5 5t12 -1.5t4.5 -7.5l-47 -263q-8 -16 -19 -16 h-624q-7 0 -10 10z" />
<glyph unicode="3" horiz-adv-x="854" d="M39 135q-2 5 2.5 10.5t10 7t9.5 -2.5q36 -56 93 -85.5t122 -29.5q123 0 199.5 87.5t99.5 225.5q25 149 -25 241.5t-159 92.5q-25 0 -61 -8q-4 -2 -7.5 2.5t-3.5 10.5t5 7q68 25 131 25q39 0 73 -6q101 115 129 299q32 245 -143 245q-165 0 -299 -258q-2 -8 -15 0 q-7 5 -7 11l131 315q2 6 14 1q6 -5 4 -9q-20 -60 23 -60q19 0 89.5 23.5t129.5 22.5q130 0 188 -75.5t39 -180.5q-17 -98 -84.5 -188.5t-165.5 -151.5q107 -28 155.5 -115t24.5 -223q-33 -178 -157 -286t-281 -108q-175 0 -264 160z" />
<glyph unicode="4" horiz-adv-x="876" d="M22.5 383.5q-3.5 6.5 2.5 15.5l735 891q3 4 9.5 4.5t11.5 -3t3 -9.5l-143 -817q25 1 75 2t75 2q5 -4 3.5 -28t-7.5 -51.5t-11 -27.5l-151 7l-35 -203q-17 -87 5.5 -114t100.5 -27q8 0 8 -12.5t-8 -12.5q-21 0 -89.5 2t-108.5 2q-47 0 -131.5 -2t-112.5 -2q-8 0 -8 12.5 t8 12.5q117 0 150.5 22.5t50.5 118.5l37 207q-246 4 -457 4q-9 0 -12.5 6.5zM145 475q-13 -16 7 -16q146 0 354 4l102 584z" />
<glyph unicode="5" horiz-adv-x="839" d="M49 133q-3 8 8 13.5t15 -1.5q65 -110 211 -110q122 0 198 95t107 255q29 160 -34 263.5t-204 103.5q-78 0 -137 -21q-19 0 -14 23l147 501q5 15 9.5 20t17.5 5q346 0 409.5 7.5t85.5 53.5q4 6 17 1q8 -3 4 -9l-49 -145q-8 -23 -20.5 -29t-37.5 -6l-391 10q-24 0 -33 -28 l-94 -351q121 31 201 31q168 0 247.5 -105.5t43.5 -299.5q-38 -206 -164 -320.5t-287 -114.5q-165 0 -256 158z" />
<glyph unicode="6" horiz-adv-x="925" d="M105.5 270q-8.5 90 13.5 193q27 148 95.5 290.5t165.5 259t227.5 195t271.5 95.5q5 1 8 -4.5t2 -11.5t-6 -7q-119 -32 -224 -110.5t-180.5 -185.5t-126.5 -231.5t-73 -254.5q-15 -86 -15 -167.5t16 -154.5t59.5 -117.5t109.5 -44.5q168 0 219 252q15 103 10 185 t-42.5 133t-103.5 51q-76 0 -145 -72q-4 -4 -12.5 3t-5.5 12q39 55 102.5 86.5t128.5 31.5q76 0 129.5 -31.5t77.5 -83.5t31.5 -118.5t-7.5 -136.5q-33 -163 -152 -258t-273 -95q-95 0 -161.5 37.5t-98.5 103.5t-40.5 156z" />
<glyph unicode="7" horiz-adv-x="811" d="M24 12.5q0 12.5 7 12.5q57 0 106 43t109 147l536 934q10 14 -4 14q-105 0 -172 -0.5t-130.5 -3.5t-98.5 -6t-69 -12t-49 -17t-32 -25t-25 -32t-20 -43q-1 -5 -7.5 -5t-11.5 3.5t-3 7.5l119 307q2 3 8.5 3t11.5 -2.5t4 -6.5q-12 -33 2 -42t76 -9h487q8 0 12 -10t1 -17 l-572 -1142q-5 -10 -14 -27q-31 -59 -40.5 -71.5t-25.5 -12.5h-198q-7 0 -7 12.5z" />
<glyph unicode="8" horiz-adv-x="913" d="M68 313q16 88 73.5 174t130.5 148t152 102q-74 72 -108.5 142t-18.5 163q13 72 51.5 125t90.5 81.5t104.5 41.5t105.5 13q124 0 187.5 -73t40.5 -194q-17 -83 -80 -164t-156 -147q24 -21 39 -35t37 -35.5t35.5 -37.5t30.5 -38.5t26.5 -42.5t19 -45t13 -49t3.5 -53t-5 -59 q-18 -102 -85 -184.5t-164.5 -127.5t-205.5 -45q-161 0 -251.5 100t-65.5 240zM229 369q-25 -150 31 -254.5t172 -104.5q92 0 166.5 73t91.5 185q5 29 5.5 56t-4 52.5t-9.5 47t-17.5 44.5t-21.5 40t-27 39t-29.5 35.5t-33.5 34.5t-33.5 32t-35.5 33q-25 23 -38 35 q-180 -121 -217 -348zM432 1100q-8 -56 2.5 -105t41.5 -94t60 -76t78 -75q97 114 121 264q21 125 -13 188.5t-108 63.5q-76 0 -120.5 -39.5t-61.5 -126.5z" />
<glyph unicode="9" horiz-adv-x="925" d="M124.5 -16q-0.5 11 6.5 14q123 33 226.5 108t178 179.5t124.5 229t73 263.5q15 87 14.5 169t-17 155t-60.5 117.5t-111 44.5q-163 0 -215 -252q-28 -163 4.5 -267t132.5 -104q75 0 144 72q3 3 8 1.5t8.5 -7t1.5 -9.5q-41 -57 -102 -87.5t-131 -30.5q-62 0 -109 21t-73 57 t-41.5 84t-14 100.5t9.5 107.5q33 164 152.5 258.5t277.5 94.5q182 0 252 -132.5t29 -355.5q-39 -214 -144 -395.5t-266 -302t-350 -144.5q-8 0 -8.5 11z" />
<glyph unicode=":" horiz-adv-x="411" d="M49 78q0 42 26 67t70 25q45 0 70 -25t25 -67q0 -46 -24.5 -71t-70.5 -25q-45 0 -70.5 25.5t-25.5 70.5zM125 653q0 42 26 67t70 25q45 0 69.5 -25t24.5 -67q0 -46 -24 -71t-70 -25q-45 0 -70.5 25.5t-25.5 70.5z" />
<glyph unicode=";" horiz-adv-x="454" d="M23.5 -317.5q-1.5 5.5 1.5 10.5q148 114 168 246q6 42 -3 65q-17 -20 -53 -20q-47 0 -70 30t-18 70q3 38 31 61t76 23q65 0 95.5 -53.5t12.5 -143.5q-26 -156 -225 -299q-4 -3 -9 1t-6.5 9.5zM125 653q0 42 26 67t70 25q45 0 69.5 -25t24.5 -67q0 -46 -24 -71t-70 -25 q-45 0 -70.5 25.5t-25.5 70.5z" />
<glyph unicode="&#x3c;" horiz-adv-x="833" d="M62 390q0 30 10 34l684 301q9 5 12 -16q6 -39 -6 -63q-3 -5 -6 -7l-582 -250l582 -248q15 -8 13 -57q-2 -36 -13 -33l-684 303q-10 6 -10 36z" />
<glyph unicode="=" horiz-adv-x="958" d="M61.5 265.5q1.5 21.5 6.5 21.5h821q9 0 9 -43t-9 -43h-819q-6 0 -8 21.5t-0.5 43zM61.5 553.5q1.5 21.5 6.5 21.5h821q9 0 9 -43t-9 -43h-819q-6 0 -8 21.5t-0.5 43z" />
<glyph unicode="&#x3e;" horiz-adv-x="833" d="M63 692q2 36 13 33l684 -303q10 -6 10 -36t-10 -34l-684 -301q-9 -5 -12 16q-6 39 6 63q3 5 6 7l581 250l-581 248q-15 8 -13 57z" />
<glyph unicode="?" horiz-adv-x="604" d="M154 78q0 42 26 67t70 25q45 0 69.5 -25t24.5 -67q0 -46 -24 -71t-70 -25q-45 0 -70.5 25.5t-25.5 70.5zM180 1143q12 60 93 98.5t180 38.5q124 0 190 -64.5t43 -181.5q-4 -22 -10.5 -42.5t-17.5 -40t-19 -34t-24.5 -33t-24 -27.5t-28 -27.5t-26 -23t-28 -23.5t-25.5 -21 q-87 -68 -124.5 -124.5t-49.5 -129.5q-9 -47 -2 -117q1 -6 -5 -8.5t-13 -1.5t-8 6q-25 54 -35 126t-4 118q9 54 40 98t69.5 75.5t77.5 64t71 81t43 109.5q14 81 -14.5 134.5t-92.5 53.5q-25 0 -43 -7.5t-28 -22t-15 -27.5t-10 -33q-6 -22 -10 -33t-14 -29.5t-27 -27 t-41 -8.5q-38 0 -56 25t-12 59z" />
<glyph unicode="@" horiz-adv-x="1478" d="M143 358q0 143 55.5 268t148.5 210t215.5 133.5t254.5 48.5q118 0 218 -38.5t167 -103.5t104 -150.5t37 -180.5q0 -115 -52.5 -215.5t-142.5 -160.5t-194 -60q-146 0 -114 180l14 71q-70 -117 -154.5 -186.5t-158.5 -69.5q-56 0 -87 41t-20 127q16 110 85 218 t160.5 174.5t172.5 66.5q67 0 100 -45q38 23 47 59q3 3 20 2t17 -4l-84 -460q-6 -39 -6 -68t18.5 -46t55.5 -17q86 0 161.5 90t75.5 241q0 203 -145.5 344.5t-361.5 141.5q-158 0 -274.5 -77.5t-174 -203t-57.5 -280.5q0 -247 155 -397t408 -150q97 0 174 21.5t168 76.5 q4 2 8 -1.5t5 -8t-1 -6.5q-180 -148 -422 -148q-168 0 -301.5 65t-214 194.5t-80.5 303.5zM565 352q-28 -151 45 -151q49 0 108 53t107 136.5t66 166.5q10 56 -9.5 92t-66.5 35q-77 -3 -152 -102.5t-98 -229.5z" />
<glyph unicode="A" horiz-adv-x="1232" d="M-78 12.5q0 12.5 8 12.5q59 0 131 56.5t140 178.5l581 1040q4 4 13 4h7q15 -2 17 -8l195 -1124q14 -91 39 -119t108 -28q6 0 6 -12.5t-6 -12.5q-32 0 -102 4t-113 4t-108 -4t-97 -4q-7 0 -7 12.5t7 12.5q89 0 113 30q15 19 16 59q0 25 -6 58l-82 481h-307l-211 -385 q-52 -96 -56 -150q-1 -6 -1 -13q-1 -45 29 -61q34 -20 110 -19q4 0 5.5 -6.5t-1 -12.5t-8.5 -6q-26 0 -103.5 4t-119.5 4q-41 0 -98 -4t-91 -4q-8 0 -8 12.5zM502 700h272l-65 379z" />
<glyph unicode="B" horiz-adv-x="1093" d="M19 12.5q0 12.5 6 12.5q93 0 128 28.5t52 116.5l168 948q5 32 5 55q0 41 -14 57q-22 25 -116 25q-6 0 -5.5 12.5t5.5 12.5q29 0 103.5 -3t117.5 -3q34 0 112 6t111 6q180 0 258 -75q58 -56 58 -141q0 -29 -7 -62q-22 -96 -96 -170.5t-194 -118.5q159 -17 237 -114 q60 -74 59 -172q0 -31 -6 -66q-29 -159 -168 -267t-317 -108q-37 0 -131.5 6t-136.5 6q-45 0 -121 -2t-102 -2q-6 0 -6 12.5zM345 84q7 -29 40.5 -42t103.5 -13q149 0 236 81.5t113 223.5q9 48 9 89q1 95 -47 157q-68 90 -233 92q-15 1 -33 1q-41 0 -96 -5l-90 -508 q-6 -28 -6 -49q0 -15 3 -27zM446 721q47 -2 80 -2q138 0 221.5 80.5t108.5 210.5q8 37 8 69q0 65 -33 109q-49 66 -178 65q-65 0 -93.5 -28.5t-45.5 -120.5z" />
<glyph unicode="C" horiz-adv-x="1200" d="M118 513q2 67 13 136q27 146 102.5 270.5t179 207.5t227.5 129.5t249 46.5q85 0 169.5 -19t129.5 -49q14 -9 17 -17q2 -5 2 -16q0 -7 -1 -16l-24 -242q-2 -8 -12 -8t-11 8q-21 155 -112 233t-236 78q-193 0 -330.5 -147.5t-177.5 -398.5q-14 -88 -14 -169q0 -95 19 -182 q35 -161 129 -256.5t227 -95.5q235 0 430 309q3 4 7.5 4t9 -4t3.5 -8l-59 -225q-6 -26 -12 -34.5t-23 -12.5q-186 -60 -369 -60q-98 0 -179.5 21t-139.5 58t-100.5 88t-67.5 110q-24 58 -36 126q-11 60 -11 120q1 8 1 15z" />
<glyph unicode="D" horiz-adv-x="1269" d="M19 12.5q0 12.5 6 12.5q91 0 122 26t46 115l167 948q6 37 6 63q0 35 -12 51q-21 26 -110 27q-4 0 -4 12.5t4 12.5q26 0 99 -3t118 -3q39 0 120 5t113 5q188 0 322 -80t190 -222q36 -91 36 -198q0 -59 -11 -122q-26 -149 -99 -276t-173.5 -212.5t-221 -133.5t-243.5 -48 q-31 0 -122 6t-134 6q-47 0 -117.5 -2t-95.5 -2q-6 0 -6 12.5zM342 188q-6 -32 -6 -58q0 -44 18 -67q28 -36 127 -36q212 0 368 154.5t206 434.5q15 100 15 192t-26.5 173t-70.5 141t-116.5 94.5t-164.5 34.5q-95 0 -134 -28.5t-54 -112.5z" />
<glyph unicode="E" horiz-adv-x="1064" d="M30 12.5q0 12.5 5 12.5q91 0 121 25.5t47 115.5l168 948q6 36 6 62q-1 36 -13 52q-22 26 -110 27q-6 0 -6 12.5t6 12.5h790q13 0 13 -13v-5q-3 -21 -19 -125t-22 -138q-1 -4 -7 -4.5t-11.5 1.5t-4.5 5v19q0 98 -46 158q-51 66 -144 65h-127q-91 0 -119 -23.5t-43 -107.5 l-74 -422h269q87 0 129 33.5t57 114.5q1 6 7 7.5t11.5 -1t4.5 -8.5q-7 -46 -17.5 -98.5t-13.5 -71.5q-13 -89 -31 -197q-1 -6 -7.5 -7.5t-12.5 1t-5 8.5q5 28 5 51q0 52 -23 80q-33 42 -119 41h-262l-84 -469q-6 -34 -6 -58q0 -37 13 -52q21 -25 108 -25h170 q91 0 175.5 74.5t139.5 199.5q2 3 8.5 3t12 -2.5t4.5 -6.5q-39 -107 -66 -276q-5 -18 -11.5 -24.5t-23.5 -6.5h-837q-5 0 -5 12.5z" />
<glyph unicode="F" horiz-adv-x="991" d="M23 12.5q0 12.5 6 12.5q90 0 120.5 25.5t47.5 115.5l168 948q6 36 6 62q-1 36 -13 52q-22 26 -110 27q-6 0 -6 12.5t6 12.5h792q13 0 13 -10q0 -3 -2 -8q-5 -41 -20.5 -139.5t-18.5 -123.5q-2 -4 -8.5 -4.5t-12 1.5t-4.5 5q1 12 1 23q0 96 -46 154q-52 66 -145 65h-127 q-91 0 -119 -23.5t-43 -107.5l-80 -446h242q85 0 127 33.5t57 113.5q2 11 16 8q10 -2 7 -10q-7 -47 -31 -170q-6 -30 -15 -94t-16 -103q-1 -6 -7.5 -7.5t-12 1t-4.5 8.5q5 29 5 52q0 52 -22 80q-32 40 -121 40h-233l-78 -444q-9 -37 -6 -63t10 -42.5t31.5 -26.5t59.5 -13.5 t93 -3.5q4 0 4 -12.5t-4 -12.5q-23 0 -120 2t-172 2q-42 0 -113 -2t-96 -2q-6 0 -6 12.5z" />
<glyph unicode="G" horiz-adv-x="1292" d="M125 428q-2 31 -2 63q0 72 12 150q34 191 151 343t288 235.5t364 83.5q87 0 166.5 -19t124.5 -51q12 -10 14 -19q1 -4 1 -8q0 -8 -3 -20l-24 -242q-1 -8 -11 -8t-12 8q-19 150 -105.5 230.5t-232.5 80.5q-214 0 -359 -145t-188 -395q-16 -95 -16 -180q0 -192 83 -327 q118 -194 357 -194q121 0 174 49.5t76 194.5q8 55 11 85.5t-1 58.5t-13.5 40t-33 21.5t-53 11.5t-80.5 2q-10 0 -9.5 16.5t9.5 16.5q116 -9 235 -9q89 0 179 5q8 0 8.5 -14.5t-8.5 -14.5h-3q-50 0 -66 -35q-17 -37 -44 -204q-14 -81 -15.5 -128.5t-2.5 -52.5q-1 -11 -6 -15 t-19 -9q-227 -58 -395 -58q-122 0 -222.5 33.5t-167.5 93t-110 143t-51 183.5z" />
<glyph unicode="H" horiz-adv-x="1376" d="M19 12.5q0 12.5 6 12.5q91 0 122 26t46 115l167 948q6 37 6 63q0 35 -12 51q-21 26 -110 27q-4 0 -4 12.5t4 12.5q25 0 96 -3t115 -3q43 0 117 3t100 3q4 0 4 -12.5t-4 -12.5q-90 0 -120 -28t-48 -117l-74 -420h619l73 420q6 38 6 65q0 36 -11 52q-20 28 -109 28 q-4 0 -4 12.5t4 12.5q24 0 96.5 -3t116.5 -3q42 0 115 3t98 3q6 0 6 -12.5t-6 -12.5q-88 0 -118.5 -26t-47.5 -115l-168 -948q-6 -36 -6 -62q0 -38 13 -53q22 -26 112 -26q6 0 6 -12.5t-6 -12.5q-23 0 -95.5 2t-115.5 2q-44 0 -118 -2t-99 -2q-6 0 -6 12.5t6 12.5 q63 0 93.5 11.5t45 39t26.5 90.5l84 477h-620l-84 -477q-6 -38 -6 -64q0 -38 12 -52q21 -26 111 -25q6 0 6 -12.5t-6 -12.5q-25 0 -99 2t-121 2q-42 0 -112.5 -2t-95.5 -2q-6 0 -6 12.5z" />
<glyph unicode="I" horiz-adv-x="649" d="M38 12.5q0 12.5 5 12.5q91 0 121 25.5t47 115.5l168 948q6 35 6 61q1 37 -13 53q-22 26 -112 27q-6 0 -6 12.5t6 12.5q26 0 97 -3t114 -3q49 0 122.5 3t96.5 3q6 0 6 -12.5t-6 -12.5q-89 0 -118.5 -27.5t-47.5 -117.5l-168 -944q-6 -37 -6 -63q0 -37 12 -52 q22 -26 113 -26q6 0 6 -12.5t-6 -12.5q-25 0 -97 2t-120 2q-43 0 -115.5 -2t-99.5 -2q-5 0 -5 12.5z" />
<glyph unicode="J" horiz-adv-x="598" d="M-55 -373q91 55 145 166t86 289l182 1032q7 37 7 64q0 35 -13 50q-22 27 -112 27q-4 0 -4 12.5t4 12.5q27 0 98 -3t115 -3q49 0 122.5 3t96.5 3q4 0 4 -12.5t-4 -12.5q-90 0 -120.5 -27.5t-45.5 -117.5l-174 -973q-29 -160 -75 -260t-115.5 -161t-184.5 -111q-1 -1 -3 -1 l-9 8q-3 6 -3 9.5t3 5.5z" />
<glyph unicode="K" horiz-adv-x="1236" d="M19 12.5q0 12.5 6 12.5q91 0 122 26t46 115l167 948q6 37 6 63q0 35 -12 51q-21 26 -110 27q-4 0 -4 12.5t4 12.5q25 0 96 -3t115 -3q43 0 117 3t100 3q4 0 4 -12.5t-4 -12.5q-63 0 -94.5 -13t-46.5 -41.5t-27 -90.5l-78 -440l471 432q73 70 73 109q0 44 -91 44 q-5 0 -5 12.5t5 12.5q23 0 99 -3t128 -3q51 0 109.5 3t78.5 3q4 0 4 -12.5t-4 -12.5q-76 0 -169.5 -41t-182.5 -124l-328 -293l199 -373q53 -98 89 -161t67.5 -109.5t52 -70.5t44 -38t41 -17t46.5 -3q5 0 5 -12.5t-5 -12.5h-182h-15q-45 0 -60.5 1t-34 13.5t-29 33.5 t-32.5 67q-51 108 -98 196l-206 379l-80 -69l-80 -455q-11 -50 -11 -81v-9q2 -32 25.5 -41.5t89.5 -9.5q4 0 4 -12.5t-4 -12.5q-27 0 -92 2t-115 2q-42 0 -112.5 -2t-95.5 -2q-6 0 -6 12.5z" />
<glyph unicode="L" horiz-adv-x="1021" d="M21 12.5q0 12.5 6 12.5q91 0 121 26t45 115l167 948q6 37 6 63q0 35 -12 51q-21 26 -110 27q-4 0 -4 12.5t4 12.5q25 0 96 -3t115 -3q43 0 117 3t100 3q4 0 4 -12.5t-4 -12.5q-90 0 -120 -26.5t-48 -116.5l-164 -938q-7 -38 -7 -63q0 -33 11 -47q19 -25 98 -25h156 q126 0 213 72t150 213q2 4 7.5 4t11.5 -3q5 -3 5 -5l-65 -289q-5 -18 -11.5 -24.5t-23.5 -6.5h-858q-6 0 -6 12.5z" />
<glyph unicode="M" horiz-adv-x="1505" d="M28 12.5q0 12.5 5 12.5q142 0 182 211l176 950q-43 69 -135 69q-6 0 -6 12.5t6 12.5q16 0 57.5 -2t61.5 -2q30 0 69.5 2t47.5 2q24 0 36 -20.5t25 -85.5l201 -936l512 991q10 23 29 37t38 14q7 0 44.5 -2t58.5 -2q32 0 74 2t59 2q5 0 5 -12.5t-5 -12.5q-79 0 -117 -27.5 t-49 -109.5l-141 -952q-6 -35 -6 -61q0 -39 14 -55q22 -26 110 -25q4 0 4 -12.5t-4 -12.5q-25 0 -98 2t-117 2q-45 0 -117.5 -2t-97.5 -2q-6 0 -6 12.5t6 12.5q94 0 124 26t42 115l148 979l-586 -1131q-3 -8 -15.5 -7.5t-13.5 9.5l-229 1094v2l-158 -874q-8 -48 -8 -85 q0 -47 13 -75q24 -52 95 -53q6 0 6 -12.5t-6 -12.5q-20 0 -74 2t-91 2q-31 0 -86 -2t-78 -2q-5 0 -5 12.5z" />
<glyph unicode="N" d="M10 12.5q0 12.5 4 12.5q152 0 189 198l166 946q-59 86 -136 86q-6 0 -6 12.5t6 12.5q23 0 76 -2t72 -2q23 0 61.5 2t42.5 2q14 0 20 -7.5t17.5 -38.5t26.5 -60l493 -941l144 822q7 40 7 71q0 129 -120 129q-5 0 -5 12.5t5 12.5q20 0 77.5 -3t96.5 -3q32 0 91 3t83 3 q6 0 6 -12.5t-6 -12.5q-151 0 -188 -200l-191 -1073q0 -8 -17 -10q-2 0 -4 -1q-13 0 -17 9l-598 1130l-156 -887q-7 -39 -7 -71q0 -127 119 -127q6 0 6 -12.5t-6 -12.5q-22 0 -78 2t-94 2q-33 0 -92 -2t-84 -2q-4 0 -4 12.5z" />
<glyph unicode="O" d="M135 641q51 288 251 475t454 187q103 0 188 -34t141.5 -94.5t92.5 -144t42 -181.5q1 -24 1 -49q0 -76 -13 -159q-26 -147 -96 -272.5t-166 -211t-213 -134t-237 -48.5q-166 0 -280 90q-114 89 -156 241q-24 85 -24 180q0 74 15 155zM286 478q14 -130 58.5 -230 t129 -159.5t194.5 -59.5q166 0 288.5 133t167.5 370q21 100 21 193q-1 43 -5 85q-14 132 -59.5 230t-129.5 155.5t-193 57.5q-171 0 -292.5 -135t-164.5 -368q-19 -95 -20 -184q0 -44 5 -88z" />
<glyph unicode="P" horiz-adv-x="1048" d="M22 12.5q0 12.5 5 12.5q92 0 122.5 25.5t47.5 115.5l168 948q6 37 6 63q-1 37 -13 52q-22 26 -110 26q-6 0 -6 12.5t6 12.5q24 0 95 -3t114 -3q24 0 113 6t139 6q85 0 155 -22t120 -64.5t70 -112.5q12 -39 12 -85q0 -35 -7 -74q-17 -98 -73 -176t-130 -123t-152 -68.5 t-151 -23.5q-50 0 -84 10q-2 2 -1.5 10t4.5 16t9 7q27 -9 60 -9q57 0 111.5 19t103 56.5t84.5 99.5t49 141q9 49 9 92q0 103 -49 173q-69 100 -183 99q-87 0 -114.5 -23t-45.5 -118l-166 -944q-6 -38 -6 -64q0 -38 12 -52q21 -26 111 -25q5 0 5 -12.5t-5 -12.5 q-26 0 -99.5 2t-119.5 2q-43 0 -114 -2t-97 -2q-5 0 -5 12.5z" />
<glyph unicode="Q" d="M135 641q51 288 251 475t454 187q103 0 188 -34t141.5 -94.5t92.5 -144t42 -181.5q1 -24 1 -49q0 -76 -13 -159q-34 -191 -139 -341t-252 -234q71 -182 201 -305t233 -123q40 0 70 6q4 2 7 -3q4 -6 4 -12q0 -4 -3 -6q-93 -26 -164 -26q-132 0 -265 105t-232 298 q-89 -25 -172 -25q-166 0 -280 90t-156 241q-24 85 -24 180q0 74 15 155zM286 478q15 -131 59 -230.5t128.5 -159t194.5 -59.5q166 0 288.5 133t167.5 370q21 100 21 193q0 44 -5 85q-14 132 -59.5 230t-129.5 155.5t-193 57.5q-171 0 -292.5 -135t-164.5 -368 q-19 -95 -19 -184q0 -45 4 -88z" />
<glyph unicode="R" horiz-adv-x="1269" d="M26 12.5q0 12.5 7 12.5q98 0 132.5 26.5t51.5 114.5l168 948q6 36 6 62q0 38 -13 53q-22 26 -118 26q-6 0 -6 12.5t6 12.5q28 0 103 -3t120 -3q31 0 110.5 6t106.5 6q165 0 239 -68q56 -51 55 -132q0 -26 -5 -56q-18 -95 -84.5 -178.5t-163.5 -136.5 q109 -263 187.5 -409.5t147.5 -213.5t143 -67q7 0 7 -12.5t-7 -12.5h-248q-48 0 -141 173.5t-205 492.5q-70 -17 -125 -17q-23 0 -51 4l-89 -487q-7 -38 -7 -65q0 -35 12 -49q22 -26 116 -27q5 0 7 -6.5t0.5 -12.5t-5.5 -6q-28 0 -102 2t-121 2q-45 0 -122 -2t-105 -2 q-7 0 -7 12.5zM457 707q56 -9 84 -9q129 0 195 61.5t89 201.5q9 55 9 100q0 78 -28 121q-46 69 -140 69q-39 0 -57 -2.5t-35.5 -16.5t-26.5 -42t-19 -80z" />
<glyph unicode="S" horiz-adv-x="950" d="M86 84l41 276q0 9 11.5 9t13.5 -9q14 -158 83.5 -252t196.5 -94q97 0 168 57.5t92 170.5q5 27 5 53t-4.5 49t-10.5 43.5t-18 40t-23 36t-28.5 34.5t-31.5 31t-35 29.5t-36.5 28t-38.5 27.5q-29 21 -42.5 31t-39.5 31t-39 34t-33.5 34.5t-30 39t-21 42t-15 48t-4 52 t5.5 59.5q20 102 87.5 176t155.5 108t185 34q110 0 227 -50q28 -14 25 -34l-29 -240q0 -6 -11 -6t-11 6q-8 61 -24.5 110.5t-44.5 91.5t-72 65.5t-101 23.5q-101 0 -160.5 -64.5t-75.5 -152.5q-6 -24 -6 -46q-1 -10 1 -19q4 -31 11 -56t23 -49.5t33.5 -44t41.5 -40t47 -38 t50 -37.5q9 -7 14 -10q25 -18 40 -28.5t38.5 -29t38 -31.5t34 -32t31 -35.5t25 -38t20 -42.5t12 -45.5t4.5 -51t-5 -55.5q-26 -150 -151.5 -249.5t-323.5 -99.5q-151 0 -283 70q-12 8 -12 30v9z" />
<glyph unicode="T" horiz-adv-x="1132" d="M203 1128q31 128 43 197q2 4 8.5 5t11.5 -1t4 -6q-2 -14 5 -23.5t21.5 -13.5t26 -5t27.5 -1q150 -6 375 -6q91 0 207 3t153 3q61 0 92 10t44 41q2 4 8 5h3q4 0 8 -2t3 -5v-2q-17 -60 -46.5 -196t-37.5 -187q-2 -9 -15 -6q-10 1 -7 8q9 52 9 95q0 200 -204 200h-41 q-70 0 -92.5 -25t-36.5 -106l-166 -944q-7 -35 -7 -61q0 -39 16 -54q26 -26 133 -26q4 0 4 -12.5t-4 -12.5q-29 0 -108.5 2t-131.5 2q-47 0 -127.5 -2t-110.5 -2q-4 0 -4 12.5t4 12.5q104 0 139 26t50 115l168 948q6 34 6 58q1 30 -9 44q-18 25 -89 25h-39q-234 0 -318 -303 q-1 -3 -8 -3q-6 1 -12 3q-5 2 -4 5z" />
<glyph unicode="U" horiz-adv-x="1439" d="M209 381l129 733q7 38 7 64q-1 34 -13 50q-22 26 -111 27q-5 0 -5 12.5t5 12.5q25 0 96 -3t115 -3q43 0 117 3t100 3q5 0 5 -12.5t-5 -12.5q-63 0 -94.5 -13t-46.5 -41.5t-27 -90.5l-114 -657q-12 -66 -12 -123q1 -113 49 -185q72 -108 237 -108q90 0 177.5 39.5 t195.5 132.5l157 901q8 40 8 68q1 34 -11 49q-20 28 -109 28q-6 0 -6 12.5t6 12.5q24 0 96 -3t115 -3t117 3t98 3q5 0 5 -12.5t-5 -12.5q-89 0 -120 -26.5t-46 -114.5l-168 -948q-7 -35 -7 -61q0 -39 16 -54q26 -26 132 -26q8 0 8 -12.5t-8 -12.5q-27 0 -83 1t-87 1 q-22 0 -59 -1t-53 -1q-20 0 -24 6.5t-1 32.5l21 123q-117 -98 -219.5 -142.5t-211.5 -44.5q-193 1 -295 111q-78 84 -79 211q0 40 8 84z" />
<glyph unicode="V" horiz-adv-x="1216" d="M154 1267.5q0 12.5 4 12.5q27 0 85 -3t83 -3q54 0 127 3t96 3q7 0 7 -12.5t-7 -12.5q-71 0 -101 -28q-20 -18 -20 -54q0 -19 6 -43l209 -921l449 878q26 52 26 88q0 80 -131 80q-5 0 -5 12.5t5 12.5q28 0 92 -3t115 -3q35 0 85 3t81 3q8 0 8 -12.5t-8 -12.5 q-64 0 -114.5 -35.5t-104.5 -140.5l-561 -1077q-5 -9 -23 -9q-1 1 -3 1q-20 0 -22 8l-247 1108q-19 81 -46.5 113t-80.5 32q-4 0 -4 12.5z" />
<glyph unicode="W" horiz-adv-x="1691" d="M152 1267.5q0 12.5 6 12.5q27 0 85 -3t83 -3q49 0 114 3t86 3q8 0 8 -12.5t-8 -12.5q-102 0 -102 -82q0 -19 6 -43l211 -925l221 432l-106 473q-19 82 -43 113.5t-72 31.5q-6 0 -6 12.5t6 12.5q24 0 79 -3t81 -3q35 0 82.5 3t62.5 3q8 0 8 -12.5t-8 -12.5q-46 0 -54 -20 q-2 -5 -2 -16q0 -27 15 -89l72 -315l137 272q41 79 41 119q0 6 -1 10q-6 40 -67 39q-6 0 -6 12.5t6 12.5q18 0 58 -3t72 -3t77.5 3t73.5 3q8 0 8 -12.5t-8 -12.5q-59 0 -105 -35t-100 -141l-172 -329l121 -547l455 884q28 55 28 92q0 76 -116 76q-6 0 -6 12.5t6 12.5 q26 0 84 -3t104 -3q36 0 85.5 3t80.5 3q7 0 7 -12.5t-7 -12.5q-64 0 -114.5 -35.5t-104.5 -140.5l-561 -1077q-5 -9 -22 -9q-1 1 -2 1q-19 0 -21 8l-131 573l-297 -573q-5 -9 -23 -9q-1 1 -3 1q-20 0 -22 8l-247 1108q-19 81 -46.5 113t-80.5 32q-6 0 -6 12.5z" />
<glyph unicode="X" horiz-adv-x="1185" d="M-46 12.5q0 12.5 7 12.5q62 0 136.5 48.5t150.5 143.5l319 401l-188 492q-31 78 -68 111.5t-94 33.5q-7 0 -7 12.5t7 12.5q21 0 68 -3t69 -3q54 0 138.5 3t109.5 3q8 0 8 -12.5t-8 -12.5q-56 1 -78 -19q-12 -11 -12 -29q0 -14 8 -33l164 -429l254 326q49 63 58 105 q2 11 2 21q0 25 -18 39q-25 18 -81 19q-7 0 -7 12.5t7 12.5q25 0 101 -3t126 -3q28 0 74.5 3t71.5 3q8 0 8 -12.5t-8 -12.5q-63 0 -139 -52t-154 -152l-277 -351l203 -530q31 -79 72.5 -112t112.5 -33q6 0 6 -12.5t-6 -12.5q-23 0 -84 2t-97 2q-49 0 -133 -2t-108 -2 q-9 0 -8.5 12.5t8.5 12.5q60 0 86 19q17 12 16 32q0 12 -6 28l-180 474l-295 -379q-56 -76 -56 -118q0 -8 2 -15q14 -41 99 -41q8 0 8 -12.5t-8 -12.5q-26 0 -101.5 2t-123.5 2q-29 0 -76 -2t-72 -2q-7 0 -7 12.5z" />
<glyph unicode="Y" horiz-adv-x="1087" d="M144 1267.5q0 12.5 6 12.5q24 0 78.5 -3t80.5 -3q47 0 129.5 3t106.5 3q5 0 6 -6t-1.5 -12.5t-6.5 -6.5q-71 0 -91 -17q-10 -9 -10 -26q0 -16 9 -38l204 -488l267 389q46 68 46 113q0 10 -2 18q-11 49 -87 49q-6 0 -6 12.5t6 12.5q28 0 99 -3t118 -3q29 0 70.5 3t66.5 3 q6 0 6 -12.5t-6 -12.5q-131 0 -272 -202l-293 -416l-84 -471q-7 -39 -7 -66q0 -35 13 -50q22 -25 121 -25q6 0 6 -12.5t-6 -12.5q-27 0 -102 2t-122 2q-49 0 -125.5 -2t-103.5 -2q-6 0 -6 12.5t6 12.5q99 0 133 26t47 115l78 450l-209 494q-35 79 -69.5 112t-87.5 33 q-6 0 -6 12.5z" />
<glyph unicode="Z" horiz-adv-x="1126" d="M24 10q-1 3 -1 5q0 7 4 12l956 1202q5 6 7 8.5t1.5 4.5t-4 2.5t-10.5 0.5q-149 0 -238.5 -2.5t-169.5 -13t-121.5 -24.5t-83.5 -46.5t-67 -67.5t-61 -98q-2 -5 -8 -5.5t-10.5 3t-2.5 8.5l137 342q2 3 7 3h1q6 0 12.5 -3.5t4.5 -7.5q-10 -35 5.5 -44t84.5 -9h698 q9 0 13 -10q1 -4 1 -8q0 -5 -3 -9l-947 -1198q-9 -11 -8 -13.5t12 -2.5h361q165 0 260.5 56t165.5 196q3 6 14 3.5t10 -9.5l-73 -269q0 -6 -7 -13t-14 -7q-281 4 -915 4q-9 0 -11 10z" />
<glyph unicode="[" horiz-adv-x="509" d="M42 -236q-2 4 1 19l297 1681q2 14 5 17.5t13 3.5h281q6 0 6 -12.5t-6 -12.5q-105 0 -141.5 -28t-51.5 -117l-245 -1385q-15 -89 10.5 -117t128.5 -28q8 0 8 -12.5t-8 -12.5h-285q-11 0 -13 4z" />
<glyph unicode="\" horiz-adv-x="624" d="M229 1481q-1 8 18.5 14.5t40 5.5t21.5 -10l148 -1817q1 -8 -18 -13.5t-39 -4t-21 9.5z" />
<glyph unicode="]" horiz-adv-x="509" d="M-53 -227.5q0 12.5 6 12.5q104 0 140.5 28t51.5 117l246 1385q15 89 -10.5 117t-128.5 28q-8 0 -8 12.5t8 12.5h285q11 0 13 -4t-1 -19l-297 -1681q-1 -13 -4.5 -17t-14.5 -4h-280q-6 0 -6 12.5z" />
<glyph unicode="^" horiz-adv-x="722" d="M174 778l324 510q4 10 22 10t19 -10l143 -510q0 -3 -4.5 -6t-9 -3.5t-6.5 3.5l-181 303l-284 -307q-6 -4 -15.5 0.5t-7.5 9.5z" />
<glyph unicode="_" horiz-adv-x="743" d="M-22.5 -93.5q1.5 21.5 6.5 21.5h653q9 0 9 -43t-9 -43h-651q-6 0 -8 21.5t-0.5 43z" />
<glyph unicode="`" horiz-adv-x="339" d="M254 1489q3 12 34.5 10.5t68.5 -12.5t36 -21l-22 -491q0 -3 -4.5 -5t-9.5 -1.5t-5 4.5z" />
<glyph unicode="a" horiz-adv-x="894" d="M41 186q20 142 108.5 289.5t210 244.5t228.5 97q87 0 139 -55q39 30 53 72q3 4 9 4t11.5 -3t4.5 -6l-121 -647q-5 -30 -5 -52q0 -60 36 -60q42 0 127 88q6 6 14 -2q5 -5 6 -10q0 -3 -2 -5q-137 -159 -231 -159q-57 0 -73 46q-7 21 -8 55q0 40 11 99l33 191 q-89 -184 -204.5 -292t-221.5 -108q-71 0 -105 52q-24 37 -24 102q0 27 4 59zM180 303q-8 -49 -7 -86q0 -127 85 -127q69 0 148 73.5t137.5 180t79.5 207.5q7 30 7 56q0 45 -20 78q-31 50 -101 50h-3q-107 -2 -202 -126t-124 -306z" />
<glyph unicode="b" horiz-adv-x="901" d="M98 164l201 1085q5 28 5 48q0 39 -18 51q-8 5 -23 5q-33 0 -95 -30q-6 -2 -11 4t-4.5 12t5.5 9l282 137q2 1 4 1q5 0 12 -6q9 -8 7 -12l-182 -1013q69 161 182.5 261.5t234.5 100.5q95 1 140 -85q29 -55 29 -130q0 -41 -9 -88q-20 -102 -65.5 -191.5t-104 -152.5 t-126 -108t-133.5 -67t-124 -22q-110 0 -167 52q-44 40 -44 101q0 18 4 38zM233 197q-3 -16 -3 -30q0 -53 35 -91q44 -48 122 -49q101 0 191.5 115t123.5 309q12 61 12 112v18q-2 58 -31.5 94t-80.5 36q-122 0 -225 -143t-144 -371z" />
<glyph unicode="c" horiz-adv-x="708" d="M56 290q2 62 12 124q23 121 96 215t164.5 141t183.5 47q76 -1 132 -35q50 -31 51 -81q0 -5 -1 -11q-3 -32 -24 -53t-56 -21q-60 0 -82 74q-22 78 -96 78q-86 0 -142 -78.5t-81 -210.5q-14 -63 -13 -122q0 -19 1 -39q6 -78 28.5 -136.5t72.5 -93.5t120 -35q101 0 205 84 q6 5 14 -3.5t2 -14.5q-159 -146 -319 -146q-69 0 -122 26.5t-82.5 70.5t-47.5 101q-16 51 -16 107v12z" />
<glyph unicode="d" horiz-adv-x="913" d="M48 124q-3 21 -2 46q0 39 7 88q26 146 113 276t204.5 206.5t231.5 76.5q56 0 96 -22l84 454q5 26 5 46q0 41 -20 53q-9 5 -22 5q-33 0 -96 -30q-6 -2 -11 4t-4.5 12t5.5 9l283 137q2 1 4 1q6 0 12 -6q8 -8 6 -12l-235 -1286q-7 -33 -6 -57q0 -55 36 -55t127 88q8 8 16 -1 t1 -16q-70 -81 -124.5 -120t-107.5 -39q-58 0 -73 47q-6 20 -6 49q0 42 12 104l34 183q-91 -183 -193 -287.5t-208 -104.5q-41 0 -74.5 15t-60 48.5t-34.5 87.5zM186 350q-9 -54 -8 -97q0 -61 17 -100q30 -65 100 -65q49 0 100 33.5t92 86t76.5 116t58 124t31.5 109.5 q4 24 4 44q0 55 -28 89q-37 46 -107 45h-6q-123 -2 -210.5 -101.5t-119.5 -283.5z" />
<glyph unicode="e" horiz-adv-x="710" d="M60 182q-10 44 -9 92q0 50 10 105q20 106 86.5 205.5t172 166t221.5 66.5q76 1 114 -29q31 -24 30 -62q0 -9 -1 -19q-9 -60 -77 -115.5t-171.5 -95.5t-224.5 -60q-9 -60 -8 -112q0 -46 6 -86q14 -86 67.5 -136.5t137.5 -50.5q109 0 198 66q3 3 8 0t7 -8t0 -9 q-144 -125 -305 -125q-107 0 -174.5 58.5t-87.5 148.5zM215 463q277 58 309 201q3 15 3 28q0 28 -16 46q-24 24 -69 24q-86 0 -144 -83.5t-83 -215.5z" />
<glyph unicode="f" horiz-adv-x="538" d="M-225 -465q3 30 26 49t54 19q35 0 53 -20t21.5 -43.5t14.5 -43.5t33 -20q18 0 30 14.5t25.5 63.5t27 128.5t34.5 221.5l107 723q4 28 4 47q0 35 -11 46q-18 17 -104 17q-5 0 -6 7.5t1.5 14.5t6.5 7q71 0 101.5 19t39.5 71q41 252 92.5 386t128.5 189.5t203 55.5 q76 0 120 -33q39 -28 39 -67q0 -5 -1 -11q-6 -33 -27.5 -50t-52.5 -17q-29 0 -47 14.5t-25.5 35.5t-14 42.5t-20 36t-36.5 14.5q-74 0 -128.5 -137.5t-94.5 -415.5l-19 -125q35 2 83 5l80 5t42 2q18 0 14 -20q-3 -20 -25 -44.5t-42 -23.5q-98 16 -160 21l-111 -762 q-43 -293 -110.5 -406.5t-198.5 -113.5q-76 0 -114 29q-34 25 -34 60q0 4 1 9z" />
<glyph unicode="g" horiz-adv-x="847" d="M-43 -410q7 33 30 49.5t50 16.5q29 0 46 -19.5t26.5 -47t22.5 -55t44 -47t80 -19.5q30 0 56 9t54 33.5t51 65.5t44.5 109t38.5 159l92 527q-89 -183 -204.5 -290.5t-221.5 -107.5q-71 0 -105 52q-24 37 -24 102q0 27 4 59q20 142 108.5 289.5t210 244.5t228.5 97 q87 0 139 -55q39 30 53 72q3 4 9 4t11.5 -3t4.5 -6l-170 -938q-41 -226 -158 -346t-295 -120q-109 0 -173 47q-54 39 -54 96q0 11 2 22zM180 303q-8 -49 -8 -86q0 -127 86 -127q69 0 148 73.5t137.5 180t79.5 207.5q7 30 7 56q0 46 -20 78q-31 50 -101 50h-3 q-107 -2 -202 -126t-124 -306z" />
<glyph unicode="h" horiz-adv-x="919" d="M72 -2q0 3 5.5 26t13 60t11.5 68l205 1097q5 26 5 46q0 41 -20 53q-9 5 -22 5q-33 0 -96 -30q-6 -2 -11 4t-4.5 12t5.5 9l282 137q2 1 4 1q5 0 12 -6q9 -8 7 -12l-193 -1069q71 197 169 307.5t206 110.5q89 0 119 -65q16 -35 16 -92q0 -49 -12 -113l-65 -365 q-6 -33 -6 -56q0 -56 34 -56q38 0 129 88q4 5 10 2.5t8 -8.5q1 -2 1 -5t-2 -6q-73 -82 -126.5 -120.5t-107.5 -38.5q-56 0 -71 47q-7 21 -7 53q0 41 11 100l61 326q10 59 10 102q0 38 -8 62q-17 52 -72 53q-100 0 -203.5 -190t-162.5 -517q-7 -34 -80 -34q-55 0 -55 14z" />
<glyph unicode="i" horiz-adv-x="505" d="M51 638q-1 2 -1 4q0 4 3 7q135 160 240 160q58 1 74 -45q7 -20 7 -50q0 -39 -12 -96l-81 -436q-7 -34 -7 -58q0 -54 35 -54q46 0 129 86q5 5 11 2t8 -9q1 -2 1 -4q0 -4 -3 -6q-68 -80 -124 -118.5t-110 -38.5q-57 0 -73 46q-7 19 -7 49q0 42 13 105l84 426q6 31 6 54 q0 61 -41 61q-49 0 -133 -90q-5 -5 -11 -3t-8 8zM256 1139q0 43 26 67.5t72 24.5q44 0 69.5 -24.5t25.5 -67.5q0 -46 -25.5 -71.5t-69.5 -25.5q-46 0 -72 25.5t-26 71.5z" />
<glyph unicode="j" horiz-adv-x="497" d="M-190 -465q6 33 27 50.5t50 17.5q31 0 47 -20.5t19.5 -45t13.5 -45t31 -20.5q40 0 65 81.5t68 331.5l125 723q6 32 6 55q0 60 -39 60q-49 0 -133 -90q-8 -7 -16 1t0 15q135 160 239 160q56 0 72 -45q8 -22 8 -55q0 -38 -10 -91l-119 -684q-34 -195 -72.5 -300t-93.5 -151 t-143 -46q-73 0 -111 29q-35 25 -35 60q0 4 1 9zM281 1139q0 43 26 67.5t72 24.5q44 0 69 -24.5t25 -67.5q0 -46 -25 -71.5t-69 -25.5q-46 0 -72 25.5t-26 71.5z" />
<glyph unicode="k" horiz-adv-x="849" d="M72 -2q0 3 5.5 26t13 60t11.5 68l205 1097q5 26 5 46q0 41 -20 53q-9 5 -22 5q-33 0 -96 -30q-6 -2 -11 4t-4.5 12t5.5 9l282 137q2 1 4 1q6 0 12 -5q10 -7 7 -13l-150 -823q76 79 168 125.5t183 46.5q33 0 57.5 -8.5t36 -22t19.5 -30.5t7 -33t-2 -29 q-12 -73 -103.5 -144.5t-242.5 -125.5l133 -229q40 -67 70 -91t62 -24q52 0 129 74q4 5 10 2t8 -9q1 -2 1 -4q0 -4 -3 -6q-137 -155 -215 -155q-51 0 -87.5 29.5t-82.5 107.5l-119 205q-19 32 -34 42t-42 7l-65 -355q-7 -34 -80 -34q-55 0 -55 14zM276 406q175 42 255.5 97 t93.5 148q2 13 2 25q1 27 -11 44q-16 25 -51 25q-97 0 -174.5 -87.5t-109.5 -233.5z" />
<glyph unicode="l" horiz-adv-x="491" d="M114 29q-7 20 -7 52q0 41 12 101l196 1067q5 29 5 49q0 38 -18 50q-8 5 -21 5q-32 0 -95 -30q-6 -2 -11 4t-4.5 12t5.5 9l283 137q2 1 4 1q5 0 11 -6q8 -8 7 -12l-235 -1286q-7 -33 -7 -57q0 -55 37 -55q36 0 127 88q7 8 16 -1t1 -16q-70 -81 -124.5 -120t-107.5 -39 q-58 0 -74 47z" />
<glyph unicode="m" horiz-adv-x="1390" d="M45 649q135 160 240 160q55 1 71 -45q7 -21 8 -54q0 -38 -10 -92l-39 -212q71 195 166 303t199 108q127 0 127 -158q0 -48 -12 -110l-27 -143q71 195 165.5 303t196.5 108q84 0 113 -65q16 -35 16 -91q0 -49 -12 -114l-67 -365q-6 -32 -5 -55q0 -57 35 -57q36 0 127 88 q7 8 16 -1q5 -5 5 -9t-4 -7q-70 -81 -124.5 -120t-107.5 -39q-58 0 -73 47q-6 20 -6 49q0 42 12 104l59 326q11 64 11 108q-1 34 -7 56q-14 52 -65 53q-90 0 -188.5 -179t-157.5 -489l-9 -39q-2 -15 -23 -24.5t-57 -9.5q-53 0 -53 14q0 3 5.5 27t13.5 61t12 66l66 358 q10 58 10 100q0 115 -72 115q-92 0 -191 -181t-157 -487l-6 -39q-2 -15 -23 -24.5t-57 -9.5q-53 0 -53 14q0 3 5 25t12.5 58t12.5 64l84 463q6 33 6 56q0 59 -38 59q-50 0 -134 -90q-7 -7 -15 1q-4 4 -4 8t3 7z" />
<glyph unicode="n" horiz-adv-x="960" d="M45 649q135 160 240 160q55 1 71 -45q7 -21 8 -54q0 -38 -10 -92l-41 -225q73 200 171.5 312t207.5 112q88 0 118 -65q16 -35 17 -92q0 -49 -12 -113l-65 -365q-6 -32 -6 -55q0 -57 36 -57q37 0 125 88q7 7 16 -1q5 -5 5 -10q0 -3 -2 -6q-73 -82 -126.5 -120.5 t-107.5 -38.5q-56 0 -71 47q-7 21 -7 53q0 41 11 100l59 326q12 63 12 107q0 35 -8 57q-16 52 -72 53q-100 0 -203.5 -190t-162.5 -517q-7 -34 -82 -34q-53 0 -53 14q0 3 5 25.5t12.5 60t12.5 68.5l84 456q6 33 6 56q0 59 -38 59q-50 0 -134 -90q-7 -7 -15 1q-4 4 -4 8t3 7z " />
<glyph unicode="o" horiz-adv-x="823" d="M63 395q35 182 159 302t280 120q79 0 138.5 -33.5t89.5 -91.5q31 -58 41 -134q3 -26 4 -54q0 -52 -13 -109q-26 -129 -97 -227.5t-161.5 -147.5t-186.5 -49q-151 0 -219 122q-46 82 -46 191q0 52 11 111zM195 317q6 -82 27.5 -147.5t65.5 -106t101 -40.5q79 0 142 76 t87 206q13 60 13 120q0 21 -2 43q-6 82 -26 149t-63.5 109t-101.5 42q-78 0 -141.5 -75.5t-89.5 -209.5q-14 -63 -14 -125q0 -21 2 -41z" />
<glyph unicode="p" horiz-adv-x="831" d="M-129 -539q66 12 86 39t35 121l174 975q-11 -7 -94 -70q-4 -3 -10 1.5t-8 10t1 9.5q45 38 119 94l27 150q1 4 30.5 25t62.5 56t40 72q2 5 8 6h2q5 0 8 -3q5 -3 4 -7l-37 -209q145 74 265 74q117 0 168 -73q36 -53 36 -140q0 -34 -6 -74q-19 -138 -93 -258.5t-179 -191 t-213 -70.5q-63 0 -107 6l-65 -369q-5 -32 -5 -55q0 -37 13 -51q14 -16 56 -16q20 0 47 4q8 2 11.5 -10t-5.5 -15l-365 -55h-1q-4 0 -7 4.5t-3 10.5q0 8 5 9zM205 90q68 -33 155 -33q120 0 191 107t94 287q4 38 4 71q0 201 -168 201q-83 0 -170 -41z" />
<glyph unicode="q" horiz-adv-x="854" d="M45 211q16 118 67.5 229t125 194t167 133t187.5 50q88 0 137 -55q35 28 55 72q3 4 9 4t11.5 -3t4.5 -6l-217 -1194q-5 -28 -5 -50q0 -39 16 -57q18 -21 66 -21q20 0 46 4q6 3 9 -8q4 -13 -5 -15l-381 -51q-8 0 -9.5 11.5t5.5 12.5q68 10 89 36.5t40 123.5l119 674 q-75 -152 -178.5 -237t-202.5 -85q-81 0 -125 65q-34 50 -34 126q0 22 3 47zM184 319q-3 -32 -3 -60q0 -169 104 -169q114 0 208.5 121.5t124.5 292.5q8 47 8 84q0 58 -19 92q-29 55 -103 55h-8q-114 -2 -200 -107t-112 -309z" />
<glyph unicode="r" horiz-adv-x="706" d="M38 652q-1 2 -1 5t2 5q126 147 229 147q60 0 77 -53q7 -23 8 -62q0 -51 -13 -129l-41 -231q41 133 85.5 235t101 171t110.5 69q46 0 88 -36q34 -30 35 -65q0 -8 -2 -16q-5 -27 -25 -45t-49 -18q-26 0 -45.5 16.5t-36 32.5t-33.5 16q-42 0 -103 -121t-111 -276.5 t-72 -278.5q-7 -34 -82 -34q-51 0 -51 14q0 3 5 27t13 61.5t12 65.5l74 403q9 51 9 87q0 81 -46 81q-43 0 -121 -78q-4 -4 -9.5 -1.5t-7.5 8.5z" />
<glyph unicode="s" horiz-adv-x="626" d="M16 111q12 65 74 65q22 0 38.5 -15t29 -36t26.5 -42.5t40 -36.5t61 -15q97 0 112 110q2 13 2 26q1 29 -9 55q-14 38 -40 67t-59 56.5t-65 55t-57 57.5t-37 68q-7 22 -7 45q0 18 4 37q15 86 97.5 144.5t183.5 58.5q82 0 133 -31q46 -28 46 -68q0 -5 -1 -10 q-4 -32 -25 -48.5t-47 -16.5t-44 13t-29 31.5t-23 36.5t-34 31t-54 13q-38 0 -64 -20.5t-30 -55.5q-2 -14 -3 -27q-1 -25 9 -49q14 -36 40.5 -65.5t59 -57.5t65.5 -57t59 -60q26 -32 38 -72q8 -25 7 -51q0 -17 -3 -34q-16 -91 -100.5 -163.5t-198.5 -72.5q-83 -1 -143 39 q-53 35 -53 84q0 5 1 11z" />
<glyph unicode="t" horiz-adv-x="608" d="M108 70q-2 15 -2 34q0 27 5 60l84 463q8 39 8 62q0 20 -6 29q-12 19 -72 19q-5 0 -6 7.5t1.5 14.5t6.5 7q76 0 131.5 46t81.5 118q2 7 14 7q4 0 9 -1q13 -2 12 -8l-29 -156q61 1 154.5 7.5t103.5 6.5q8 0 12 -6q3 -4 3 -9q0 -2 -1 -5q-5 -21 -26 -45.5t-41 -24.5 q-3 0 -36 5t-84 10.5t-93 7.5l-90 -502q-5 -30 -6 -54q0 -40 15 -63q23 -37 87 -37q50 0 94 22t97 65q2 2 7 0t8.5 -7.5t0.5 -9.5q-93 -84 -163.5 -121t-135.5 -37q-35 0 -62.5 8t-51.5 29.5t-30 57.5z" />
<glyph unicode="u" horiz-adv-x="958" d="M43 649q71 82 124.5 121t106.5 39q56 0 73 -46q7 -20 7 -52q0 -41 -12 -103l-66 -325q-13 -61 -12 -105q0 -112 82 -112q100 0 203 188t162 512v6q7 35 82 35q53 0 53 -14q0 -3 -5 -25.5t-13 -60t-13 -68.5l-84 -457q-5 -29 -5 -50q0 -64 40 -64q49 0 133 90q4 5 9.5 2 t7.5 -9q1 -2 1 -4q0 -3 -2 -6q-70 -83 -127.5 -121t-113.5 -38t-72 45q-8 21 -8 55q0 38 10 90l41 225q-73 -200 -171 -312t-206 -112q-138 0 -138 158q0 49 13 113l74 364q6 32 6 54q0 57 -39 57t-125 -86q-7 -7 -15 1q-4 4 -4 8t3 7z" />
<glyph unicode="v" horiz-adv-x="894" d="M45 578q46 137 81.5 176t125.5 39h184q18 0 21.5 -5t-4.5 -20q-124 -287 -140 -426q-5 -34 -5 -63q0 -71 28 -119q40 -68 117 -68q92 0 175 86t113 223q11 45 12 82.5t-3 59.5t-17 45.5t-20 31.5t-23 25q-49 49 -49 88q0 38 27 58t65 20q63 -1 85 -81q12 -44 11 -102 q0 -49 -8 -110q-15 -115 -61.5 -219t-108 -174t-133 -111t-137.5 -41q-96 0 -150 82q-45 68 -45 154q0 17 2 35q6 54 29 112.5t65 143t56 116.5q14 28 11.5 41t-25.5 13h-103q-75 0 -103.5 -20t-49.5 -83q-4 -4 -10.5 -4.5t-11.5 3.5q-3 2 -3 6q0 3 2 6z" />
<glyph unicode="w" horiz-adv-x="1273" d="M45 578q46 137 81.5 176t125.5 39h184q18 0 21.5 -5t-4.5 -20q-114 -266 -136 -426q-4 -33 -4 -61q-1 -74 27 -124q38 -69 113 -69q76 0 155 82q-19 73 -19 160q0 77 15 166q24 143 67.5 225t98.5 82q48 -1 66 -59q9 -32 9 -74q0 -37 -7 -82q-36 -224 -142 -387 q65 -113 172 -113q79 0 154 88t96 225q7 43 7 78t-4 58.5t-15.5 46.5t-21 35t-25.5 32q-12 15 -15.5 19.5t-11.5 17.5t-11 23t-3 22q0 38 27 58t65 20q64 1 84 -79q12 -45 11 -107q0 -48 -7 -107q-14 -115 -57 -219t-99 -174t-121 -111t-124 -41q-111 0 -168 138 q-58 -66 -123 -102t-125 -36q-103 1 -151 85q-34 61 -34 141q0 32 5 67q8 52 34 121.5t45.5 111.5t57.5 117q15 29 12 41.5t-26 12.5h-103q-75 0 -103.5 -20t-49.5 -83q-4 -4 -10.5 -4.5t-11.5 3.5q-3 2 -3 6q0 3 2 6zM649 535q-9 -54 -9 -105q0 -97 32 -180q81 126 102 268 q4 28 4 50q0 32 -8 53q-14 36 -47 36q-28 0 -47 -34t-27 -88z" />
<glyph unicode="x" horiz-adv-x="868" d="M-8 92q5 24 23.5 41t45.5 17q30 0 58 -24t49 -24q38 0 76 56l131 194l-74 246q-21 69 -46 92t-54 23q-51 0 -127 -76q-4 -5 -10.5 -2t-8.5 8.5t2 9.5q144 156 232 156q47 0 78.5 -31t56.5 -112l51 -170l107 166q60 94 90 120.5t76 26.5q44 0 80 -34q31 -29 31 -65 q0 -6 -1 -12q-3 -25 -22.5 -41t-47.5 -16q-30 0 -57 23.5t-47 23.5q-39 0 -78 -55l-119 -176l84 -279q19 -62 43 -81t54 -19q53 0 127 74q4 5 10 2.5t8 -8.5t-2 -11q-146 -155 -231 -155q-46 0 -76 28.5t-55 104.5l-62 204l-119 -188q-59 -94 -89 -121.5t-75 -27.5 q-46 0 -82 34q-31 29 -31 66q0 6 1 12z" />
<glyph unicode="y" horiz-adv-x="901" d="M27 -420q7 40 29 59t50 19q27 0 43 -19.5t25.5 -47.5t22.5 -56t44.5 -47.5t80.5 -19.5q34 0 63 14.5t58 50t53 104.5t41 170l102 584q-71 -197 -169 -307.5t-206 -110.5q-136 0 -136 157q0 49 13 114l74 364q5 30 5 51q0 60 -38 60q-39 0 -125 -86q-7 -7 -15.5 0.5 t-2.5 15.5q73 83 126 121.5t105 38.5q57 0 74 -46q8 -20 8 -53q0 -41 -12 -102l-66 -325q-13 -61 -13 -105q0 -112 83 -112q93 0 192.5 173.5t161.5 471.5l13 67q4 29 71 29q64 0 64 -12q0 -3 -5 -26t-13.5 -61.5t-14.5 -68.5l-143 -782q-37 -200 -146 -316t-282 -116 q-104 0 -166 45q-51 38 -51 89q0 10 2 21z" />
<glyph unicode="z" horiz-adv-x="704" d="M-18 6l561 631q-24 -4 -41 -4q-46 0 -157 23.5t-142 23.5q-35 0 -56 -20.5t-43 -69.5q-2 -6 -8.5 -6t-11 4.5t-0.5 11.5q33 101 54.5 142.5t45.5 53.5q22 11 65 11h7q45 -3 165 -27.5t175 -27.5q34 0 58.5 12.5t54.5 46.5q2 1 4 1q3 0 5 -2q6 -4 10 -10q2 -4 2 -5t-1 -2 l-559 -633q24 4 41 4q54 0 182.5 -23.5t163.5 -23.5q34 0 53.5 19.5t38.5 70.5q2 3 8 3t11.5 -3t3.5 -8q-30 -99 -52 -142.5t-44 -55.5q-20 -11 -59 -11h-7q-58 1 -196 27t-199 28q-33 0 -58 -12.5t-55 -46.5q-1 -1 -2 -1q-2 -1 -6 3q-6 4 -10 10q-3 4 -3 6q0 1 1 2z" />
<glyph unicode="{" horiz-adv-x="534" d="M74 623.5q0 13.5 6 13.5q42 6 75 29t57.5 58.5t45 91.5t35 118.5t29.5 148.5q23 133 46.5 209t64 121t90.5 58.5t136 13.5q5 0 5 -12.5t-5 -12.5q-132 0 -172 -217q-14 -75 -23.5 -122t-22 -101t-21.5 -86.5t-22 -70t-24.5 -59t-28.5 -47t-34.5 -41t-41.5 -33 t-49.5 -30.5t-59.5 -28q51 -23 82.5 -46.5t50.5 -53.5t25 -70t3.5 -92t-13 -123.5t-25.5 -161.5q-9 -49 -13 -76q-19 -102 6 -159.5t84 -57.5q4 0 4 -12.5t-4 -12.5q-62 0 -101.5 5.5t-68.5 23.5t-42 44t-16 74.5t3.5 107t22.5 149.5q16 87 23.5 145t8 115t-10 91.5 t-35 59.5t-64.5 35q-6 0 -6 13.5z" />
<glyph unicode="|" horiz-adv-x="311" d="M-4 -309l315 1806q2 5 11 8t20.5 3t22.5 -2t18 -6.5t6 -10.5l-317 -1804q-3 -15 -42 -11q-35 4 -34 17z" />
<glyph unicode="}" horiz-adv-x="536" d="M-48 -227.5q0 12.5 5 12.5q132 0 172 217q18 93 29.5 149t26.5 118.5t27.5 97t31 73.5t36.5 60t45.5 45.5t58.5 41t73 34.5q-38 17 -65 34t-46.5 38t-30.5 44t-16.5 54.5t-5 67t6 83.5t14 102.5t20.5 126.5q8 47 12 72q19 102 -6 159.5t-84 57.5q-4 0 -4 12.5t4 12.5 q62 0 101.5 -5.5t68.5 -23.5t42.5 -44t16.5 -74.5t-3.5 -107t-22.5 -149.5q-16 -87 -23.5 -145t-8 -115t10 -91.5t35 -59.5t64.5 -35q6 0 6 -13.5t-6 -13.5q-42 -6 -75 -29t-57.5 -58.5t-45 -91.5t-35 -118.5t-29.5 -148.5q-23 -133 -47 -209.5t-64.5 -121t-90.5 -58 t-136 -13.5q-5 0 -5 12.5z" />
<glyph unicode="~" horiz-adv-x="907" d="M88 312q-2 4 0 7q61 81 114.5 121.5t116.5 40.5q45 0 161.5 -34.5t168.5 -34.5q39 0 71.5 12t49.5 26t39 37q2 2 6 0t7 -6t1 -8q-77 -94 -125 -128t-106 -34q-51 0 -165.5 36t-172.5 36q-15 0 -28 -2t-22.5 -3.5t-20.5 -7.5t-17 -9t-17 -12t-14.5 -12.5t-16 -15.5 t-16.5 -16q-3 -2 -7.5 0.5t-6.5 6.5z" />
<glyph unicode="&#xa1;" horiz-adv-x="448" d="M-25 -547q116 320 248 881q1 7 7 8.5t11.5 -1.5t4.5 -9q-64 -592 -70 -879q0 -8 -33.5 -16t-68.5 -8q-15 0 -30.5 1.5t-28 4t-22 5.5t-14.5 6.5t-4 6.5zM186 647q0 46 24.5 71t70.5 25q45 0 70.5 -25.5t25.5 -70.5q0 -42 -26 -67t-70 -25q-45 0 -70 25t-25 67z" />
<glyph unicode="&#xa2;" horiz-adv-x="1208" d="M118 521q2 63 13 128q33 178 135.5 320.5t241 224.5t293.5 102l33 183q2 9 14.5 10t23.5 -4.5t9 -14.5l-29 -170q18 3 37 3q85 0 169.5 -19t129.5 -49q14 -9 17 -17.5t1 -31.5l-24 -242q-2 -8 -12 -8t-11 8q-20 146 -102 224t-213 87l-219 -1247q12 -2 39 -2 q235 0 430 309q3 4 7.5 4t9 -4t3.5 -8l-59 -225q-6 -26 -12 -34.5t-23 -12.5q-186 -60 -369 -60h-33l-34 -198q-3 -9 -15.5 -10.5t-23 4t-8.5 14.5l34 195q-84 8 -153.5 34t-119 64t-86 88.5t-57 107.5t-30 120.5t-7.5 126.5zM301.5 392q23.5 -143 96.5 -244t180 -130 l217 1237q-188 -8 -321 -155t-171 -391q-25 -174 -1.5 -317z" />
<glyph unicode="&#xa3;" horiz-adv-x="884" d="M14 12q0 12 4 13q86 39 128.5 103.5t64.5 184.5q21 131 14 281h-98q-12 0 -12 24.5t12 24.5h96q-7 127 10 231q19 110 62.5 194.5t101 134.5t121.5 75t131 25q123 0 209 -39q22 -13 19 -35l-48 -248q-1 -9 -11.5 -9t-10.5 9q-2 131 -45 210t-137 79q-51 0 -94 -27.5 t-71.5 -75t-47.5 -101t-29 -114.5q-4 -27 -6.5 -56.5t-3.5 -50t0 -54t1.5 -47.5t3 -53t3.5 -48h231q10 0 10 -24.5t-10 -24.5h-229q3 -96 -10 -184q-31 -176 -170 -293l332 -2q56 -1 89.5 5t60 27t43 52t36.5 88q1 4 7 4t11 -2.5t4 -5.5q-33 -104 -59 -252 q-5 -18 -11.5 -24.5t-23.5 -6.5h-674q-4 0 -4 12z" />
<glyph unicode="&#xa4;" horiz-adv-x="774" d="M57 125l101 96q-56 83 -33 203q16 104 98 176l-73 98l67 60l74 -111q74 39 151 39q83 0 136 -47l112 111l39 -52l-111 -104q52 -77 33 -191q-17 -100 -92 -172l72 -98l-70 -61l-67 108q-80 -47 -168 -47q-73 0 -127 41l-101 -102zM230.5 352q3.5 -49 15.5 -89t41.5 -65.5 t72.5 -25.5q62 0 107.5 54.5t64.5 152.5q9 69 1.5 128.5t-42.5 99.5t-90 40q-59 0 -102 -50.5t-61 -147.5q-11 -48 -7.5 -97z" />
<glyph unicode="&#xa5;" horiz-adv-x="1079" d="M144 1267.5q0 12.5 6 12.5q24 0 78.5 -3t80.5 -3q47 0 129.5 3t106.5 3q5 0 6 -6t-1.5 -12.5t-6.5 -6.5q-71 0 -91 -17.5t-1 -63.5l204 -488l267 389q56 82 44.5 131t-87.5 49q-6 0 -6 12.5t6 12.5q28 0 99 -3t118 -3q29 0 70.5 3t66.5 3q6 0 6 -12.5t-6 -12.5 q-131 0 -272 -202l-293 -416l-2 -2h206q14 0 14 -24.5t-14 -24.5h-215l-16 -99h207q14 0 14 -24.5t-14 -24.5h-217l-47 -272q-17 -90 5.5 -115.5t121.5 -25.5q6 0 6 -12.5t-6 -12.5q-27 0 -102 2t-122 2q-49 0 -125.5 -2t-103.5 -2q-6 0 -6 12.5t6 12.5q99 0 133 26t47 115 l47 272h-202q-15 0 -15 24.5t15 24.5h211l18 99h-205q-13 0 -13 24.5t13 24.5h201l-201 475q-35 79 -69.5 112t-87.5 33q-6 0 -6 12.5z" />
<glyph unicode="&#xa6;" horiz-adv-x="311" d="M-6 -315l131 757q1 9 21 11t39 -3t18 -14l-133 -760q-1 -9 -20.5 -10.5t-38 4.5t-17.5 15zM180 737l131 760q1 5 9.5 8t20 3t23 -2t19 -6.5t6.5 -10.5l-133 -758q-1 -9 -20.5 -11t-38 3t-17.5 14z" />
<glyph unicode="&#xa7;" horiz-adv-x="811" d="M80 -319l31 219q0 6 10 6t10 -6q3 -34 18 -73.5t39.5 -76.5t63 -61.5t82.5 -24.5q50 0 87 35t48 106q9 57 -7 106t-48.5 85.5t-73.5 71.5t-82 72.5t-73 79.5t-46.5 100.5t-3.5 128.5q13 75 56.5 139.5t121.5 132.5q-70 87 -49 199q16 84 68 142.5t120.5 83.5t147.5 25 q98 0 160 -32q16 -16 14 -33l-31 -219q0 -6 -10.5 -6t-11.5 6q-3 47 -25.5 98.5t-70 93t-107.5 41.5q-49 0 -85.5 -34t-47.5 -105q-9 -57 7 -106t48.5 -85.5t73.5 -71.5t82 -72t73 -79t46.5 -100.5t3.5 -128.5q-23 -140 -178 -275q68 -82 47 -196q-22 -125 -115.5 -188.5 t-218.5 -63.5q-96 0 -160 33q-17 10 -14 33zM261.5 399q11.5 -59 44 -103t65 -75t80 -70t71.5 -65q53 64 70 170q10 45 5 87.5t-13 73.5t-27.5 61.5t-38.5 52t-45.5 45.5t-49 41.5t-49 40.5t-44.5 42q-55 -73 -68 -170q-12 -72 -0.5 -131z" />
<glyph unicode="&#xa8;" horiz-adv-x="563" d="M147 1063q0 41 25.5 65.5t69.5 24.5q42 0 66 -24t24 -66q0 -44 -23.5 -69t-66.5 -25q-44 0 -69.5 25t-25.5 69zM461 1063q0 42 25 66t69 24q43 0 67.5 -24.5t24.5 -65.5q0 -44 -24.5 -69t-67.5 -25q-44 0 -69 25t-25 69z" />
<glyph unicode="&#xa9;" horiz-adv-x="1486" d="M145 387q0 138 57 258.5t151.5 202.5t217.5 129t254 47q116 0 215 -38.5t165.5 -103.5t103.5 -151t37 -180q0 -92 -39 -178t-106.5 -150.5t-164 -103.5t-205.5 -39q-96 0 -170 27.5t-116 74.5t-63 102t-21 115q0 80 31.5 147t82.5 109.5t114 66t128 23.5q50 0 95 -12 t76 -37.5t32 -58.5q0 -30 -18.5 -50t-51.5 -20q-44 0 -78 62q-16 25 -27 38.5t-34.5 26.5t-52.5 13q-82 0 -116 -62.5t-34 -185.5q0 -67 16.5 -123.5t51 -102.5t94.5 -72t141 -26q89 0 164 38t124.5 120.5t49.5 195.5q0 133 -63.5 244t-176.5 176.5t-251 65.5 q-118 0 -213.5 -42.5t-157.5 -116.5t-95.5 -171.5t-33.5 -208.5q0 -138 49 -251.5t130 -183.5t181.5 -108t208.5 -38q117 0 205 20t191 78q4 3 9.5 -4t2.5 -12q-113 -85 -225 -116.5t-244 -31.5q-91 0 -179.5 23.5t-168.5 73t-140.5 119t-96.5 168.5t-36 214z" />
<glyph unicode="&#xaa;" horiz-adv-x="565" d="M82.5 627.5q1.5 13.5 5.5 13.5h463q9 0 9 -27.5t-9 -27.5h-461q-5 0 -7 14t-0.5 27.5zM115 889q12 91 68.5 186.5t134.5 158t147 62.5q57 0 88 -34q21 18 33 45q2 3 11 1.5t9 -5.5l-82 -429q-12 -71 21 -71q22 0 86 67q1 1 5 0t7 -4t4.5 -6.5t-0.5 -5.5 q-92 -109 -158 -109q-35 0 -46 30t1 99l19 107q-57 -115 -130 -178.5t-140 -63.5q-47 0 -68.5 37t-9.5 113zM203 963q-26 -150 47 -150q40 0 91.5 49.5t92 122.5t53.5 139q11 54 -8.5 87t-64.5 32q-68 -2 -130 -83t-81 -197z" />
<glyph unicode="&#xab;" horiz-adv-x="874" d="M95.5 410q1.5 14 13.5 24l393 311q4 2 9.5 -1t7.5 -7.5t-1 -7.5l-264 -317l156 -316q3 -6 -6 -13t-13 -1l-289 305q-8 9 -6.5 23zM396.5 410q1.5 14 13.5 24l393 311q4 2 9.5 -1t8.5 -7.5t0 -7.5l-264 -317l154 -316q4 -8 -8 -15q-6 -2 -9 1l-291 305q-8 9 -6.5 23z" />
<glyph unicode="&#xac;" horiz-adv-x="821" d="M66.5 529.5q1.5 21.5 5.5 21.5h678v-389q0 -6 -21 -8t-42 -0.5t-21 6.5v305h-590q-6 0 -8.5 21.5t-1 43z" />
<glyph unicode="&#xad;" horiz-adv-x="577" d="M55.5 409.5q0.5 24.5 5.5 26.5l439 72q6 1 8.5 -22t1.5 -47.5t-6 -26.5l-436 -72q-6 -1 -9.5 22t-3 47.5z" />
<glyph unicode="&#xae;" horiz-adv-x="1552" d="M231 870q0 135 55 251.5t147.5 195t213 123.5t250.5 45q131 0 242 -44.5t186 -120.5t116.5 -178.5t41.5 -217.5q0 -176 -87 -323.5t-235 -232.5t-323 -85q-113 0 -220.5 40t-194 112t-139.5 185.5t-53 249.5zM332 930q0 -134 48.5 -247.5t129 -187t182 -114.5t209.5 -41 q226 0 354.5 142.5t128.5 379.5q0 255 -157 414.5t-400 159.5q-121 0 -217.5 -41t-156 -112t-90.5 -161t-31 -192zM520 575.5q0 5.5 2 12t4 6.5q60 0 78.5 15t28.5 75l78 442q11 56 -2.5 73.5t-71.5 17.5q-3 1 -2.5 6.5t2.5 11.5t4 6q19 0 69 -1t76 -1q25 0 86.5 3t83.5 3 q95 0 137.5 -33t30.5 -104q-21 -120 -145 -176q61 -185 102.5 -256t112.5 -90q2 0 2 -4t-1 -8.5t-3 -4.5h-174q-20 0 -53.5 82.5t-85.5 249.5q-44 -8 -105 -8l-37 -209q-10 -59 4.5 -74.5t79.5 -15.5q3 -1 2.5 -6.5t-2.5 -12t-4 -6.5q-18 0 -67 1t-82 1q-25 0 -78 -1t-68 -1 q-2 1 -2 6.5zM780 930q105 -12 158 17t68 116q28 156 -88 156q-28 0 -41 -2t-27 -11.5t-21.5 -29.5t-13.5 -56z" />
<glyph unicode="&#xaf;" horiz-adv-x="681" d="M194 1009.5q0 34.5 15 34.5h481q15 0 15 -34.5t-15 -34.5h-481q-15 0 -15 34.5z" />
<glyph unicode="&#xb0;" horiz-adv-x="612" d="M140 977q-1 40 5 78q21 97 109.5 166t208.5 69q56 0 100 -17.5t70 -46.5t43 -66.5t17.5 -78t-5.5 -80.5q-22 -104 -109.5 -170.5t-201.5 -66.5q-57 0 -102.5 18.5t-72 48t-44 68t-18.5 78.5zM270 930q2 -59 34.5 -96t94.5 -37q39 0 67.5 15t45 43.5t25.5 58.5t16 73 q48 273 -107 273q-130 0 -165 -199q-13 -72 -11 -131z" />
<glyph unicode="&#xb1;" horiz-adv-x="815" d="M61.5 60.5q1.5 19.5 6.5 19.5h677q9 0 9 -39t-9 -39h-675q-6 0 -8 19.5t-0.5 39zM61.5 538q1.5 21 6.5 21h297v297q0 9 42 9t42 -9v-297h296q9 0 9 -42t-9 -42h-296v-295q0 -6 -21 -8t-42 -0.5t-21 6.5v297h-295q-6 0 -8 21t-0.5 42z" />
<glyph unicode="&#xb2;" horiz-adv-x="471" d="M137 844q22 53 61.5 108.5t79 100.5t77.5 90.5t65.5 95t34.5 96.5q8 50 -11 79.5t-59 29.5q-42 0 -81.5 -33t-59.5 -84q-2 -5 -9 -5.5t-12.5 3t-3.5 8.5q31 71 83 115.5t126 44.5q75 0 108.5 -44t20.5 -112q-10 -54 -56.5 -113.5t-98.5 -104.5t-107.5 -101t-77.5 -100h2 q92 0 136.5 2.5t76 15t42.5 30t26 56.5q3 9 13.5 7t8.5 -11l-35 -189q0 -4 -4 -4h-340q-14 0 -6 19z" />
<glyph unicode="&#xb3;" horiz-adv-x="471" d="M141 954q0 6 11.5 8.5t13.5 -4.5q1 -48 32.5 -76t75.5 -28q46 0 85 38.5t53 117.5q21 105 -27 159q-33 -17 -70 -32q-5 -3 -10 1t-6 9t2 8q130 64 143 174q6 48 -13 77.5t-60 29.5q-78 0 -127 -103q-4 -11 -18 -6q-7 4 -5 10q65 156 201 156q71 0 106.5 -41.5 t26.5 -101.5q-15 -86 -139 -162q55 -26 83.5 -75.5t18.5 -113.5q-15 -80 -80.5 -133t-154.5 -53q-70 0 -105 37t-37 104z" />
<glyph unicode="&#xb4;" horiz-adv-x="434" d="M223 975l178 491q6 16 87 28q74 10 69 -5l-313 -520q-4 -8 -18 -1q-6 4 -3 7z" />
<glyph unicode="&#xb6;" horiz-adv-x="1216" d="M159 609.5q-6 79.5 9 181.5q46 243 210.5 369t412.5 126q39 0 127.5 -6t144.5 -6q36 0 106 3t99 3q9 0 9 -12.5t-9 -12.5q-80 0 -133 -43t-66 -122l-170 -977q-47 -262 -141 -385t-244 -123q-69 0 -105 27t-28 69q4 34 25.5 52t52.5 18t46.5 -18.5t18.5 -40t18.5 -40 t47.5 -18.5q19 0 32.5 5t26 22.5t21 39t20 68t21 94.5t24.5 133l43 240q-77 -6 -164 -6q-65 0 -125 11.5t-118 38t-100.5 68t-74 102t-37.5 140z" />
<glyph unicode="&#xb7;" horiz-adv-x="415" d="M117 430q0 42 26 67t70 25q45 0 69.5 -25t24.5 -67q0 -46 -24 -71t-70 -25q-45 0 -70.5 25.5t-25.5 70.5z" />
<glyph unicode="&#xb8;" horiz-adv-x="401" d="M-125 -465q9 53 68 53q26 0 42.5 -17.5t23 -38.5t20 -38.5t34.5 -17.5q27 0 44.5 17.5t21.5 49.5q7 60 -84 174q-49 63 0 160l59 123h29q-22 -48 -23 -86.5t11.5 -65t40.5 -61.5q78 -101 65 -172q-11 -64 -70 -121t-153 -57q-60 0 -98 26.5t-31 71.5z" />
<glyph unicode="&#xb9;" horiz-adv-x="489" d="M158 836.5q0 11.5 6 11.5q47 0 69 3t39 20t24 40.5t17 77.5l43 242q8 48 11 70.5t2.5 45.5t-7 28t-22.5 5.5t-37.5 -8t-58.5 -26.5q-11 -4 -14 11q-2 9 3 11l250 125q7 4 13 -1t4 -11l-84 -492q-8 -42 -10 -64.5t0 -40t15.5 -24.5t31.5 -9.5t53 -2.5q6 0 6 -11.5 t-6 -11.5q-22 0 -76 2t-88 2q-35 0 -96 -2t-82 -2q-6 0 -6 11.5z" />
<glyph unicode="&#xba;" horiz-adv-x="550" d="M91.5 627.5q1.5 13.5 6.5 13.5h453q9 0 9 -27.5t-9 -27.5h-451q-6 0 -8 14t-0.5 27.5zM137 1020q22 123 107.5 196.5t183.5 73.5q102 0 149 -80.5t27 -195.5q-22 -123 -109 -201t-186 -78q-100 0 -147 83t-25 202zM236 1065q-22 -123 10 -208t104 -85q55 0 96.5 50.5 t59.5 144.5q22 122 -12 204t-109 82q-116 0 -149 -188z" />
<glyph unicode="&#xbb;" horiz-adv-x="872" d="M59 94l265 316l-156 315q-2 4 1.5 9t8.5 6.5t8 -1.5l289 -305q8 -9 6.5 -23t-12.5 -24l-393 -311q-6 -3 -14.5 4.5t-2.5 13.5zM360 94l265 316l-154 315q-5 7 6 14q7 5 10 0l291 -305q7 -8 5 -22.5t-13 -24.5l-393 -311q-5 -3 -14 4.5t-3 13.5z" />
<glyph unicode="&#xbc;" horiz-adv-x="1130" d="M121 644q0 11 6 11q47 0 69 3t39 20.5t24 41t17 77.5l43 241q8 48 11 70.5t2.5 45.5t-7 28t-22.5 5.5t-37.5 -8t-58.5 -26.5q-9 -3 -12.5 8.5t2.5 14.5l249 124q7 4 13 -1t4 -11l-84 -491q-19 -97 -4.5 -119.5t94.5 -22.5q6 0 6 -11t-6 -11q-21 0 -76 2t-88 2 q-35 0 -96 -2t-82 -2q-6 0 -6 11zM266 16l692 1266q3 4 17.5 -1t27 -13.5t9.5 -14.5l-693 -1261q-3 -3 -16.5 2t-25.5 12t-11 10zM642.5 197q-0.5 3 2.5 6l379 465q5 5 15.5 0.5t9.5 -11.5l-72 -417q13 1 39 2t39 2q3 -2 2.5 -17t-5 -32t-8.5 -17l-77 6l-17 -100 q-8 -40 2.5 -52t63.5 -12q9 0 9 -12t-9 -12q-17 0 -54.5 2t-64.5 2q-32 0 -83 -2t-69 -2q-9 0 -9 12t9 12q63 0 83.5 11.5t27.5 52.5l18 104q-63 2 -227 2q-1 0 -2.5 2t-2 5zM731 240q-6 -9 4 -9q41 0 148 5l45 266z" />
<glyph unicode="&#xbd;" horiz-adv-x="1159" d="M121 644q0 11 6 11q47 0 69 3t39 20.5t24 41t17 77.5l43 241q8 48 11 70.5t2.5 45.5t-7 28t-22.5 5.5t-37.5 -8t-58.5 -26.5q-9 -3 -12.5 8.5t2.5 14.5l249 124q7 4 13 -1t4 -11l-84 -491q-19 -97 -4.5 -119.5t94.5 -22.5q6 0 6 -11t-6 -11q-21 0 -76 2t-88 2 q-35 0 -96 -2t-82 -2q-6 0 -6 11zM266 16l692 1266q3 4 17.5 -1t27 -13.5t9.5 -14.5l-693 -1261q-3 -3 -16.5 2t-25.5 12t-11 10zM682 18q22 53 61.5 108.5t79 101t77.5 91t65 95t34 96.5q8 50 -10.5 79t-58.5 29q-43 0 -82.5 -32.5t-59.5 -83.5q-2 -5 -8.5 -5.5t-12 3 t-3.5 8.5q31 71 83 115.5t126 44.5q75 0 108.5 -44t20.5 -112q-8 -44 -39.5 -90.5t-74 -87.5t-85.5 -80.5t-83 -82.5t-58 -79h2q74 0 114.5 2.5t72 7t47 18.5t25 29.5t21.5 47.5q3 9 14 7t9 -11l-35 -189q0 -4 -4 -4h-340q-13 0 -6 18z" />
<glyph unicode="&#xbe;" horiz-adv-x="1112" d="M104 762q0 6 12 8.5t13 -4.5q1 -48 32.5 -76t76.5 -28q46 0 84.5 38t52.5 117q21 106 -27 160q-44 -23 -69 -33q-5 -3 -10.5 1.5t-6.5 9.5t2 8q131 64 144 174q6 48 -13.5 77t-60.5 29q-79 0 -127 -102q-4 -11 -18 -6q-7 4 -5 10q65 155 201 155q71 0 106.5 -41.5 t26.5 -101.5q-15 -86 -139 -162q55 -26 83.5 -75t18.5 -113q-15 -80 -80.5 -133t-154.5 -53q-70 0 -105 37t-37 104zM248 16l692 1266q5 6 31 -7t22 -22l-692 -1261q-3 -3 -16.5 2t-25.5 12t-11 10zM624.5 197q-0.5 3 2.5 6l379 465q5 5 15 0.5t9 -11.5l-72 -417q13 1 39 2 t39 2q3 -2 2.5 -17t-4.5 -32t-8 -17l-78 6l-16 -100q-8 -41 2 -52.5t63 -11.5q9 0 9 -12t-9 -12q-17 0 -54 2t-64 2q-32 0 -83 -2t-69 -2q-9 0 -9 12t9 12q63 0 83.5 11.5t27.5 52.5l18 104q-63 2 -227 2q-1 0 -2.5 2t-2 5zM713 240q-6 -9 4 -9q39 0 147 5l45 266z" />
<glyph unicode="&#xbf;" horiz-adv-x="638" d="M-29 -317q4 22 10.5 42.5t17.5 40t19 34t24.5 33t24 27.5t28 27.5t26 23t28 23.5t25.5 21q87 68 124.5 124.5t49.5 129.5q9 47 2 117q-1 6 5.5 8.5t13.5 1.5t8 -6q25 -54 35 -126t4 -118q-9 -54 -40 -98t-69.5 -75.5t-77.5 -64t-71 -81t-43 -109.5q-14 -81 14 -134.5 t92 -53.5q25 0 43 7.5t28 22t15 27.5t10 33q5 21 9.5 33t14.5 29.5t27.5 26.5t41.5 9q38 0 55.5 -25t11.5 -59q-12 -60 -92.5 -98.5t-179.5 -38.5q-124 0 -190.5 65t-43.5 181zM313 639q0 46 24.5 71t70.5 25q45 0 70.5 -25.5t25.5 -70.5q0 -42 -26 -67t-70 -25 q-45 0 -70 25t-25 67z" />
<glyph unicode="&#xc0;" horiz-adv-x="1232" d="M-78 12.5q0 12.5 8 12.5q59 0 131 56.5t140 178.5l581 1040q5 6 20 4t17 -8l195 -1124q14 -91 39 -119t108 -28q6 0 6 -12.5t-6 -12.5q-32 0 -102 4t-113 4t-108 -4t-97 -4q-7 0 -7 12.5t7 12.5q89 0 113.5 30t9.5 117l-82 481h-307l-211 -385q-52 -97 -56.5 -150.5 t29 -73t109.5 -19.5q4 0 5.5 -6.5t-1 -12.5t-8.5 -6q-26 0 -103.5 4t-119.5 4q-41 0 -98 -4t-91 -4q-8 0 -8 12.5zM502 700h272l-65 379zM594 1548q-23 6 28 28q72 31 129 37q17 2 21 -1q105 -99 223 -189q4 -4 3 -9.5t-6.5 -9.5t-10.5 -1q-188 88 -387 145z" />
<glyph unicode="&#xc1;" horiz-adv-x="1232" d="M-78 12.5q0 12.5 8 12.5q59 0 131 56.5t140 178.5l581 1040q5 6 20 4t17 -8l195 -1124q14 -91 39 -119t108 -28q6 0 6 -12.5t-6 -12.5q-32 0 -102 4t-113 4t-108 -4t-97 -4q-7 0 -7 12.5t7 12.5q89 0 113.5 30t9.5 117l-82 481h-307l-211 -385q-52 -97 -56.5 -150.5 t29 -73t109.5 -19.5q4 0 5.5 -6.5t-1 -12.5t-8.5 -6q-26 0 -103.5 4t-119.5 4q-41 0 -98 -4t-91 -4q-8 0 -8 12.5zM502 700h272l-65 379zM675.5 1402.5q0.5 5.5 4.5 8.5q71 39 184 116t125 85q14 11 98 -23q68 -27 63 -38q-1 -2 -5 -3q-223 -55 -455 -157q-6 -3 -10.5 1.5 t-4 10z" />
<glyph unicode="&#xc2;" horiz-adv-x="1232" d="M-78 12.5q0 12.5 8 12.5q59 0 131 56.5t140 178.5l581 1040q5 6 20 4t17 -8l195 -1124q14 -91 39 -119t108 -28q6 0 6 -12.5t-6 -12.5q-32 0 -102 4t-113 4t-108 -4t-97 -4q-7 0 -7 12.5t7 12.5q89 0 113.5 30t9.5 117l-82 481h-307l-211 -385q-52 -97 -56.5 -150.5 t29 -73t109.5 -19.5q4 0 5.5 -6.5t-1 -12.5t-8.5 -6q-26 0 -103.5 4t-119.5 4q-41 0 -98 -4t-91 -4q-8 0 -8 12.5zM502 700h272l-65 379zM600 1359q-2 4 0 7l225 211q7 9 19 9t18 -9l158 -211q3 -5 -2.5 -11.5t-11.5 -2.5l-181 104l-213 -104q-2 -2 -6 0.5t-6 6.5z" />
<glyph unicode="&#xc3;" horiz-adv-x="1232" d="M-78 12.5q0 12.5 8 12.5q59 0 131 56.5t140 178.5l581 1040q5 6 20 4t17 -8l195 -1124q14 -91 39 -119t108 -28q6 0 6 -12.5t-6 -12.5q-32 0 -102 4t-113 4t-108 -4t-97 -4q-7 0 -7 12.5t7 12.5q89 0 113.5 30t9.5 117l-82 481h-307l-211 -385q-52 -97 -56.5 -150.5 t29 -73t109.5 -19.5q4 0 5.5 -6.5t-1 -12.5t-8.5 -6q-26 0 -103.5 4t-119.5 4q-41 0 -98 -4t-91 -4q-8 0 -8 12.5zM502 700h272l-65 379zM559 1432q95 139 186 139q27 0 114.5 -24.5t139.5 -24.5q38 0 62.5 12.5t50.5 40.5q3 3 7.5 1t6.5 -6.5t0 -8.5q-57 -83 -94 -111.5 t-82 -28.5q-40 0 -126 26t-138 26q-15 0 -28.5 -2.5t-21 -4.5t-19 -10t-14 -10t-15.5 -14.5t-15 -14.5t-6 0.5t-7 7t-1 7.5z" />
<glyph unicode="&#xc4;" horiz-adv-x="1232" d="M-78 12.5q0 12.5 8 12.5q59 0 131 56.5t140 178.5l581 1040q5 6 20 4t17 -8l195 -1124q14 -91 39 -119t108 -28q6 0 6 -12.5t-6 -12.5q-32 0 -102 4t-113 4t-108 -4t-97 -4q-7 0 -7 12.5t7 12.5q89 0 113.5 30t9.5 117l-82 481h-307l-211 -385q-52 -97 -56.5 -150.5 t29 -73t109.5 -19.5q4 0 5.5 -6.5t-1 -12.5t-8.5 -6q-26 0 -103.5 4t-119.5 4q-41 0 -98 -4t-91 -4q-8 0 -8 12.5zM502 700h272l-65 379zM590 1552q0 42 25 66t69 24q42 0 66 -24t24 -66q0 -44 -23.5 -69t-66.5 -25q-44 0 -69 25t-25 69zM903 1552q0 42 25 66t69 24 q43 0 68 -24.5t25 -65.5q0 -44 -25 -69t-68 -25q-44 0 -69 25t-25 69z" />
<glyph unicode="&#xc5;" horiz-adv-x="1232" d="M-78 12.5q0 12.5 8 12.5q59 0 131 56.5t140 178.5l581 1040q5 6 20 4t17 -8l195 -1124q14 -91 39 -119t108 -28q6 0 6 -12.5t-6 -12.5q-32 0 -102 4t-113 4t-108 -4t-97 -4q-7 0 -7 12.5t7 12.5q89 0 113.5 30t9.5 117l-82 481h-307l-211 -385q-52 -97 -56.5 -150.5 t29 -73t109.5 -19.5q4 0 5.5 -6.5t-1 -12.5t-8.5 -6q-26 0 -103.5 4t-119.5 4q-41 0 -98 -4t-91 -4q-8 0 -8 12.5zM502 700h272l-65 379zM629 1530q0 74 61 116t135 42q75 0 128 -47.5t53 -114.5q0 -71 -61 -114.5t-138 -43.5q-82 0 -130 47.5t-48 114.5zM733 1571 q0 -67 30 -123.5t75 -56.5q59 0 59 98q0 70 -33.5 123t-77.5 53q-53 0 -53 -94z" />
<glyph unicode="&#xc6;" horiz-adv-x="1576" d="M-124 12.5q0 12.5 9 12.5q82 0 156.5 52t177.5 195l653 906q37 57 21.5 67t-133.5 10q-9 0 -9 12.5t9 12.5h794q19 0 13 -18q-5 -41 -20.5 -139.5t-18.5 -123.5q-2 -4 -8.5 -4.5t-12 1.5t-4.5 5q6 115 -49 182.5t-158 67.5h-63q-97 0 -133 -29t-45 -110l-54 -422h218 q87 0 131 35t61 115q0 5 6 6t12 -1.5t5 -8.5q-7 -46 -17.5 -98.5t-13.5 -71.5q-7 -38 -17 -105t-14 -92q-2 -6 -13 -4.5t-11 8.5q15 90 -19.5 130t-124.5 40h-209l-59 -469q-11 -88 9.5 -112.5t109.5 -24.5h104q89 0 170 75t131 201q4 7 18 1q7 -3 5 -7q-38 -123 -66 -276 q-3 -18 -9.5 -24.5t-23.5 -6.5h-763q-9 0 -9 12.5t9 12.5q92 0 124.5 26.5t42.5 114.5l62 477h-299l-285 -391q-78 -106 -60.5 -166.5t134.5 -60.5q9 0 8.5 -12.5t-8.5 -12.5q-35 0 -122.5 4t-135.5 4q-45 0 -104 -4t-93 -4q-9 0 -9 12.5zM586 690h270l59 453z" />
<glyph unicode="&#xc7;" horiz-adv-x="1200" d="M117.5 515.5q1.5 65.5 13.5 133.5q27 146 102.5 270.5t179 207.5t227.5 129.5t249 46.5q85 0 169.5 -19t129.5 -49q14 -9 17 -17.5t1 -31.5l-24 -242q-2 -8 -12 -8t-11 8q-21 155 -112 233t-236 78q-193 0 -330.5 -147.5t-177.5 -398.5q-30 -190 5 -351t129 -256.5 t227 -95.5q235 0 430 309q3 4 7.5 4t9 -4t3.5 -8l-59 -225q-6 -26 -12 -34.5t-23 -12.5q-183 -60 -365 -60q-17 -38 -14 -73.5t15 -59t38 -55.5q78 -102 66 -172q-11 -64 -70 -121t-153 -57q-60 0 -98 26.5t-31 71.5q9 53 67 53q26 0 43 -17.5t23.5 -38.5t20 -38.5 t34.5 -17.5q26 0 44 17.5t22 49.5q7 60 -84 174q-49 63 0 160l47 98q-94 3 -171.5 26t-132.5 60t-95.5 88.5t-64 109.5t-34.5 124.5t-9.5 132z" />
<glyph unicode="&#xc8;" horiz-adv-x="1064" d="M30 12.5q0 12.5 5 12.5q91 0 121 25.5t47 115.5l168 948q15 88 -6.5 114.5t-110.5 26.5q-6 0 -6 12.5t6 12.5h790q16 0 13 -18q-3 -21 -19 -125t-22 -138q-1 -4 -7 -4.5t-11.5 1.5t-4.5 5q5 111 -46 176.5t-144 65.5h-127q-91 0 -119 -23.5t-43 -107.5l-74 -422h269 q87 0 129 33.5t57 114.5q1 6 7 7.5t11.5 -1t4.5 -8.5q-7 -46 -17.5 -98.5t-13.5 -71.5q-13 -89 -31 -197q-1 -6 -7.5 -7.5t-12.5 1t-5 8.5q15 89 -18 130.5t-119 41.5h-262l-84 -469q-14 -85 7 -110t108 -25h170q91 0 175.5 74.5t139.5 199.5q2 3 8.5 3t12 -2.5t4.5 -6.5 q-39 -107 -66 -276q-5 -18 -11.5 -24.5t-23.5 -6.5h-837q-5 0 -5 12.5zM498 1548q-23 6 28 28q72 31 129 37q17 2 21 -1q105 -99 223 -189q4 -4 3 -9.5t-6.5 -9.5t-10.5 -1q-188 88 -387 145z" />
<glyph unicode="&#xc9;" horiz-adv-x="1064" d="M30 12.5q0 12.5 5 12.5q91 0 121 25.5t47 115.5l168 948q15 88 -6.5 114.5t-110.5 26.5q-6 0 -6 12.5t6 12.5h790q16 0 13 -18q-3 -21 -19 -125t-22 -138q-1 -4 -7 -4.5t-11.5 1.5t-4.5 5q5 111 -46 176.5t-144 65.5h-127q-91 0 -119 -23.5t-43 -107.5l-74 -422h269 q87 0 129 33.5t57 114.5q1 6 7 7.5t11.5 -1t4.5 -8.5q-7 -46 -17.5 -98.5t-13.5 -71.5q-13 -89 -31 -197q-1 -6 -7.5 -7.5t-12.5 1t-5 8.5q15 89 -18 130.5t-119 41.5h-262l-84 -469q-14 -85 7 -110t108 -25h170q91 0 175.5 74.5t139.5 199.5q2 3 8.5 3t12 -2.5t4.5 -6.5 q-39 -107 -66 -276q-5 -18 -11.5 -24.5t-23.5 -6.5h-837q-5 0 -5 12.5zM579.5 1402.5q0.5 5.5 4.5 8.5q71 39 184 116t125 85q14 11 98 -23q68 -27 63 -38q-1 -2 -5 -3q-223 -55 -455 -157q-6 -3 -10.5 1.5t-4 10z" />
<glyph unicode="&#xca;" horiz-adv-x="1064" d="M30 12.5q0 12.5 5 12.5q91 0 121 25.5t47 115.5l168 948q15 88 -6.5 114.5t-110.5 26.5q-6 0 -6 12.5t6 12.5h790q16 0 13 -18q-3 -21 -19 -125t-22 -138q-1 -4 -7 -4.5t-11.5 1.5t-4.5 5q5 111 -46 176.5t-144 65.5h-127q-91 0 -119 -23.5t-43 -107.5l-74 -422h269 q87 0 129 33.5t57 114.5q1 6 7 7.5t11.5 -1t4.5 -8.5q-7 -46 -17.5 -98.5t-13.5 -71.5q-13 -89 -31 -197q-1 -6 -7.5 -7.5t-12.5 1t-5 8.5q15 89 -18 130.5t-119 41.5h-262l-84 -469q-14 -85 7 -110t108 -25h170q91 0 175.5 74.5t139.5 199.5q2 3 8.5 3t12 -2.5t4.5 -6.5 q-39 -107 -66 -276q-5 -18 -11.5 -24.5t-23.5 -6.5h-837q-5 0 -5 12.5zM504 1359q-2 4 0 7l225 211q7 9 19 9t18 -9l158 -211q3 -5 -3 -11.5t-12 -2.5l-180 104l-213 -104q-2 -2 -6 0.5t-6 6.5z" />
<glyph unicode="&#xcb;" horiz-adv-x="1064" d="M30 12.5q0 12.5 5 12.5q91 0 121 25.5t47 115.5l168 948q15 88 -6.5 114.5t-110.5 26.5q-6 0 -6 12.5t6 12.5h790q16 0 13 -18q-3 -21 -19 -125t-22 -138q-1 -4 -7 -4.5t-11.5 1.5t-4.5 5q5 111 -46 176.5t-144 65.5h-127q-91 0 -119 -23.5t-43 -107.5l-74 -422h269 q87 0 129 33.5t57 114.5q1 6 7 7.5t11.5 -1t4.5 -8.5q-7 -46 -17.5 -98.5t-13.5 -71.5q-13 -89 -31 -197q-1 -6 -7.5 -7.5t-12.5 1t-5 8.5q15 89 -18 130.5t-119 41.5h-262l-84 -469q-14 -85 7 -110t108 -25h170q91 0 175.5 74.5t139.5 199.5q2 3 8.5 3t12 -2.5t4.5 -6.5 q-39 -107 -66 -276q-5 -18 -11.5 -24.5t-23.5 -6.5h-837q-5 0 -5 12.5zM494 1552q0 42 25 66t69 24q42 0 66 -24t24 -66q0 -44 -23.5 -69t-66.5 -25q-44 0 -69 25t-25 69zM807 1552q0 42 25 66t69 24q43 0 67.5 -24.5t24.5 -65.5q0 -44 -24.5 -69t-67.5 -25q-44 0 -69 25 t-25 69z" />
<glyph unicode="&#xcc;" horiz-adv-x="649" d="M38 12.5q0 12.5 5 12.5q91 0 121 25.5t47 115.5l168 948q15 88 -7.5 114.5t-111.5 26.5q-6 0 -6 12.5t6 12.5q26 0 97 -3t114 -3q49 0 122.5 3t96.5 3q6 0 6 -12.5t-6 -12.5q-89 0 -118.5 -27.5t-47.5 -117.5l-168 -944q-15 -89 6.5 -115t112.5 -26q6 0 6 -12.5t-6 -12.5 q-25 0 -97 2t-120 2q-43 0 -115.5 -2t-99.5 -2q-5 0 -5 12.5zM274 1548q-22 6 27 27q73 32 132 38q16 2 20 -1q105 -99 223 -189q4 -4 3 -9.5t-6.5 -9.5t-10.5 -1q-187 87 -388 145z" />
<glyph unicode="&#xcd;" horiz-adv-x="649" d="M38 12.5q0 12.5 5 12.5q91 0 121 25.5t47 115.5l168 948q15 88 -7.5 114.5t-111.5 26.5q-6 0 -6 12.5t6 12.5q26 0 97 -3t114 -3q49 0 122.5 3t96.5 3q6 0 6 -12.5t-6 -12.5q-89 0 -118.5 -27.5t-47.5 -117.5l-168 -944q-15 -89 6.5 -115t112.5 -26q6 0 6 -12.5t-6 -12.5 q-25 0 -97 2t-120 2q-43 0 -115.5 -2t-99.5 -2q-5 0 -5 12.5zM356 1402.5q0 5.5 4 8.5q71 39 186.5 117.5t123.5 83.5q14 11 98 -23q67 -27 62 -38q0 -2 -5 -3q-220 -55 -454 -157q-6 -3 -10.5 1.5t-4.5 10z" />
<glyph unicode="&#xce;" horiz-adv-x="649" d="M38 12.5q0 12.5 5 12.5q91 0 121 25.5t47 115.5l168 948q15 88 -7.5 114.5t-111.5 26.5q-6 0 -6 12.5t6 12.5q26 0 97 -3t114 -3q49 0 122.5 3t96.5 3q6 0 6 -12.5t-6 -12.5q-89 0 -118.5 -27.5t-47.5 -117.5l-168 -944q-15 -89 6.5 -115t112.5 -26q6 0 6 -12.5t-6 -12.5 q-25 0 -97 2t-120 2q-43 0 -115.5 -2t-99.5 -2q-5 0 -5 12.5zM281 1359q-2 4 0 7l225 211q8 9 19.5 9t17.5 -9l157 -211q3 -5 -2.5 -11.5t-11.5 -2.5l-180 104l-213 -104q-2 -2 -6 0.5t-6 6.5z" />
<glyph unicode="&#xcf;" horiz-adv-x="649" d="M38 12.5q0 12.5 5 12.5q91 0 121 25.5t47 115.5l168 948q15 88 -7.5 114.5t-111.5 26.5q-6 0 -6 12.5t6 12.5q26 0 97 -3t114 -3q49 0 122.5 3t96.5 3q6 0 6 -12.5t-6 -12.5q-89 0 -118.5 -27.5t-47.5 -117.5l-168 -944q-15 -89 6.5 -115t112.5 -26q6 0 6 -12.5t-6 -12.5 q-25 0 -97 2t-120 2q-43 0 -115.5 -2t-99.5 -2q-5 0 -5 12.5zM289 1552q0 41 26 65.5t70 24.5q42 0 66 -24t24 -66q0 -44 -23.5 -69t-66.5 -25q-44 0 -70 25t-26 69zM569 1552q0 42 24.5 66t68.5 24q42 0 66 -24t24 -66q0 -44 -23.5 -69t-66.5 -25q-44 0 -68.5 25t-24.5 69z " />
<glyph unicode="&#xd0;" horiz-adv-x="1251" d="M19 12.5q0 12.5 6 12.5q91 0 122 26t46 115l79 448h-149q-9 0 -9 24t9 24h158l79 452q15 88 -6 114.5t-110 26.5q-4 0 -4 12.5t4 12.5q26 0 99 -3t118 -3q39 0 120 5t113 5q188 0 322 -80.5t190 -222t25 -319.5q-26 -149 -99 -276t-173.5 -212.5t-221 -133.5t-243.5 -48 q-31 0 -122 6t-134 6q-47 0 -117.5 -2t-95.5 -2q-6 0 -6 12.5zM342 188q-16 -89 12 -125t127 -36q212 0 368 154.5t206 434.5q15 100 15 192t-26.5 173t-70.5 141t-116.5 94.5t-164.5 34.5q-95 0 -134 -28.5t-54 -112.5l-78 -448h233q9 0 9 -24t-9 -24h-241z" />
<glyph unicode="&#xd1;" d="M10 12.5q0 12.5 4 12.5q152 0 189 198l166 946q-59 86 -136 86q-6 0 -6 12.5t6 12.5q23 0 76 -2t72 -2q23 0 61.5 2t42.5 2q14 0 20 -7.5t17.5 -38.5t26.5 -60l493 -941l144 822q37 200 -113 200q-5 0 -5 12.5t5 12.5q20 0 77.5 -3t96.5 -3q32 0 91 3t83 3q6 0 6 -12.5 t-6 -12.5q-151 0 -188 -200l-191 -1073q0 -9 -17 -10.5t-21 8.5l-598 1130l-156 -887q-37 -198 112 -198q6 0 6 -12.5t-6 -12.5q-22 0 -78 2t-94 2q-33 0 -92 -2t-84 -2q-4 0 -4 12.5zM574.5 1427.5q-0.5 2.5 0.5 4.5q95 139 187 139q27 0 114.5 -24.5t139.5 -24.5 q38 0 62 12.5t50 40.5q5 5 12 -1.5t3 -12.5q-57 -83 -94 -111.5t-82 -28.5q-40 0 -126.5 26t-138.5 26q-13 0 -24 -1.5t-20.5 -4.5t-15.5 -6t-14 -9.5t-12 -10t-13 -12t-13 -12.5q-1 -1 -3.5 -0.5t-5 2.5t-4.5 4t-2.5 4.5z" />
<glyph unicode="&#xd2;" d="M135 641q51 288 251 475t454 187q103 0 188 -34t141.5 -94.5t92.5 -144t41.5 -181.5t-11.5 -208q-26 -147 -96 -272.5t-166 -211t-213 -134t-237 -48.5q-166 0 -280 90t-156 241.5t-9 334.5zM286.5 477.5q14.5 -130.5 58.5 -230t128.5 -159t194.5 -59.5q166 0 288.5 133 t167.5 370q31 147 16.5 278.5t-60 229.5t-129.5 155.5t-193 57.5q-171 0 -292.5 -135t-164.5 -368q-29 -142 -14.5 -272.5zM618 1548q-22 6 27 27q73 32 132 38q16 2 20 -1q105 -99 223 -189q4 -4 3 -9.5t-6.5 -9.5t-10.5 -1q-187 87 -388 145z" />
<glyph unicode="&#xd3;" d="M135 641q51 288 251 475t454 187q103 0 188 -34t141.5 -94.5t92.5 -144t41.5 -181.5t-11.5 -208q-26 -147 -96 -272.5t-166 -211t-213 -134t-237 -48.5q-166 0 -280 90t-156 241.5t-9 334.5zM286.5 477.5q14.5 -130.5 58.5 -230t128.5 -159t194.5 -59.5q166 0 288.5 133 t167.5 370q31 147 16.5 278.5t-60 229.5t-129.5 155.5t-193 57.5q-171 0 -292.5 -135t-164.5 -368q-29 -142 -14.5 -272.5zM700.5 1402.5q0.5 5.5 4.5 8.5q71 39 184 116t125 85q14 11 98 -23q67 -27 62 -38q0 -2 -5 -3q-220 -55 -454 -157q-6 -3 -10.5 1.5t-4 10z" />
<glyph unicode="&#xd4;" d="M135 641q51 288 251 475t454 187q103 0 188 -34t141.5 -94.5t92.5 -144t41.5 -181.5t-11.5 -208q-26 -147 -96 -272.5t-166 -211t-213 -134t-237 -48.5q-166 0 -280 90t-156 241.5t-9 334.5zM286.5 477.5q14.5 -130.5 58.5 -230t128.5 -159t194.5 -59.5q166 0 288.5 133 t167.5 370q31 147 16.5 278.5t-60 229.5t-129.5 155.5t-193 57.5q-171 0 -292.5 -135t-164.5 -368q-29 -142 -14.5 -272.5zM625 1359q-2 4 0 7l225 211q8 9 19.5 9t17.5 -9l157 -211q3 -5 -2.5 -11.5t-11.5 -2.5l-180 104l-213 -104q-2 -2 -6 0.5t-6 6.5z" />
<glyph unicode="&#xd5;" d="M135 641q51 288 251 475t454 187q103 0 188 -34t141.5 -94.5t92.5 -144t41.5 -181.5t-11.5 -208q-26 -147 -96 -272.5t-166 -211t-213 -134t-237 -48.5q-166 0 -280 90t-156 241.5t-9 334.5zM286.5 477.5q14.5 -130.5 58.5 -230t128.5 -159t194.5 -59.5q166 0 288.5 133 t167.5 370q31 147 16.5 278.5t-60 229.5t-129.5 155.5t-193 57.5q-171 0 -292.5 -135t-164.5 -368q-29 -142 -14.5 -272.5zM584 1432q95 139 186 139q27 0 114.5 -24.5t139.5 -24.5q38 0 62.5 12.5t50.5 40.5q3 3 7.5 1t6.5 -6.5t0 -8.5q-57 -83 -94 -111.5t-82 -28.5 q-40 0 -126 26t-138 26q-15 0 -28.5 -2.5t-21 -4.5t-19 -10t-14 -10t-15.5 -14.5t-15 -14.5t-6 0.5t-7 7t-1 7.5z" />
<glyph unicode="&#xd6;" d="M135 641q51 288 251 475t454 187q103 0 188 -34t141.5 -94.5t92.5 -144t41.5 -181.5t-11.5 -208q-26 -147 -96 -272.5t-166 -211t-213 -134t-237 -48.5q-166 0 -280 90t-156 241.5t-9 334.5zM286.5 477.5q14.5 -130.5 58.5 -230t128.5 -159t194.5 -59.5q166 0 288.5 133 t167.5 370q31 147 16.5 278.5t-60 229.5t-129.5 155.5t-193 57.5q-171 0 -292.5 -135t-164.5 -368q-29 -142 -14.5 -272.5zM614 1552q0 41 25.5 65.5t69.5 24.5q42 0 66 -24t24 -66q0 -44 -23.5 -69t-66.5 -25q-44 0 -69.5 25t-25.5 69zM928 1552q0 42 25 66t69 24 q43 0 67.5 -24.5t24.5 -65.5q0 -44 -24.5 -69t-67.5 -25q-44 0 -69 25t-25 69z" />
<glyph unicode="&#xd7;" horiz-adv-x="815" d="M137 178l211 211l-209 207q-5 5 8 21.5t29.5 30t20.5 9.5l211 -208l208 208q4 4 20.5 -9.5t30 -29.5t9.5 -20l-209 -209l209 -211q4 -4 -9.5 -20t-30 -29.5t-20.5 -9.5l-208 211l-209 -209q-5 -5 -22 8t-30.5 29t-9.5 20z" />
<glyph unicode="&#xd8;" d="M63 14l148 150q-61 91 -81 214.5t5 262.5q51 288 251 475t454 187q219 0 348 -148l137 139q6 5 24.5 -9t12.5 -21l-145 -148q126 -186 75 -475q-26 -147 -96 -272.5t-166 -211t-213 -134t-237 -48.5q-216 0 -340 150l-144 -145q-3 -4 -13 2.5t-17 16.5t-3 15zM301 750 q-48 -266 29 -465l749 759q-107 209 -321 209q-171 0 -292.5 -135t-164.5 -368zM350 238q49 -98 130 -153.5t188 -55.5q166 0 288.5 133t167.5 370q52 260 -24 465z" />
<glyph unicode="&#xd9;" horiz-adv-x="1439" d="M209 381l129 733q17 88 -5.5 114.5t-111.5 26.5q-5 0 -5 12.5t5 12.5q25 0 96 -3t115 -3q43 0 117 3t100 3q5 0 5 -12.5t-5 -12.5q-63 0 -94.5 -13t-46.5 -41.5t-27 -90.5l-114 -657q-36 -200 36.5 -308t237.5 -108q90 0 177.5 39.5t195.5 132.5l157 901q17 89 -3.5 117 t-108.5 28q-6 0 -6 12.5t6 12.5q24 0 96 -3t115 -3t117 3t98 3q5 0 5 -12.5t-5 -12.5q-89 0 -120 -26.5t-46 -114.5l-168 -948q-17 -89 9 -115t132 -26q8 0 8 -12.5t-8 -12.5q-27 0 -83 1t-87 1q-22 0 -59 -1t-53 -1q-20 0 -24 6.5t-1 32.5l21 123q-117 -98 -219.5 -142.5 t-211.5 -44.5q-193 0 -295.5 110.5t-70.5 295.5zM657 1548q-22 6 27 27q73 32 132 38q16 2 20 -1q105 -99 223 -189q4 -4 2.5 -9.5t-7 -9.5t-10.5 -1q-188 88 -387 145z" />
<glyph unicode="&#xda;" horiz-adv-x="1439" d="M209 381l129 733q17 88 -5.5 114.5t-111.5 26.5q-5 0 -5 12.5t5 12.5q25 0 96 -3t115 -3q43 0 117 3t100 3q5 0 5 -12.5t-5 -12.5q-63 0 -94.5 -13t-46.5 -41.5t-27 -90.5l-114 -657q-36 -200 36.5 -308t237.5 -108q90 0 177.5 39.5t195.5 132.5l157 901q17 89 -3.5 117 t-108.5 28q-6 0 -6 12.5t6 12.5q24 0 96 -3t115 -3t117 3t98 3q5 0 5 -12.5t-5 -12.5q-89 0 -120 -26.5t-46 -114.5l-168 -948q-17 -89 9 -115t132 -26q8 0 8 -12.5t-8 -12.5q-27 0 -83 1t-87 1q-22 0 -59 -1t-53 -1q-20 0 -24 6.5t-1 32.5l21 123q-117 -98 -219.5 -142.5 t-211.5 -44.5q-193 0 -295.5 110.5t-70.5 295.5zM739 1402.5q0 5.5 4 8.5q71 39 186.5 117.5t123.5 83.5q14 11 98 -23q67 -27 62 -38q0 -2 -5 -3q-220 -55 -454 -157q-6 -3 -10.5 1.5t-4.5 10z" />
<glyph unicode="&#xdb;" horiz-adv-x="1439" d="M209 381l129 733q17 88 -5.5 114.5t-111.5 26.5q-5 0 -5 12.5t5 12.5q25 0 96 -3t115 -3q43 0 117 3t100 3q5 0 5 -12.5t-5 -12.5q-63 0 -94.5 -13t-46.5 -41.5t-27 -90.5l-114 -657q-36 -200 36.5 -308t237.5 -108q90 0 177.5 39.5t195.5 132.5l157 901q17 89 -3.5 117 t-108.5 28q-6 0 -6 12.5t6 12.5q24 0 96 -3t115 -3t117 3t98 3q5 0 5 -12.5t-5 -12.5q-89 0 -120 -26.5t-46 -114.5l-168 -948q-17 -89 9 -115t132 -26q8 0 8 -12.5t-8 -12.5q-27 0 -83 1t-87 1q-22 0 -59 -1t-53 -1q-20 0 -24 6.5t-1 32.5l21 123q-117 -98 -219.5 -142.5 t-211.5 -44.5q-193 0 -295.5 110.5t-70.5 295.5zM664 1359q-2 4 0 7l225 211q7 9 19 9t18 -9l157 -211q3 -5 -2.5 -11.5t-11.5 -2.5l-180 104l-213 -104q-2 -2 -6 0.5t-6 6.5z" />
<glyph unicode="&#xdc;" horiz-adv-x="1439" d="M209 381l129 733q17 88 -5.5 114.5t-111.5 26.5q-5 0 -5 12.5t5 12.5q25 0 96 -3t115 -3q43 0 117 3t100 3q5 0 5 -12.5t-5 -12.5q-63 0 -94.5 -13t-46.5 -41.5t-27 -90.5l-114 -657q-36 -200 36.5 -308t237.5 -108q90 0 177.5 39.5t195.5 132.5l157 901q17 89 -3.5 117 t-108.5 28q-6 0 -6 12.5t6 12.5q24 0 96 -3t115 -3t117 3t98 3q5 0 5 -12.5t-5 -12.5q-89 0 -120 -26.5t-46 -114.5l-168 -948q-17 -89 9 -115t132 -26q8 0 8 -12.5t-8 -12.5q-27 0 -83 1t-87 1q-22 0 -59 -1t-53 -1q-20 0 -24 6.5t-1 32.5l21 123q-117 -98 -219.5 -142.5 t-211.5 -44.5q-193 0 -295.5 110.5t-70.5 295.5zM653 1552q0 41 25.5 65.5t69.5 24.5q42 0 66 -24t24 -66q0 -44 -23.5 -69t-66.5 -25q-44 0 -69.5 25t-25.5 69zM967 1552q0 42 25 66t69 24q43 0 67.5 -24.5t24.5 -65.5q0 -44 -24.5 -69t-67.5 -25q-44 0 -69 25t-25 69z" />
<glyph unicode="&#xdd;" horiz-adv-x="1087" d="M144 1267.5q0 12.5 6 12.5q24 0 78.5 -3t80.5 -3q47 0 129.5 3t106.5 3q5 0 6 -6t-1.5 -12.5t-6.5 -6.5q-71 0 -91 -17.5t-1 -63.5l204 -488l267 389q56 82 44.5 131t-87.5 49q-6 0 -6 12.5t6 12.5q28 0 99 -3t118 -3q29 0 70.5 3t66.5 3q6 0 6 -12.5t-6 -12.5 q-131 0 -272 -202l-293 -416l-84 -471q-17 -90 5.5 -115.5t121.5 -25.5q6 0 6 -12.5t-6 -12.5q-27 0 -102 2t-122 2q-49 0 -125.5 -2t-103.5 -2q-6 0 -6 12.5t6 12.5q99 0 133 26t47 115l78 450l-209 494q-35 79 -69.5 112t-87.5 33q-6 0 -6 12.5zM589.5 1402.5 q0.5 5.5 4.5 8.5q71 39 184 116t125 85q14 11 98 -23q68 -27 63 -38q-1 -2 -5 -3q-223 -55 -455 -157q-6 -3 -10.5 1.5t-4 10z" />
<glyph unicode="&#xde;" horiz-adv-x="1101" d="M22 12.5q0 12.5 5 12.5q92 0 122.5 25.5t47.5 115.5l168 948q15 88 -6.5 114.5t-110.5 26.5q-6 0 -6 12.5t6 12.5q24 0 95 -3t114 -3q61 0 150 3t118 3q5 0 5 -12.5t-5 -12.5q-57 0 -88.5 -3t-56.5 -10t-37.5 -25t-21 -41.5t-15.5 -65.5l-17 -98q66 10 168 10 q103 0 186.5 -23.5t142 -70t82 -120.5t3.5 -169q-19 -95 -79.5 -170.5t-142 -119.5t-167 -66.5t-166.5 -22.5q-50 0 -84 10q-2 2 -1.5 9.5t4.5 15t9 6.5q27 -6 60 -6q62 0 123 17t117.5 51t98.5 95t58 140q35 170 -50.5 280.5t-250.5 110.5q-51 0 -117 -8l-143 -815 q-5 -33 -6.5 -52.5t3 -37.5t14 -26.5t31 -14.5t49.5 -8t73 -2q6 0 6 -12.5t-6 -12.5q-31 0 -120.5 2t-145.5 2q-43 0 -114 -2t-97 -2q-5 0 -5 12.5z" />
<glyph unicode="&#xdf;" horiz-adv-x="933" d="M-242 -465q3 30 26 49t58 19q33 0 50.5 -20t21.5 -43.5t15.5 -43.5t33.5 -20q31 0 54.5 84.5t62.5 343.5l156 985q42 276 167 437t312 161q109 0 157 -57.5t37 -139.5q-8 -52 -37 -102.5t-65.5 -90.5t-72.5 -78t-64 -81.5t-35 -85.5q-9 -54 12.5 -112.5t57 -112 t70.5 -109.5t55.5 -124t9.5 -136q-19 -111 -97 -196t-192 -85q-72 0 -113 35t-41 78q0 33 20 55.5t54 22.5q28 0 45 -14t25 -34t16 -40.5t24.5 -34.5t43.5 -14q92 0 106 129q8 60 -13 122t-56 115t-69 107t-53.5 118t-9.5 128q9 52 34.5 102t55.5 91.5t60.5 85t54.5 98.5 t31 116q4 51 0 97t-32.5 78t-78.5 32q-101 0 -176.5 -141t-116.5 -404l-147 -948q-44 -294 -111.5 -407t-197.5 -113q-75 0 -113 28t-35 70z" />
<glyph unicode="&#xe0;" horiz-adv-x="894" d="M41 186q20 142 108.5 289.5t210 244.5t228.5 97q87 0 139 -55q39 30 53 72q3 4 9 4t11.5 -3t4.5 -6l-121 -647q-18 -112 31 -112q42 0 127 88q6 6 14.5 -2.5t3.5 -14.5q-137 -159 -231 -159q-57 0 -73.5 46.5t3.5 153.5l33 191q-89 -184 -204.5 -292t-221.5 -108 q-71 0 -105 52t-20 161zM180 303q-33 -213 78 -213q69 0 148 73.5t137.5 180t79.5 207.5q18 83 -13.5 134t-103.5 50q-107 -2 -202 -126t-124 -306zM504 1489q3 12 34.5 10.5t68.5 -12.5t36 -21l-22 -491q0 -3 -4.5 -5t-9.5 -1.5t-5 4.5z" />
<glyph unicode="&#xe1;" horiz-adv-x="894" d="M41 186q20 142 108.5 289.5t210 244.5t228.5 97q87 0 139 -55q39 30 53 72q3 4 9 4t11.5 -3t4.5 -6l-121 -647q-18 -112 31 -112q42 0 127 88q6 6 14.5 -2.5t3.5 -14.5q-137 -159 -231 -159q-57 0 -73.5 46.5t3.5 153.5l33 191q-89 -184 -204.5 -292t-221.5 -108 q-71 0 -105 52t-20 161zM180 303q-33 -213 78 -213q69 0 148 73.5t137.5 180t79.5 207.5q18 83 -13.5 134t-103.5 50q-107 -2 -202 -126t-124 -306zM559 975l178 491q6 16 87 28q74 10 69 -5l-313 -520q-4 -8 -18 -1q-6 4 -3 7z" />
<glyph unicode="&#xe2;" horiz-adv-x="894" d="M41 186q20 142 108.5 289.5t210 244.5t228.5 97q87 0 139 -55q39 30 53 72q3 4 9 4t11.5 -3t4.5 -6l-121 -647q-18 -112 31 -112q42 0 127 88q6 6 14.5 -2.5t3.5 -14.5q-137 -159 -231 -159q-57 0 -73.5 46.5t3.5 153.5l33 191q-89 -184 -204.5 -292t-221.5 -108 q-71 0 -105 52t-20 161zM180 303q-33 -213 78 -213q69 0 148 73.5t137.5 180t79.5 207.5q18 83 -13.5 134t-103.5 50q-107 -2 -202 -126t-124 -306zM451 977l225 510q3 11 20 11t17 -11l45 -510q0 -3 -6 -4.5t-11.5 -1t-5.5 3.5l-80 285l-184 -289q-2 -4 -6.5 -3.5t-9.5 3.5 t-4 6z" />
<glyph unicode="&#xe3;" horiz-adv-x="894" d="M41 186q20 142 108.5 289.5t210 244.5t228.5 97q87 0 139 -55q39 30 53 72q3 4 9 4t11.5 -3t4.5 -6l-121 -647q-18 -112 31 -112q42 0 127 88q6 6 14.5 -2.5t3.5 -14.5q-137 -159 -231 -159q-57 0 -73.5 46.5t3.5 153.5l33 191q-89 -184 -204.5 -292t-221.5 -108 q-71 0 -105 52t-20 161zM180 303q-33 -213 78 -213q69 0 148 73.5t137.5 180t79.5 207.5q18 83 -13.5 134t-103.5 50q-107 -2 -202 -126t-124 -306zM326 991q20 26 35 43.5t41 43t54 39t56 13.5q29 0 115.5 -25.5t138.5 -25.5q38 0 62 13.5t53 42.5q2 2 6 -0.5t7 -7t1 -7.5 q-58 -83 -95 -111t-81 -28q-41 0 -127 24.5t-137 24.5q-30 0 -52 -8.5t-31 -15.5t-32 -29q-2 -2 -6 -0.5t-7 6t-1 8.5z" />
<glyph unicode="&#xe4;" horiz-adv-x="894" d="M41 186q20 142 108.5 289.5t210 244.5t228.5 97q87 0 139 -55q39 30 53 72q3 4 9 4t11.5 -3t4.5 -6l-121 -647q-18 -112 31 -112q42 0 127 88q6 6 14.5 -2.5t3.5 -14.5q-137 -159 -231 -159q-57 0 -73.5 46.5t3.5 153.5l33 191q-89 -184 -204.5 -292t-221.5 -108 q-71 0 -105 52t-20 161zM180 303q-33 -213 78 -213q69 0 148 73.5t137.5 180t79.5 207.5q18 83 -13.5 134t-103.5 50q-107 -2 -202 -126t-124 -306zM362 1063q0 41 25.5 65.5t69.5 24.5q42 0 66 -24t24 -66q0 -44 -23.5 -69t-66.5 -25q-44 0 -69.5 25t-25.5 69zM676 1063 q0 42 25 66t69 24q43 0 67.5 -24.5t24.5 -65.5q0 -44 -24.5 -69t-67.5 -25q-44 0 -69 25t-25 69z" />
<glyph unicode="&#xe5;" horiz-adv-x="894" d="M41 186q20 142 108.5 289.5t210 244.5t228.5 97q87 0 139 -55q39 30 53 72q3 4 9 4t11.5 -3t4.5 -6l-121 -647q-18 -112 31 -112q42 0 127 88q6 6 14.5 -2.5t3.5 -14.5q-137 -159 -231 -159q-57 0 -73.5 46.5t3.5 153.5l33 191q-89 -184 -204.5 -292t-221.5 -108 q-71 0 -105 52t-20 161zM180 303q-33 -213 78 -213q69 0 148 73.5t137.5 180t79.5 207.5q18 83 -13.5 134t-103.5 50q-107 -2 -202 -126t-124 -306zM422 1120q0 74 62 117t137 43q73 0 125.5 -48t52.5 -116q0 -71 -61 -114.5t-138 -43.5q-81 0 -129.5 48t-48.5 114z M528 1161q0 -68 29 -124t76 -56q57 0 57 98q0 71 -33 123.5t-77 52.5q-52 0 -52 -94z" />
<glyph unicode="&#xe6;" horiz-adv-x="1138" d="M41 186q19 141 99 287t196.5 245t228.5 99q56 0 99 -28.5t53 -86.5q127 115 282 115q86 0 119 -36t25 -91q-11 -69 -110 -132.5t-337 -137.5q-20 -177 23 -272t133 -95q88 0 166 66q3 3 8 0t8 -8.5t0 -8.5q-135 -127 -272 -127q-128 0 -180 108t-21 298 q-84 -186 -188 -297t-203 -111q-72 0 -108 54.5t-21 158.5zM186 301q-31 -207 78 -207q54 0 123.5 71.5t125.5 179.5t75 208q15 84 -13 142t-90 57q-92 -2 -182 -133.5t-117 -317.5zM698 446q272 96 293 216q7 40 -10 75t-66 35q-75 0 -136 -91.5t-81 -234.5z" />
<glyph unicode="&#xe7;" horiz-adv-x="708" d="M56 292.5q2 60.5 12 121.5q23 121 96 215t164.5 141t183.5 47q77 0 132.5 -34.5t49.5 -92.5q-3 -32 -24 -53t-56 -21q-60 0 -82 74q-22 78 -96 78q-86 0 -142 -78.5t-81 -210.5q-18 -84 -12 -161.5t28.5 -136t72.5 -93.5t120 -35q101 0 205 84q6 5 14 -3.5t2 -14.5 q-152 -140 -303 -146q-17 -37 -14 -72t15 -59t38 -55q78 -101 65 -172q-11 -64 -70 -121t-153 -57q-60 0 -98 26.5t-31 71.5q9 53 68 53q26 0 43 -17.5t23.5 -38.5t20 -38.5t34.5 -17.5q26 0 43.5 17.5t21.5 49.5q7 60 -84 174q-49 63 0 160l47 96q-65 3 -115.5 30.5 t-78.5 71.5t-44.5 100.5t-14.5 117z" />
<glyph unicode="&#xe8;" horiz-adv-x="710" d="M60.5 181.5q-19.5 89.5 0.5 197.5q20 106 86.5 205.5t172 166t221.5 66.5q76 0 114 -29.5t29 -80.5q-9 -60 -77 -115.5t-171.5 -95.5t-224.5 -60q-16 -112 -2 -197.5t67.5 -136.5t137.5 -51q109 0 198 66q3 3 8 0t7 -8t0 -9q-144 -125 -305 -125q-107 0 -174.5 58.5 t-87 148zM215 463q277 58 309 201q11 49 -13 73.5t-69 24.5q-86 0 -144 -83.5t-83 -215.5zM408 1489q3 12 34.5 10.5t68.5 -12.5t36 -21l-23 -491q0 -3 -4.5 -5t-9 -1.5t-4.5 4.5z" />
<glyph unicode="&#xe9;" horiz-adv-x="710" d="M60.5 181.5q-19.5 89.5 0.5 197.5q20 106 86.5 205.5t172 166t221.5 66.5q76 0 114 -29.5t29 -80.5q-9 -60 -77 -115.5t-171.5 -95.5t-224.5 -60q-16 -112 -2 -197.5t67.5 -136.5t137.5 -51q109 0 198 66q3 3 8 0t7 -8t0 -9q-144 -125 -305 -125q-107 0 -174.5 58.5 t-87 148zM215 463q277 58 309 201q11 49 -13 73.5t-69 24.5q-86 0 -144 -83.5t-83 -215.5zM463 975l178 491q6 16 87 28q74 10 69 -5l-314 -520q-4 -8 -17 -1q-6 4 -3 7z" />
<glyph unicode="&#xea;" horiz-adv-x="710" d="M60.5 181.5q-19.5 89.5 0.5 197.5q20 106 86.5 205.5t172 166t221.5 66.5q76 0 114 -29.5t29 -80.5q-9 -60 -77 -115.5t-171.5 -95.5t-224.5 -60q-16 -112 -2 -197.5t67.5 -136.5t137.5 -51q109 0 198 66q3 3 8 0t7 -8t0 -9q-144 -125 -305 -125q-107 0 -174.5 58.5 t-87 148zM215 463q277 58 309 201q11 49 -13 73.5t-69 24.5q-86 0 -144 -83.5t-83 -215.5zM340 979l223 510q5 11 22 11t17 -11l45 -510q0 -6 -11.5 -7t-12.5 5l-78 285l-185 -291q-3 -3 -8 -2.5t-9.5 3.5t-2.5 7z" />
<glyph unicode="&#xeb;" horiz-adv-x="710" d="M60.5 181.5q-19.5 89.5 0.5 197.5q20 106 86.5 205.5t172 166t221.5 66.5q76 0 114 -29.5t29 -80.5q-9 -60 -77 -115.5t-171.5 -95.5t-224.5 -60q-16 -112 -2 -197.5t67.5 -136.5t137.5 -51q109 0 198 66q3 3 8 0t7 -8t0 -9q-144 -125 -305 -125q-107 0 -174.5 58.5 t-87 148zM215 463q277 58 309 201q11 49 -13 73.5t-69 24.5q-86 0 -144 -83.5t-83 -215.5zM266 1063q0 42 25 66t69 24q42 0 66.5 -24.5t24.5 -65.5q0 -44 -24 -69t-67 -25q-44 0 -69 25t-25 69zM580 1063q0 42 25 66t69 24q43 0 67.5 -24.5t24.5 -65.5q0 -44 -24.5 -69 t-67.5 -25q-44 0 -69 25t-25 69z" />
<glyph unicode="&#xec;" horiz-adv-x="505" d="M51 638.5q-2 5.5 2 10.5q135 160 240 160q58 0 74 -45.5t-5 -145.5l-81 -436q-22 -112 28 -112q46 0 129 86q5 5 11 2t8 -9t-2 -10q-68 -80 -124 -118.5t-110 -38.5q-57 0 -73 45.5t6 154.5l84 426q21 115 -35 115q-49 0 -133 -90q-5 -5 -11 -2.5t-8 8zM225 1489 q3 12 34.5 10.5t69 -12.5t36.5 -21l-23 -491q0 -3 -4.5 -5t-9 -1.5t-4.5 4.5z" />
<glyph unicode="&#xed;" horiz-adv-x="505" d="M51 638.5q-2 5.5 2 10.5q135 160 240 160q58 0 74 -45.5t-5 -145.5l-81 -436q-22 -112 28 -112q46 0 129 86q5 5 11 2t8 -9t-2 -10q-68 -80 -124 -118.5t-110 -38.5q-57 0 -73 45.5t6 154.5l84 426q21 115 -35 115q-49 0 -133 -90q-5 -5 -11 -2.5t-8 8zM281 975l178 491 q6 15 86 28q74 10 69 -5l-313 -520q-4 -8 -17 -1q-6 4 -3 7z" />
<glyph unicode="&#xee;" horiz-adv-x="505" d="M51 638.5q-2 5.5 2 10.5q135 160 240 160q58 0 74 -45.5t-5 -145.5l-81 -436q-22 -112 28 -112q46 0 129 86q5 5 11 2t8 -9t-2 -10q-68 -80 -124 -118.5t-110 -38.5q-57 0 -73 45.5t6 154.5l84 426q21 115 -35 115q-49 0 -133 -90q-5 -5 -11 -2.5t-8 8zM172 977l225 510 q3 11 20 11t17 -11l45 -510q0 -3 -5.5 -4.5t-11 -1t-5.5 3.5l-80 285l-184 -289q-2 -4 -7 -3.5t-10 3.5t-4 6z" />
<glyph unicode="&#xef;" horiz-adv-x="505" d="M51 638.5q-2 5.5 2 10.5q135 160 240 160q58 0 74 -45.5t-5 -145.5l-81 -436q-22 -112 28 -112q46 0 129 86q5 5 11 2t8 -9t-2 -10q-68 -80 -124 -118.5t-110 -38.5q-57 0 -73 45.5t6 154.5l84 426q21 115 -35 115q-49 0 -133 -90q-5 -5 -11 -2.5t-8 8zM102 1063 q0 41 26.5 65.5t70.5 24.5q42 0 66 -24t24 -66q0 -44 -23.5 -69t-66.5 -25q-45 0 -71 25t-26 69zM383 1063q0 42 24 66t68 24q42 0 66 -24t24 -66q0 -44 -23.5 -69t-66.5 -25q-44 0 -68 25t-24 69z" />
<glyph unicode="&#xf0;" horiz-adv-x="821" d="M53 381q19 107 69 193.5t114 137.5t131 78t129 27q80 0 141 -43q-21 193 -88 363l-260 -123q-5 -2 -12.5 7.5t-10.5 19.5t2 14l264 125q-88 193 -206 278q-9 7 18 21q28 14 37 6q149 -89 250 -260l198 94q4 3 11.5 -6t10.5 -19t-1 -14l-197 -92q89 -164 122 -357.5 t-1 -388.5q-26 -151 -98.5 -259.5t-165 -159t-195.5 -50.5q-101 0 -169 57t-91 149.5t-2 201.5zM203 227.5q12 -94.5 56.5 -154t111.5 -59.5q91 0 158.5 98.5t99.5 305.5q26 179 -9.5 269.5t-152.5 90.5q-88 0 -162.5 -90.5t-99.5 -247.5q-14 -118 -2 -212.5z" />
<glyph unicode="&#xf1;" horiz-adv-x="960" d="M45 649q135 160 240 160q56 0 71.5 -45.5t-2.5 -145.5l-41 -225q73 200 171.5 312t207.5 112q88 0 118.5 -65t4.5 -205l-65 -365q-20 -112 30 -112q37 0 125 88q7 7 16 -1t3 -16q-73 -82 -126.5 -120.5t-107.5 -38.5q-56 0 -71 47t4 153l59 326q21 112 4.5 164.5 t-72.5 52.5q-100 0 -203.5 -190t-162.5 -517q-7 -34 -82 -34q-53 0 -53 14q0 3 5 25.5t12.5 60t12.5 68.5l84 456q21 115 -32 115q-50 0 -134 -90q-7 -7 -15 1t-1 15zM297 991q20 26 35 43.5t41 43t54 39t56 13.5q29 0 115.5 -25.5t138.5 -25.5q38 0 62 13.5t53 42.5 q2 2 6 -0.5t7 -7t1 -7.5q-58 -83 -95 -111t-81 -28q-42 0 -128 24.5t-136 24.5q-30 0 -52 -8.5t-31 -15.5t-32 -29q-2 -2 -6 -0.5t-7 6t-1 8.5z" />
<glyph unicode="&#xf2;" horiz-adv-x="823" d="M63 395q35 182 159 302t280 120q79 0 138.5 -33.5t90 -91t40.5 -134t-9 -163.5q-26 -129 -97 -227.5t-161.5 -147.5t-186.5 -49q-151 0 -219 122t-35 302zM195 317q6 -82 27.5 -147.5t65.5 -106t101 -40.5q79 0 142 76t87 206q17 81 11 163t-26 149t-63.5 109t-101.5 42 q-78 0 -141.5 -75.5t-89.5 -209.5q-18 -84 -12 -166zM408 1489q3 12 34.5 10.5t68.5 -12.5t36 -21l-23 -491q0 -3 -4.5 -5t-9 -1.5t-4.5 4.5z" />
<glyph unicode="&#xf3;" horiz-adv-x="823" d="M63 395q35 182 159 302t280 120q79 0 138.5 -33.5t90 -91t40.5 -134t-9 -163.5q-26 -129 -97 -227.5t-161.5 -147.5t-186.5 -49q-151 0 -219 122t-35 302zM195 317q6 -82 27.5 -147.5t65.5 -106t101 -40.5q79 0 142 76t87 206q17 81 11 163t-26 149t-63.5 109t-101.5 42 q-78 0 -141.5 -75.5t-89.5 -209.5q-18 -84 -12 -166zM463 975l178 491q6 16 87 28q74 10 69 -5l-314 -520q-4 -8 -17 -1q-6 4 -3 7z" />
<glyph unicode="&#xf4;" horiz-adv-x="823" d="M63 395q35 182 159 302t280 120q79 0 138.5 -33.5t90 -91t40.5 -134t-9 -163.5q-26 -129 -97 -227.5t-161.5 -147.5t-186.5 -49q-151 0 -219 122t-35 302zM195 317q6 -82 27.5 -147.5t65.5 -106t101 -40.5q79 0 142 76t87 206q17 81 11 163t-26 149t-63.5 109t-101.5 42 q-78 0 -141.5 -75.5t-89.5 -209.5q-18 -84 -12 -166zM340 979l223 510q5 11 22 11t17 -11l45 -510q0 -6 -11.5 -7t-12.5 5l-78 285l-185 -291q-3 -3 -8 -2.5t-9.5 3.5t-2.5 7z" />
<glyph unicode="&#xf5;" horiz-adv-x="823" d="M63 395q35 182 159 302t280 120q79 0 138.5 -33.5t90 -91t40.5 -134t-9 -163.5q-26 -129 -97 -227.5t-161.5 -147.5t-186.5 -49q-151 0 -219 122t-35 302zM195 317q6 -82 27.5 -147.5t65.5 -106t101 -40.5q79 0 142 76t87 206q17 81 11 163t-26 149t-63.5 109t-101.5 42 q-78 0 -141.5 -75.5t-89.5 -209.5q-18 -84 -12 -166zM229 991q19 26 34.5 44t41.5 43t54.5 38.5t56.5 13.5q29 0 115.5 -25.5t138.5 -25.5q38 0 61 13t53 43q1 1 3.5 0.5t5 -2.5t4.5 -4t2.5 -4.5t-0.5 -4.5q-58 -83 -95 -111t-81 -28q-41 0 -128 24.5t-137 24.5 q-30 0 -52 -8.5t-30 -15t-32 -29.5q-2 -2 -6.5 -0.5t-7.5 6t-1 8.5z" />
<glyph unicode="&#xf6;" horiz-adv-x="823" d="M63 395q35 182 159 302t280 120q79 0 138.5 -33.5t90 -91t40.5 -134t-9 -163.5q-26 -129 -97 -227.5t-161.5 -147.5t-186.5 -49q-151 0 -219 122t-35 302zM195 317q6 -82 27.5 -147.5t65.5 -106t101 -40.5q79 0 142 76t87 206q17 81 11 163t-26 149t-63.5 109t-101.5 42 q-78 0 -141.5 -75.5t-89.5 -209.5q-18 -84 -12 -166zM266 1063q0 42 25 66t69 24q42 0 66.5 -24.5t24.5 -65.5q0 -44 -24 -69t-67 -25q-44 0 -69 25t-25 69zM580 1063q0 42 25 66t69 24q43 0 67.5 -24.5t24.5 -65.5q0 -44 -24.5 -69t-67.5 -25q-44 0 -69 25t-25 69z" />
<glyph unicode="&#xf7;" horiz-adv-x="794" d="M61.5 419q1.5 21 6.5 21h677q9 0 9 -42t-9 -42h-675q-6 0 -8 21t-0.5 42zM307 743q0 42 26 67.5t70 25.5q45 0 70 -25.5t25 -67.5q0 -46 -24.5 -71t-70.5 -25q-45 0 -70.5 25.5t-25.5 70.5zM309 78q0 41 26.5 66.5t70.5 25.5q45 0 69.5 -25t24.5 -67q0 -46 -24 -71 t-70 -25q-45 0 -71 25.5t-26 70.5z" />
<glyph unicode="&#xf8;" horiz-adv-x="835" d="M-4 0l98 100q-62 118 -31 295q35 182 159 302t280 120q130 0 203 -86l86 88q5 5 21.5 -8t10.5 -20l-94 -97q68 -119 33 -299q-26 -129 -97 -227.5t-161.5 -147.5t-186.5 -49q-129 0 -198 92l-94 -96q-3 -3 -12 3.5t-15.5 15.5t-1.5 14zM207 483q-27 -138 2 -264l393 406 q-53 143 -164 143q-78 0 -141.5 -75.5t-89.5 -209.5zM221 170q55 -147 168 -147q79 0 142 76t87 206q26 148 -4 270z" />
<glyph unicode="&#xf9;" horiz-adv-x="958" d="M43 649q71 82 124.5 121t106.5 39q56 0 73 -46t-5 -155l-66 -325q-45 -217 70 -217q100 0 203 188t162 512v6q7 35 82 35q53 0 53 -14q0 -3 -5 -25.5t-13 -60t-13 -68.5l-84 -457q-18 -114 35 -114q49 0 133 90q4 5 9.5 2t7.5 -9t-1 -10q-70 -83 -127.5 -121t-113.5 -38 t-72 45t2 145l41 225q-73 -200 -171 -312t-206 -112q-181 0 -125 271l74 364q22 111 -33 111q-39 0 -125 -86q-7 -7 -15 1t-1 15zM457 1489q3 12 34.5 10.5t68.5 -12.5t36 -21l-23 -491q0 -3 -4.5 -5t-9 -1.5t-4.5 4.5z" />
<glyph unicode="&#xfa;" horiz-adv-x="958" d="M43 649q71 82 124.5 121t106.5 39q56 0 73 -46t-5 -155l-66 -325q-45 -217 70 -217q100 0 203 188t162 512v6q7 35 82 35q53 0 53 -14q0 -3 -5 -25.5t-13 -60t-13 -68.5l-84 -457q-18 -114 35 -114q49 0 133 90q4 5 9.5 2t7.5 -9t-1 -10q-70 -83 -127.5 -121t-113.5 -38 t-72 45t2 145l41 225q-73 -200 -171 -312t-206 -112q-181 0 -125 271l74 364q22 111 -33 111q-39 0 -125 -86q-7 -7 -15 1t-1 15zM512 975l178 491q6 16 87 28q74 10 69 -5l-314 -520q-4 -8 -17 -1q-6 4 -3 7z" />
<glyph unicode="&#xfb;" horiz-adv-x="958" d="M43 649q71 82 124.5 121t106.5 39q56 0 73 -46t-5 -155l-66 -325q-45 -217 70 -217q100 0 203 188t162 512v6q7 35 82 35q53 0 53 -14q0 -3 -5 -25.5t-13 -60t-13 -68.5l-84 -457q-18 -114 35 -114q49 0 133 90q4 5 9.5 2t7.5 -9t-1 -10q-70 -83 -127.5 -121t-113.5 -38 t-72 45t2 145l41 225q-73 -200 -171 -312t-206 -112q-181 0 -125 271l74 364q22 111 -33 111q-39 0 -125 -86q-7 -7 -15 1t-1 15zM389 979l223 510q4 11 21.5 11t17.5 -11l45 -510q0 -6 -11 -7t-13 5l-78 285l-184 -291q-3 -3 -8.5 -2.5t-10 3.5t-2.5 7z" />
<glyph unicode="&#xfc;" horiz-adv-x="958" d="M43 649q71 82 124.5 121t106.5 39q56 0 73 -46t-5 -155l-66 -325q-45 -217 70 -217q100 0 203 188t162 512v6q7 35 82 35q53 0 53 -14q0 -3 -5 -25.5t-13 -60t-13 -68.5l-84 -457q-18 -114 35 -114q49 0 133 90q4 5 9.5 2t7.5 -9t-1 -10q-70 -83 -127.5 -121t-113.5 -38 t-72 45t2 145l41 225q-73 -200 -171 -312t-206 -112q-181 0 -125 271l74 364q22 111 -33 111q-39 0 -125 -86q-7 -7 -15 1t-1 15zM315 1063q0 41 25.5 65.5t69.5 24.5q42 0 66 -24t24 -66q0 -44 -23.5 -69t-66.5 -25q-44 0 -69.5 25t-25.5 69zM629 1063q0 42 25 66t69 24 q43 0 67.5 -24.5t24.5 -65.5q0 -44 -24.5 -69t-67.5 -25q-44 0 -69 25t-25 69z" />
<glyph unicode="&#xfd;" horiz-adv-x="901" d="M27 -420q7 40 29 59t50 19q27 0 43 -19.5t25.5 -47.5t22.5 -56t44.5 -47.5t80.5 -19.5q34 0 63 14.5t58 50t53 104.5t41 170l102 584q-71 -197 -169 -307.5t-206 -110.5q-179 0 -123 271l74 364q19 111 -33 111q-39 0 -125 -86q-7 -7 -15.5 0.5t-2.5 15.5 q73 83 126 121.5t105 38.5q57 0 74.5 -46t-4.5 -155l-66 -325q-45 -217 70 -217q93 0 192.5 173.5t161.5 471.5l13 67q4 29 71 29q64 0 64 -12q0 -3 -5 -26t-13.5 -61.5t-14.5 -68.5l-143 -782q-37 -200 -146 -316t-282 -116q-104 0 -165.5 45t-49.5 110zM510 975l178 491 q6 16 87 28q74 10 69 -5l-314 -520q-4 -8 -17 -1q-6 4 -3 7z" />
<glyph unicode="&#xfe;" horiz-adv-x="837" d="M-133.5 -546.5q0.5 6.5 4.5 7.5q65 12 84 38t37 122l176 975q-49 -32 -96 -70q-4 -3 -9.5 1t-7 9t1.5 9q71 60 119 94l111 610q15 81 -12.5 98.5t-116.5 -24.5q-6 -2 -11 4t-5 12t5 9l283 137q7 3 16 -4.5t7 -12.5l-134 -739q149 76 277 76q114 0 168.5 -79t32.5 -210 q-20 -112 -74 -211t-124.5 -165t-149.5 -104t-152 -38q-63 0 -107 6l-65 -369q-13 -83 8 -106t103 -12q8 2 11.5 -10t-5.5 -15l-365 -55q-5 -1 -8 4.5t-2.5 12zM207 90q68 -33 153 -33q229 0 291 394q10 73 -1.5 132t-52.5 99.5t-110 40.5q-86 0 -176 -43z" />
<glyph unicode="&#xff;" horiz-adv-x="901" d="M27 -420q7 40 29 59t50 19q27 0 43 -19.5t25.5 -47.5t22.5 -56t44.5 -47.5t80.5 -19.5q34 0 63 14.5t58 50t53 104.5t41 170l102 584q-71 -197 -169 -307.5t-206 -110.5q-179 0 -123 271l74 364q19 111 -33 111q-39 0 -125 -86q-7 -7 -15.5 0.5t-2.5 15.5 q73 83 126 121.5t105 38.5q57 0 74.5 -46t-4.5 -155l-66 -325q-45 -217 70 -217q93 0 192.5 173.5t161.5 471.5l13 67q4 29 71 29q64 0 64 -12q0 -3 -5 -26t-13.5 -61.5t-14.5 -68.5l-143 -782q-37 -200 -146 -316t-282 -116q-104 0 -165.5 45t-49.5 110zM313 1063 q0 41 25.5 65.5t69.5 24.5q42 0 66 -24t24 -66q0 -44 -23.5 -69t-66.5 -25q-44 0 -69.5 25t-25.5 69zM627 1063q0 42 25 66t69 24q43 0 67.5 -24.5t24.5 -65.5q0 -44 -24.5 -69t-67.5 -25q-44 0 -69 25t-25 69z" />
<glyph unicode="&#x152;" horiz-adv-x="1652" d="M131 623q26 148 99 274t173 209.5t221.5 130.5t245.5 47q33 0 128 -2t139 -2h518q16 0 10 -18q-5 -41 -20.5 -139.5t-18.5 -123.5q-1 -4 -7.5 -4.5t-12 1.5t-4.5 5q6 114 -36.5 178t-133.5 64h-86q-93 0 -122 -23.5t-44 -107.5l-74 -422h215q86 0 128.5 33.5t55.5 114.5 q2 6 8.5 7.5t12 -1t4.5 -8.5q-7 -46 -17.5 -98.5t-13.5 -71.5q-13 -89 -31 -197q-1 -6 -7.5 -7.5t-12 1t-4.5 8.5q15 89 -18 130.5t-119 41.5h-209l-82 -469q-15 -87 6 -112t111 -25h122q88 0 156.5 71.5t126.5 204.5q1 3 7.5 3t12 -2.5t3.5 -6.5q-34 -101 -66 -276 q-3 -18 -9.5 -24.5t-23.5 -6.5h-538q-44 0 -133 -4t-121 -4q-189 0 -323.5 83.5t-190.5 227t-25 320.5zM309 670q-30 -181 2 -327.5t122 -231t222 -84.5q109 0 152 24.5t59 116.5l160 919q18 91 -10 126.5t-131 35.5q-215 0 -371.5 -151t-204.5 -428z" />
<glyph unicode="&#x153;" horiz-adv-x="1249" d="M50.5 233q-9.5 77 8.5 162q32 184 155.5 303t279.5 119q94 0 155.5 -49t87.5 -135q70 84 162 134t193 50q76 0 114 -29.5t29 -80.5q-11 -62 -86.5 -119.5t-176 -95t-210.5 -56.5q-29 -170 23.5 -277.5t177.5 -107.5q113 0 198 66q6 5 13.5 -3t1.5 -14 q-142 -125 -304 -125q-95 0 -156 43.5t-89 118.5q-65 -80 -150 -123t-172 -43q-75 0 -131 34.5t-85 92.5t-38.5 135zM191.5 316.5q5.5 -82.5 26 -148t62 -105.5t95.5 -40q79 0 140.5 76t84.5 206q17 81 11.5 163t-25 149t-61 109t-97.5 42q-78 0 -140 -77t-85 -208 q-17 -84 -11.5 -166.5zM768 465q130 23 210.5 69t96.5 130q10 49 -12 73.5t-68 24.5q-87 0 -144.5 -82t-82.5 -215z" />
<glyph unicode="&#x178;" horiz-adv-x="1087" d="M144 1267.5q0 12.5 6 12.5q24 0 78.5 -3t80.5 -3q47 0 129.5 3t106.5 3q5 0 6 -6t-1.5 -12.5t-6.5 -6.5q-71 0 -91 -17.5t-1 -63.5l204 -488l267 389q56 82 44.5 131t-87.5 49q-6 0 -6 12.5t6 12.5q28 0 99 -3t118 -3q29 0 70.5 3t66.5 3q6 0 6 -12.5t-6 -12.5 q-131 0 -272 -202l-293 -416l-84 -471q-17 -90 5.5 -115.5t121.5 -25.5q6 0 6 -12.5t-6 -12.5q-27 0 -102 2t-122 2q-49 0 -125.5 -2t-103.5 -2q-6 0 -6 12.5t6 12.5q99 0 133 26t47 115l78 450l-209 494q-35 79 -69.5 112t-87.5 33q-6 0 -6 12.5zM504 1552q0 42 25 66 t69 24q42 0 66 -24t24 -66q0 -44 -23.5 -69t-66.5 -25q-44 0 -69 25t-25 69zM817 1552q0 42 25 66t69 24q43 0 68 -24.5t25 -65.5q0 -44 -25 -69t-68 -25q-44 0 -69 25t-25 69z" />
<glyph unicode="&#x2c6;" horiz-adv-x="489" d="M207 979l223 510q4 11 21.5 11t17.5 -11l45 -510q0 -6 -12 -7t-13 5l-77 285l-185 -291q-3 -3 -8 -2.5t-9.5 3.5t-2.5 7z" />
<glyph unicode="&#x2dc;" horiz-adv-x="559" d="M111 991q20 26 35 43.5t41 43t54 39t56 13.5q29 0 115.5 -25.5t138.5 -25.5q38 0 62 13.5t53 42.5q2 2 6 -0.5t7 -7t1 -7.5q-58 -83 -95 -111t-81 -28q-42 0 -128 24.5t-136 24.5q-30 0 -52 -8.5t-31 -15.5t-32 -29q-2 -2 -6 -0.5t-7 6t-1 8.5z" />
<glyph unicode="&#x2000;" horiz-adv-x="844" />
<glyph unicode="&#x2001;" horiz-adv-x="1688" />
<glyph unicode="&#x2002;" horiz-adv-x="844" />
<glyph unicode="&#x2003;" horiz-adv-x="1688" />
<glyph unicode="&#x2004;" horiz-adv-x="562" />
<glyph unicode="&#x2005;" horiz-adv-x="422" />
<glyph unicode="&#x2006;" horiz-adv-x="281" />
<glyph unicode="&#x2007;" horiz-adv-x="281" />
<glyph unicode="&#x2008;" horiz-adv-x="211" />
<glyph unicode="&#x2009;" horiz-adv-x="337" />
<glyph unicode="&#x200a;" horiz-adv-x="93" />
<glyph unicode="&#x2010;" horiz-adv-x="577" d="M55.5 409.5q0.5 24.5 5.5 26.5l439 72q6 1 8.5 -22t1.5 -47.5t-6 -26.5l-436 -72q-6 -1 -9.5 22t-3 47.5z" />
<glyph unicode="&#x2011;" horiz-adv-x="577" d="M55.5 409.5q0.5 24.5 5.5 26.5l439 72q6 1 8.5 -22t1.5 -47.5t-6 -26.5l-436 -72q-6 -1 -9.5 22t-3 47.5z" />
<glyph unicode="&#x2012;" horiz-adv-x="577" d="M55.5 409.5q0.5 24.5 5.5 26.5l439 72q6 1 8.5 -22t1.5 -47.5t-6 -26.5l-436 -72q-6 -1 -9.5 22t-3 47.5z" />
<glyph unicode="&#x2013;" horiz-adv-x="815" d="M61.5 409q1.5 21 6.5 21h677q9 0 9 -42t-9 -42h-675q-6 0 -8 21t-0.5 42z" />
<glyph unicode="&#x2014;" horiz-adv-x="1294" d="M61.5 409q1.5 21 6.5 21h1157q9 0 9 -42t-9 -42h-1155q-6 0 -8 21t-0.5 42z" />
<glyph unicode="&#x2018;" horiz-adv-x="315" d="M135 1010q26 156 225 299q4 3 9.5 -1t7 -9.5t-1.5 -10.5q-148 -114 -168 -246q-6 -44 2 -65q17 20 53 20q47 0 70 -30t18 -70q-3 -38 -30.5 -61t-75.5 -23q-66 0 -96.5 54t-12.5 143z" />
<glyph unicode="&#x2019;" horiz-adv-x="299" d="M145.5 815q-1.5 6 1.5 10q148 114 168 246q6 44 -2 66q-18 -21 -53 -21q-47 0 -70 30.5t-18 70.5q3 38 31 60.5t76 22.5q66 0 96 -53.5t12 -142.5q-26 -156 -225 -299q-4 -3 -9.5 0.5t-7 9.5z" />
<glyph unicode="&#x201a;" horiz-adv-x="292" d="M-50.5 -317.5q-1.5 5.5 1.5 10.5q148 114 168 246q6 44 -2 65q-17 -20 -54 -20q-47 0 -70 30t-18 70q3 38 31 61t76 23q65 0 95.5 -53.5t12.5 -143.5q-26 -156 -225 -299q-4 -3 -9 1t-6.5 9.5z" />
<glyph unicode="&#x201c;" horiz-adv-x="606" d="M141 1010q26 155 226 299q4 3 9 -1t6.5 -9.5t-1.5 -10.5q-148 -114 -168 -246q-6 -44 2 -65q17 20 53 20q47 0 70 -30t18 -70q-3 -38 -30.5 -61t-75.5 -23q-66 0 -96.5 54t-12.5 143zM451 1010q26 156 225 299q4 3 9 -1t6.5 -9.5t-1.5 -10.5q-148 -114 -168 -246 q-6 -44 2 -65q17 20 54 20q47 0 70 -30t18 -70q-3 -38 -31 -61t-76 -23q-65 0 -95.5 53.5t-12.5 143.5z" />
<glyph unicode="&#x201d;" horiz-adv-x="608" d="M148.5 815q-1.5 6 1.5 10q147 113 167 246q6 44 -2 66q-18 -21 -53 -21q-47 0 -70 30.5t-18 70.5q3 38 31 60.5t76 22.5q66 0 96 -53.5t12 -142.5q-26 -156 -225 -299q-4 -3 -9 0.5t-6.5 9.5zM457.5 815q-1.5 6 1.5 10q148 114 168 246q6 44 -2 66q-18 -21 -54 -21 q-47 0 -70 30.5t-18 70.5q3 38 31 60.5t76 22.5q66 0 96 -53.5t12 -142.5q-26 -156 -225 -299q-4 -3 -9 0.5t-6.5 9.5z" />
<glyph unicode="&#x201e;" horiz-adv-x="608" d="M-50.5 -317.5q-1.5 5.5 1.5 10.5q148 114 168 246q6 44 -2 65q-17 -20 -54 -20q-47 0 -70 30t-18 70q3 38 31 61t76 23q65 0 95.5 -53.5t12.5 -143.5q-26 -156 -225 -299q-4 -3 -9 1t-6.5 9.5zM258.5 -317.5q-1.5 5.5 1.5 10.5q148 114 168 246q6 44 -2 65 q-17 -20 -53 -20q-47 0 -70 30t-18 70q3 38 30.5 61t75.5 23q66 0 96.5 -54t12.5 -143q-26 -155 -226 -299q-4 -3 -9 1t-6.5 9.5z" />
<glyph unicode="&#x2022;" horiz-adv-x="632" d="M117 408q0 82 59.5 140t142.5 58t142 -58t59 -140q0 -84 -58.5 -142.5t-142.5 -58.5t-143 58.5t-59 142.5z" />
<glyph unicode="&#x2026;" horiz-adv-x="1370" d="M49 78q0 42 26 67t70 25q45 0 70 -25t25 -67q0 -46 -24.5 -71t-70.5 -25q-45 0 -70.5 25.5t-25.5 70.5zM528 78q0 41 26.5 66.5t70.5 25.5q45 0 69.5 -25t24.5 -67q0 -46 -24 -71t-70 -25q-45 0 -71 25.5t-26 70.5zM1008 78q0 42 26 67t70 25q45 0 69.5 -25t24.5 -67 q0 -46 -24 -71t-70 -25q-45 0 -70.5 25.5t-25.5 70.5z" />
<glyph unicode="&#x202f;" horiz-adv-x="337" />
<glyph unicode="&#x2039;" horiz-adv-x="573" d="M95.5 410q1.5 14 13.5 24l393 311q4 2 9.5 -1t7.5 -7.5t-1 -7.5l-264 -317l156 -316q3 -6 -6 -13t-13 -1l-289 305q-8 9 -6.5 23z" />
<glyph unicode="&#x203a;" horiz-adv-x="571" d="M59 94l265 316l-154 315q-4 7 7 14q6 5 9 0l291 -305q8 -8 6.5 -22.5t-14.5 -24.5l-393 -311q-5 -3 -13 4.5t-4 13.5z" />
<glyph unicode="&#x205f;" horiz-adv-x="422" />
<glyph unicode="&#x20ac;" horiz-adv-x="1247" d="M126 530q-1 12 4 24.5t13 12.5h64q3 42 12 86q1 3 2 9.5t2 9.5h-61q-8 0 -9 12t4 24.5t13 12.5h66q47 172 160.5 306.5t259.5 205t298 70.5q163 0 285 -80q18 -11 21.5 -19.5t-5.5 -27.5l-122 -238q-3 -2 -8.5 -1t-10.5 5t-2 8q18 36 19 77.5t-16 81.5t-48 73t-81.5 53 t-111.5 20q-173 0 -309.5 -143.5t-179.5 -390.5h629q14 0 2 -25q-11 -24 -23 -24h-616q-4 -35 -8 -105h571q12 0 2 -25q-11 -23 -22 -24h-553q1 -142 37 -256t108 -184t168 -70q113 0 219.5 81t194.5 245q3 5 8.5 6t10 -1.5t3.5 -6.5l-65 -244q-7 -25 -12.5 -32t-20.5 -15 q-170 -66 -334 -66q-106 0 -190.5 30.5t-139 81.5t-90 121.5t-49 147.5t-10.5 162h-70q-8 0 -9 12z" />
<glyph unicode="&#x2122;" horiz-adv-x="1486" d="M188 1124q34 111 43 181q4 8 18 7q7 -3 7 -7q-1 -8 2.5 -13t13 -7t16 -2.5t19.5 -0.5q23 0 86 -1t99 -1q43 0 94.5 1t68.5 1q41 0 60.5 5t27.5 24q5 7 18 4q5 -2 5 -4q-2 -12 -18.5 -90.5t-18.5 -96.5q-5 -7 -20 -4q-3 2 -4 4q10 68 -12 98.5t-77 30.5q-44 0 -59.5 -14 t-21.5 -57l-68 -379q-8 -45 7 -59.5t77 -14.5q3 0 3 -12t-3 -12q-19 0 -71 1t-85 1q-29 0 -79.5 -1t-69.5 -1q-4 0 -4 12t4 12q59 0 79.5 14.5t26.5 59.5l68 381q7 44 -4 56.5t-54 12.5q-59 0 -94 -29.5t-55 -99.5q-2 -7 -19 -4q-6 2 -6 4zM691 717q0 12 3 12q89 0 109 102 l80 371q-29 53 -86 53q-5 0 -5 12.5t5 12.5q11 0 40 -2t35 -2q13 0 40 2t30 2q18 0 29 -12.5t24 -50.5l125 -375l250 405q7 15 19.5 24t23.5 9q3 0 26 -2t40 -2q23 0 51 2t39 2q5 0 5 -12.5t-5 -12.5q-49 0 -74.5 -17t-32.5 -67l-53 -368q-5 -46 8 -60t64 -14q3 0 3 -12 t-3 -12q-17 0 -63 1t-72 1q-31 0 -78 -1t-64 -1q-4 0 -4 12t4 12q58 0 78 14.5t25 59.5l51 364l-279 -452q-1 -7 -13 -7t-15 7l-144 418l-63 -302q-26 -102 49 -102q5 0 5 -12t-5 -12q-12 0 -42.5 1t-51.5 1q-17 0 -54 -1t-51 -1q-3 0 -3 12z" />
<glyph unicode="&#x25fc;" horiz-adv-x="808" d="M0 0v809h809v-809h-809z" />
</font>
</defs>
</svg>
