<?xml version="1.0" standalone="no"?>
<!DOCTYPE svg PUBLIC "-//W3C//DTD SVG 1.1//EN" "http://www.w3.org/Graphics/SVG/1.1/DTD/svg11.dtd" >
<svg xmlns="http://www.w3.org/2000/svg">
<metadata></metadata>
<defs>
<font id="cormorant_infantbold_italic" horiz-adv-x="1341" >
<font-face units-per-em="2048" ascent="1485" descent="-563" />
<missing-glyph horiz-adv-x="479" />
<glyph unicode="&#xfb01;" horiz-adv-x="985" d="M-254 -446q6 39 32.5 60t61.5 21q36 0 56.5 -16t26.5 -39.5t9.5 -46.5t12 -39t28.5 -16q30 0 48 74t59 352l104 723q10 75 -6 91.5t-94 16.5q-7 0 -6.5 16.5t6.5 16.5q68 0 97 18.5t36 69.5q60 322 188 476.5t330 154.5q107 0 169 -40t54 -101q-6 -40 -34 -63t-66 -23 t-63.5 19t-38 46t-23 54t-28.5 46t-46 19q-86 0 -153.5 -138.5t-106.5 -406.5l-18 -125q153 1 307 9t174 8q24 0 26.5 -13t-8.5 -58q-10 -50 -16 -87l-82 -451q-17 -96 27 -96q33 0 109 72q5 5 11 2.5t7.5 -8.5t-2.5 -11q-69 -82 -123 -120.5t-111 -38.5q-67 0 -87.5 49.5 t-2.5 150.5l78 420q2 26 4 45t-10.5 33t-30.5 23.5t-57 15t-90 8.5t-129 4l-115 -774q-42 -292 -116.5 -406t-215.5 -114q-90 0 -140 34t-42 83z" />
<glyph unicode="&#xfb02;" horiz-adv-x="1050" d="M-254 -446q6 39 32.5 60t61.5 21q36 0 56.5 -16t26.5 -39.5t9.5 -46.5t12 -39t28.5 -16q30 0 48 74t59 352l104 723q10 75 -6 91.5t-94 16.5q-7 0 -6.5 16.5t6.5 16.5q68 0 97 18.5t36 69.5q55 320 175 475.5t343 155.5q153 0 221 -49q69 33 80 88q2 5 8.5 5.5t12 -2 t4.5 -5.5l-240 -1342q-17 -96 27 -96q32 0 108 72q4 5 10.5 2.5t8.5 -8.5t-2 -11q-69 -82 -123.5 -120.5t-112.5 -38.5q-66 0 -86.5 49.5t-1.5 150.5l201 1082q-19 85 -61 132.5t-99 47.5q-107 0 -178.5 -133t-112.5 -412l-18 -121q42 1 109.5 6.5t84.5 6.5q8 0 12.5 -8.5 t2.5 -16.5q-6 -21 -28 -48t-42 -24q-5 1 -59.5 9t-87.5 12l-113 -758q-42 -292 -116.5 -406t-215.5 -114q-90 0 -140 34t-42 83z" />
<glyph unicode="&#xfb03;" horiz-adv-x="1533" d="M-254 -446q6 39 32.5 60t61.5 21q36 0 56.5 -16t26.5 -39.5t9.5 -46.5t12 -39t28.5 -16q30 0 48 74t59 352l104 723q10 75 -6 91.5t-94 16.5q-7 0 -6.5 16.5t6.5 16.5q67 0 95 18t38 70q48 237 171.5 376.5t313.5 139.5q122 0 244 -49q127 164 338 164q107 0 169 -40 t54 -101q-6 -40 -34 -63t-66 -23t-63.5 19t-38 46t-23 54t-28.5 46t-46 19q-86 0 -153.5 -138.5t-106.5 -406.5l-18 -125q153 1 307 9t174 8q24 0 26.5 -13t-8.5 -58q-10 -50 -16 -87l-82 -451q-17 -96 27 -96q32 0 108 72q8 8 16 -1t1 -16q-69 -82 -123 -120.5t-111 -38.5 q-67 0 -87.5 49.5t-2.5 150.5l78 420q2 26 4 45t-10.5 33t-30.5 23.5t-57 15t-90 8.5t-129 4l-115 -774q-42 -292 -116.5 -406t-215.5 -114q-90 0 -140 34t-42 83q6 39 32.5 60t61.5 21q36 0 56.5 -16t26.5 -39.5t9.5 -46.5t12 -39t28.5 -16q30 0 48 74t59 352l104 723l2 14 q3 36 -14.5 52t-61.5 22q-53 4 -286 8l-113 -766q-42 -292 -116.5 -406t-215.5 -114q-90 0 -140 34t-42 83zM381 772q201 0 254 2q59 3 87 15t38 40l6 27q26 152 74 272q-34 106 -79.5 153.5t-107.5 47.5q-96 0 -157 -105t-97 -325z" />
<glyph unicode="&#xfb04;" horiz-adv-x="1599" d="M-254 -446q6 39 32.5 60t61.5 21q36 0 56.5 -16t26.5 -39.5t9.5 -46.5t12 -39t28.5 -16q30 0 48 74t59 352l104 723q10 75 -6 91.5t-94 16.5q-7 0 -6.5 16.5t6.5 16.5q67 0 95 18t38 70q48 237 171.5 376.5t313.5 139.5q121 0 234 -47q128 162 348 162q153 0 221 -49 q69 33 80 88q2 5 8.5 5.5t12 -2t4.5 -5.5l-240 -1342q-17 -96 27 -96q32 0 108 72q4 5 10.5 2.5t8.5 -8.5t-2 -11q-69 -82 -123.5 -120.5t-112.5 -38.5q-66 0 -86.5 49.5t-1.5 150.5l201 1082q-19 85 -61 132.5t-99 47.5q-107 0 -178.5 -133t-112.5 -412l-18 -121 q42 1 109.5 6.5t84.5 6.5q8 0 12.5 -8.5t2.5 -16.5q-6 -21 -28 -48t-42 -24q-5 1 -59.5 9t-87.5 12l-113 -758q-42 -292 -116.5 -406t-215.5 -114q-90 0 -140 34t-42 83q6 39 32.5 60t61.5 21q36 0 56.5 -16t26.5 -39.5t9.5 -46.5t12 -39t28.5 -16q30 0 48 74t59 352 l104 723l2 14q3 36 -14.5 52t-61.5 22q-53 4 -286 8l-113 -766q-42 -292 -116.5 -406t-215.5 -114q-90 0 -140 34t-42 83zM381 772q201 0 254 2q59 3 87 15t38 40l6 27q29 168 72 283q-34 100 -79.5 145t-105.5 45q-96 0 -157 -105t-97 -325z" />
<glyph horiz-adv-x="0" />
<glyph horiz-adv-x="682" />
<glyph unicode=" "  horiz-adv-x="479" />
<glyph unicode="&#x09;" horiz-adv-x="479" />
<glyph unicode="&#xa0;" horiz-adv-x="479" />
<glyph unicode="!" horiz-adv-x="448" d="M72 100q0 51 31 81t85 30t83.5 -29.5t29.5 -81.5q0 -55 -29.5 -85.5t-83.5 -30.5t-85 30.5t-31 85.5zM209 393q31 462 37 879q0 8 45.5 16t89.5 8q84 0 123 -16q10 -5 8 -8q-140 -339 -281 -881q-1 -7 -7 -8.5t-11 1.5t-4 9z" />
<glyph unicode="&#x22;" horiz-adv-x="690" d="M174 604l43 643q1 19 64 38.5t114.5 24t55.5 -4.5l-242 -699q-1 -4 -9.5 -6t-17 -1t-8.5 5zM508 604l43 643q1 19 63.5 38.5t114 24t55.5 -4.5l-241 -699q-1 -4 -9.5 -6t-17 -1t-8.5 5z" />
<glyph unicode="#" horiz-adv-x="909" d="M39 197q0 47 6 47h156l104 311h-123q-8 0 -8 48t8 48h156l115 346q1 3 9.5 2t21.5 -5.5t24.5 -9.5t19.5 -10.5t7 -8.5l-105 -314h217l115 346q1 3 9.5 2t21.5 -5.5t24.5 -9.5t19.5 -10.5t7 -8.5l-105 -314h131q4 0 5 -24t-1.5 -48t-7.5 -24h-159l-105 -311h131 q5 0 6 -23.5t-1.5 -47t-6.5 -23.5h-162l-106 -320q-4 -5 -22.5 -0.5t-39.5 13.5t-20 14l98 293h-219l-106 -320q-4 -5 -22.5 -0.5t-39.5 13.5t-20 14l98 293h-125q-6 0 -6 47zM293 244h217l104 311h-217z" />
<glyph unicode="$" horiz-adv-x="942" d="M68 84l65 289q0 9 11.5 9t13.5 -9q67 -313 250 -344l94 540q-16 14 -47 37q-29 22 -43.5 33.5t-40.5 33t-39.5 35.5t-34 36.5t-30.5 40.5t-21.5 42.5t-15.5 48t-4.5 51.5t5.5 58q20 94 81.5 163.5t142.5 106t176 45.5l31 179q2 9 17 10t28.5 -5t11.5 -14l-29 -167 q117 0 240 -50q28 -14 22 -34l-30 -267q-2 -6 -12 -6t-11 6q-28 122 -86 201.5t-133 99.5l-82 -477q15 -15 47 -39q66 -52 101.5 -84t80 -85.5t59.5 -112.5t3 -127q-27 -142 -139 -238t-293 -113l-35 -200q-2 -9 -16.5 -10.5t-28 4t-12.5 14.5l32 190h-4q-164 0 -313 70 q-20 14 -12 39zM436 1077q-14 -80 15.5 -140t93.5 -118l78 441q-80 -4 -127.5 -58.5t-59.5 -124.5zM465 25q83 6 137.5 61.5t67.5 149.5q13 87 -18.5 156t-98.5 132z" />
<glyph unicode="%" horiz-adv-x="1083" d="M88 18l881 1115q3 5 18 -4.5t27 -22t8 -16.5l-879 -1113q-2 -3 -17 6t-28 20.5t-10 14.5zM154 885q19 109 95.5 184.5t172.5 75.5q95 0 143 -77t27 -189q-21 -110 -95.5 -185.5t-168.5 -75.5q-96 0 -145 77t-29 190zM297.5 726.5q11.5 -67.5 46.5 -67.5q30 0 50.5 28.5 t30 69.5t17.5 107q14 118 3.5 179t-39.5 61q-82 0 -107 -213q-13 -97 -1.5 -164.5zM551 254q19 109 95.5 184.5t172.5 75.5q95 0 143 -76.5t27 -187.5q-20 -112 -95 -187t-169 -75q-96 0 -145 76.5t-29 189.5zM694 96q12 -67 49 -67q43 0 65 53.5t34 153.5q13 118 2 178.5 t-41 60.5q-82 0 -107 -215q-14 -97 -2 -164z" />
<glyph unicode="&#x26;" horiz-adv-x="1566" d="M144.5 393.5q-9.5 85.5 7.5 175.5q35 168 167.5 275.5t303.5 107.5q103 0 172 -34q100 118 100 196q0 32 -12.5 53t-29.5 32t-34.5 21.5t-30 31.5t-12.5 53q0 47 28.5 75.5t74.5 28.5q60 0 90 -47.5t30 -122.5q0 -44 -11 -88.5t-26 -83t-46 -83t-56 -77t-72 -78.5 t-77 -74t-89 -76t-90 -72.5t-97 -75.5t-95 -74q23 -167 131 -265t252 -98q160 0 282.5 120.5t153.5 324.5q-17 8 -56.5 29.5t-61 32t-53.5 24.5t-58.5 20t-50.5 6q-68 0 -68 -43q0 -21 26.5 -55t26.5 -57q0 -24 -17 -44t-52 -20q-31 0 -52.5 19.5t-21.5 60.5q0 92 90 173 t193 81q64 0 150.5 -39.5t166.5 -79t129 -39.5q27 0 44 10.5t17 28.5q0 15 -32.5 47.5t-32.5 63.5q0 27 19.5 43t54.5 16q71 0 71 -80q0 -91 -77 -173.5t-173 -82.5q-48 0 -139 37q-42 -261 -192 -402t-363 -141q-102 0 -192 33.5t-152.5 90.5t-105.5 133t-52.5 161.5z M336 508q236 191 307 256q-40 127 -131 127q-68 0 -110.5 -72.5t-59.5 -183.5q-9 -68 -6 -127z" />
<glyph unicode="'" horiz-adv-x="284" d="M150 604l43 643q1 19 63.5 38.5t114 24t55.5 -4.5l-242 -699q-1 -4 -9.5 -6t-16.5 -1t-8 5z" />
<glyph unicode="(" horiz-adv-x="593" d="M128.5 261.5q-14.5 165.5 16.5 361.5q51 288 205.5 520t370.5 342q6 3 10.5 -4.5t1.5 -12.5q-135 -148 -223 -353.5t-137 -491.5q-42 -248 -27.5 -453t86.5 -393q2 -5 -4 -12.5t-10 -4.5q-127 73 -201 204.5t-88.5 297z" />
<glyph unicode=")" horiz-adv-x="593" d="M-57 -223q135 148 223 353.5t137 492.5q42 248 27.5 452.5t-86.5 392.5q-2 5 4 12.5t10 4.5q127 -73 200.5 -204.5t88 -296.5t-16.5 -361q-51 -289 -205 -521t-370 -342q-6 -3 -10.5 4.5t-1.5 12.5z" />
<glyph unicode="*" horiz-adv-x="917" d="M201 827l299 179q6 4 14 -2t6 -11l-94 -258q-9 -27 -115 20q-87 38 -108 63q-5 6 -2 9zM209 1173q10 99 27 122q3 5 6 3l264 -229q3 -5 0.5 -14t-8.5 -8l-275 10q-27 0 -14 116zM467 1354q-7 23 83 46q93 24 140 18q12 -2 12 -7l-137 -328q-1 -6 -10 -6t-12 6zM559 985 q-3 4 4 9.5t12 2.5l218 -168q16 -12 -22.5 -63.5t-85.5 -92.5t-50 -28zM588.5 1040q-2.5 10 3.5 11l225 153q16 11 53 -40.5t62 -108t12 -56.5l-348 31q-5 0 -7.5 10z" />
<glyph unicode="+" horiz-adv-x="815" d="M61.5 412q1.5 24 6.5 24h290v291q0 9 48.5 9t48.5 -9v-291h290q9 0 9 -48t-9 -48h-290v-289q0 -6 -24.5 -8t-48.5 -0.5t-24 6.5v291h-288q-6 0 -8 24t-0.5 48z" />
<glyph unicode="," horiz-adv-x="479" d="M38 -318.5q-1 5.5 3 9.5q139 122 160 258q6 31 0 49q-14 -14 -49 -14q-60 0 -88.5 43t-18.5 92q8 41 39 67.5t84 26.5q78 0 112 -60.5t11 -162.5q-17 -80 -82.5 -168.5t-153.5 -149.5q-5 -4 -10.5 0t-6.5 9.5z" />
<glyph unicode="-" horiz-adv-x="577" d="M56 411.5q0 23.5 3 28.5l439 72q6 1 10 -24.5t4 -52t-6 -27.5l-436 -72q-6 -1 -10 25.5t-4 50z" />
<glyph unicode="." horiz-adv-x="423" d="M43 100q0 51 31.5 81t85.5 30q53 0 82.5 -29.5t29.5 -81.5q0 -56 -29 -86t-83 -30t-85.5 30.5t-31.5 85.5z" />
<glyph unicode="/" horiz-adv-x="624" d="M-104 -315l786 1820q7 6 27 1.5t40.5 -16.5t16.5 -20l-784 -1818q-3 -4 -12.5 -3t-23 5.5t-25.5 10t-19.5 11.5t-5.5 9z" />
<glyph unicode="0" horiz-adv-x="970" d="M105.5 374.5q-6.5 122.5 21.5 266.5q53 297 194 480.5t328 183.5q95 0 163 -51t101 -140.5t39 -212t-22 -266.5q-53 -299 -193 -480.5t-327 -181.5q-95 0 -163 50t-101.5 139.5t-40 212zM311 407.5q-7 -112.5 1.5 -202.5t40.5 -140.5t85 -50.5q98 0 162.5 152t110.5 444 q51 316 29 486t-117 170q-63 0 -119 -82.5t-95.5 -216.5t-68.5 -312q-22 -135 -29 -247.5z" />
<glyph unicode="1" horiz-adv-x="704" d="M22 12.5q0 12.5 7 12.5q114 0 153 27t54 114l143 821q18 101 -15.5 125t-138.5 -20q-5 -2 -10 3t-5 10.5t5 8.5l393 184q7 3 12 -3t3 -11l-197 -1118q-5 -43 -6.5 -70.5t16 -43t50.5 -21.5t96 -6q8 0 8 -12.5t-8 -12.5q-34 0 -126 2t-149 2q-56 0 -150.5 -2t-127.5 -2 q-7 0 -7 12.5z" />
<glyph unicode="2" horiz-adv-x="841" d="M18 37q41 105 94 197t104.5 157t105.5 124t101.5 110.5t88 104t70 116.5t41.5 137q9 71 4 117t-30 72.5t-53.5 36.5t-66.5 10q-90 0 -151 -57.5t-103 -168.5q-2 -3 -8 -3t-12 4t-4 10l123 301q2 5 8.5 5.5t11.5 -4t2 -10.5q-21 -53 12 -53q14 0 109 30t162 30 q118 0 171.5 -74.5t32.5 -192.5q-12 -67 -47.5 -132.5t-85 -121.5t-108 -110.5t-121 -109.5t-119 -109t-105.5 -118t-77 -128q2 -4 4 -4q90 0 148 1t119.5 4t98 9t72 16t55 25t33.5 35.5t19 48.5q1 4 7.5 5t11.5 -2t3 -9l-57 -322q-3 -14 -16 -14h-635q-9 0 -12.5 11 t-0.5 26z" />
<glyph unicode="3" horiz-adv-x="860" d="M31 143q-2 5 2.5 10.5t10 7t9.5 -2.5q35 -51 92.5 -81t120.5 -30q109 0 179.5 84.5t91.5 216.5q23 145 -21 237.5t-137 92.5q-21 0 -49 -4q-4 -2 -7.5 2.5t-3.5 10.5t5 7q68 25 131 25q37 0 71 -6q73 122 92 299q12 121 -13.5 181t-96.5 60q-77 0 -148 -68.5t-159 -205.5 q-3 -5 -13 -1t-10 11l137 336q5 7 18 0q6 -4 3 -8q-19 -57 29 -57q19 0 87 21.5t132 21.5q72 0 124.5 -22t78 -58t36.5 -82t0 -94q-15 -97 -85.5 -188.5t-170.5 -153.5q111 -29 162 -115.5t25 -220.5q-33 -176 -161 -285t-282 -109q-189 0 -280 168z" />
<glyph unicode="4" horiz-adv-x="874" d="M9 383.5q-4 6.5 3 15.5l766 891q6 6 17 3.5t10 -11.5l-139 -790q22 1 65.5 2t65.5 2q5 -5 3.5 -35t-7.5 -64.5t-11 -34.5l-139 7l-35 -203q-14 -83 10 -112t84 -29q9 0 9 -12.5t-9 -12.5q-21 0 -95.5 2t-114.5 2q-49 0 -139 -2t-117 -2q-8 0 -8 12.5t8 12.5 q102 0 135 23.5t51 117.5l37 207q-121 4 -436 4q-10 0 -14 6.5zM154 489q2 -6 14 -6q119 0 311 4l86 492l-405 -475q-8 -9 -6 -15z" />
<glyph unicode="5" horiz-adv-x="843" d="M43 133q-3 8 8 13.5t15 -1.5q64 -98 194 -98q207 0 281 338q28 146 -42.5 253t-193.5 107q-54 0 -98 -14q-10 0 -13.5 7.5t-0.5 15.5l147 501q3 14 8.5 19.5t18.5 5.5q355 0 420 7.5t87 53.5q4 6 17 1q8 -3 4 -9l-59 -184q-8 -23 -20.5 -29t-37.5 -6l-399 10 q-23 0 -35 -28l-82 -305q113 24 195 24q177 0 260.5 -105.5t44.5 -299.5q-28 -138 -98.5 -238t-164 -148.5t-200.5 -48.5q-165 0 -256 158z" />
<glyph unicode="6" horiz-adv-x="937" d="M99 270.5q-9 89.5 14 192.5q36 196 143.5 373t276.5 304t366 163q4 1 7.5 -4.5t3.5 -11.5t-5 -7q-153 -57 -277 -177.5t-200 -275.5t-104 -329q-12 -78 -13.5 -155.5t9 -152t44 -121t87.5 -46.5q139 0 184 243q13 90 12 169t-29.5 133.5t-80.5 54.5q-53 0 -103 -33 q-6 -6 -14.5 1t-5.5 13q37 42 92 67t110 25q74 0 128 -31.5t80 -83.5t34.5 -118.5t-8.5 -136.5q-33 -166 -153 -259.5t-275 -93.5q-103 0 -175 38t-105.5 104t-42.5 155.5z" />
<glyph unicode="7" horiz-adv-x="829" d="M-6 12.5q0 12.5 8 12.5q63 0 113 41.5t114 148.5l537 895q6 6 5 10t-9 4q-103 0 -168 -0.5t-127 -3.5t-96.5 -6t-67.5 -12t-48 -17t-31.5 -25t-24 -32t-19.5 -43q-1 -5 -7.5 -5t-11.5 3.5t-3 7.5l133 346q1 3 7 3t11 -2.5t4 -6.5q-12 -33 2 -42t76 -9h488q8 0 11.5 -10 t0.5 -17l-547 -1142q-37 -81 -47 -96t-31 -15h-264q-8 0 -8 12.5z" />
<glyph unicode="8" horiz-adv-x="929" d="M66 324q22 122 124.5 233t227.5 174q-73 75 -107 146t-18 165q12 72 49 125t89.5 81.5t105.5 41.5t108 13q135 0 206.5 -73.5t47.5 -193.5q-38 -168 -235 -303q27 -25 39 -36t36 -35t35.5 -38.5t30.5 -39t27.5 -43.5t19 -45.5t13.5 -51t3 -54t-6 -60.5 q-29 -158 -159.5 -257.5t-301.5 -99.5q-163 0 -262.5 102t-72.5 249zM279 379q-26 -157 17.5 -261t139.5 -104q80 0 144 67t82 187q10 70 0.5 128.5t-46.5 114t-61 82.5t-83 84l-23 23q-134 -112 -170 -321zM475 1100q-12 -99 27.5 -174t120.5 -154q67 100 88 242 q39 246 -95 246q-60 0 -96.5 -42.5t-44.5 -117.5z" />
<glyph unicode="9" horiz-adv-x="937" d="M118.5 -11.5q1.5 6.5 6.5 9.5q227 91 380.5 298.5t194.5 481.5q12 81 13 160t-10.5 153t-46 120t-89.5 46q-65 0 -109.5 -64t-66.5 -181q-13 -66 -14.5 -129.5t9 -115t38 -83t68.5 -31.5q48 0 100 35q3 2 8.5 0t9 -6.5t0.5 -7.5q-84 -94 -209 -94q-74 0 -127.5 33t-77 86 t-31 119t8.5 132q36 168 157.5 260.5t284.5 92.5q191 0 265 -130t32 -358q-61 -321 -280 -552t-506 -290q-5 -1 -7.5 4t-1 11.5z" />
<glyph unicode=":" horiz-adv-x="423" d="M43 100q0 51 31.5 81t85.5 30q53 0 82.5 -29.5t29.5 -81.5q0 -56 -29 -86t-83 -30t-85.5 30.5t-31.5 85.5zM119 676q0 51 31.5 80.5t85.5 29.5t83 -29t29 -81q0 -56 -29 -86.5t-83 -30.5t-85.5 31t-31.5 86z" />
<glyph unicode=";" horiz-adv-x="454" d="M38 -318.5q-1 5.5 3 9.5q139 122 160 258q6 31 0 49q-14 -14 -49 -14q-60 0 -88.5 43t-18.5 92q8 41 39 67.5t84 26.5q78 0 112 -60.5t11 -162.5q-17 -80 -82.5 -168.5t-153.5 -149.5q-5 -4 -10.5 0t-6.5 9.5zM119 676q0 51 31.5 80.5t85.5 29.5t83 -29t29 -81 q0 -56 -29 -86.5t-83 -30.5t-85.5 31t-31.5 86z" />
<glyph unicode="&#x3c;" horiz-adv-x="833" d="M62 390q0 30 10 34l684 301q8 4 11 -16q8 -40 -4 -71q-3 -9 -7 -11l-557 -238l557 -237q15 -8 13 -63q-2 -41 -13 -38l-684 303q-10 6 -10 36z" />
<glyph unicode="=" horiz-adv-x="958" d="M61.5 269q1.5 24 6.5 24h821q9 0 9 -48t-9 -48h-819q-6 0 -8 24t-0.5 48zM61.5 556q1.5 24 6.5 24h821q9 0 9 -48.5t-9 -48.5h-819q-6 0 -8 24.5t-0.5 48.5z" />
<glyph unicode="&#x3e;" horiz-adv-x="833" d="M63 687q2 41 13 38l684 -303q10 -6 10 -36t-10 -34l-684 -301q-8 -4 -11 15q-8 40 3 72q4 10 8 12l557 237l-557 238q-15 8 -13 62z" />
<glyph unicode="?" horiz-adv-x="604" d="M147 100q0 51 31.5 81t85.5 30t83.5 -29.5t29.5 -81.5q0 -55 -29.5 -85.5t-83.5 -30.5t-85.5 30.5t-31.5 85.5zM168 1143q13 66 95.5 101.5t185.5 35.5q132 0 202 -63t49 -183q-11 -57 -45.5 -110t-59 -76t-83.5 -72q-11 -10 -16 -14q-95 -72 -135.5 -126.5t-51.5 -125.5 q-7 -58 4 -117q1 -6 -6 -11t-14 -5t-10 4q-42 54 -64 126t-16 118q9 55 40.5 100t70.5 77.5t78.5 66t71 82t40.5 108.5q4 44 1 84t-22 68t-51 28q-55 0 -63 -82q-11 -125 -111 -125q-54 0 -77 33t-13 78z" />
<glyph unicode="@" horiz-adv-x="1492" d="M127 358q0 146 58 273.5t154.5 213.5t224 135.5t265.5 49.5q123 0 228 -39.5t175 -106t109 -153.5t39 -182q0 -180 -125 -307t-305 -127q-84 0 -115 48t-8 138l4 16q-70 -95 -149 -150.5t-147 -55.5q-60 0 -94.5 43.5t-20.5 138.5q16 110 87 214t165 167t178 63 q70 0 102 -49q61 22 70 64q3 3 12 3t17 -1.5t8 -3.5l-84 -459q-11 -61 4.5 -92t67.5 -31q35 0 72 20t71 57t56 99.5t22 138.5q0 102 -39 194t-106 159.5t-162 107t-203 39.5q-117 0 -214 -46t-159.5 -124.5t-96.5 -181.5t-34 -219q0 -255 153 -406t410 -151q96 0 176.5 23 t165.5 81q4 2 8 -1.5t5 -8t-1 -6.5q-107 -91 -211 -125.5t-217 -34.5q-174 0 -312 66t-221 198.5t-83 310.5zM592 293q7 -51 45 -51t89 47.5t93.5 123.5t57.5 150q8 55 -5 91.5t-45 35.5q-73 -3 -136.5 -90.5t-88.5 -202.5q-17 -53 -10 -104z" />
<glyph unicode="A" horiz-adv-x="1239" d="M-78 12.5q0 12.5 8 12.5q58 0 135.5 65.5t145.5 188.5l571 1019q4 6 15 6h5q15 -2 17 -8l223 -1124q9 -50 14.5 -72t19.5 -42.5t36.5 -26.5t61.5 -6q8 0 8 -12.5t-8 -12.5q-34 0 -108.5 4t-119.5 4t-114 -4t-103 -4q-7 0 -7 12.5t7 12.5q77 0 101 31q13 18 14 52 q0 27 -8 64l-88 432h-295l-187 -340q-52 -95 -52 -150q0 -20 6 -34q24 -56 151 -55q5 0 6.5 -6.5t-0.5 -12.5t-8 -6q-28 0 -115.5 4t-134.5 4q-41 0 -98 -4t-91 -4q-8 0 -8 12.5zM485 662h252l-67 335z" />
<glyph unicode="B" horiz-adv-x="1148" d="M31 25q80 0 113.5 30t50.5 117l167 948q5 34 5 58q-1 38 -13 53q-20 24 -98 24q-7 0 -5.5 12.5t5.5 12.5q30 0 107 -3t122 -3q36 0 113.5 6t118.5 6q193 0 285 -72q72 -56 73 -147q0 -26 -6 -55q-21 -95 -98.5 -172t-206.5 -123q165 -25 247 -123q61 -73 61 -168 q0 -33 -7 -68q-32 -157 -184.5 -261.5t-348.5 -104.5q-34 0 -128.5 6t-135.5 6q-48 0 -128.5 -2t-108.5 -2q-4 0 -4 10q0 15 4 15zM395 158q-5 -28 -5 -49q0 -31 11 -46q19 -26 99 -26q148 0 232 75.5t114 221.5q12 53 12 99q0 85 -42 143q-64 88 -232 88q-47 0 -101 -5z M496 721q43 -2 71 -2q114 0 194.5 84t108.5 213q9 39 9 72q0 61 -32 99q-49 58 -161 58q-56 0 -83.5 -32.5t-39.5 -110.5z" />
<glyph unicode="C" horiz-adv-x="1204" d="M110 508q2 66 13 133q28 154 104 281t181.5 209t230.5 127t254 45q82 0 169.5 -17.5t135.5 -42.5q14 -7 16 -15q1 -5 1 -14q0 -7 -1 -18l-32 -274q0 -6 -11 -6t-12 6q-36 154 -127 239.5t-223 85.5q-178 0 -300 -143t-157 -395q-12 -88 -13 -170q0 -91 16 -174 q29 -158 111 -253.5t202 -95.5q203 0 434 312q4 5 9.5 4.5t9.5 -4t3 -6.5l-55 -236q-6 -26 -12.5 -34.5t-24.5 -12.5q-187 -64 -377 -64q-101 0 -185 21t-142.5 57.5t-102.5 87.5t-69 109q-24 60 -36 126q-11 59 -11 117q1 8 1 15z" />
<glyph unicode="D" horiz-adv-x="1302" d="M21 12.5q0 12.5 6 12.5q82 0 109 25.5t44 115.5l168 948q7 38 7 65q1 35 -11 49q-20 26 -98 27q-4 0 -4 12.5t4 12.5q28 0 105.5 -3t125.5 -3q38 0 119 5t119 5q195 0 333.5 -78.5t197.5 -220.5q38 -91 38 -198q0 -60 -12 -125q-35 -196 -153 -351.5t-277.5 -237 t-327.5 -81.5q-31 0 -123.5 6t-136.5 6q-49 0 -124.5 -2t-102.5 -2q-6 0 -6 12.5zM385 188q-5 -31 -5 -55q0 -43 16 -65q24 -36 110 -35q197 0 341 154t193 429q12 76 14 148q0 10 1 19q-1 63 -9 125q-10 72 -36 131.5t-66.5 105.5t-104 72t-143.5 26q-74 0 -104 -30 t-43 -103z" />
<glyph unicode="E" horiz-adv-x="1087" d="M35 12.5q0 12.5 6 12.5q82 0 108 25t44 116l165 948q8 41 8 68q0 32 -10 46q-20 27 -98 27q-4 0 -4 12.5t4 12.5h805q13 0 13 -12q0 -2 -1 -6l-43 -275q-2 -7 -13 -5t-11 7q-7 114 -79.5 181t-185.5 67h-36q-84 0 -108 -22t-38 -103l-74 -418h232q93 0 143.5 36t69.5 120 q1 6 7.5 7.5t12 -1t4.5 -8.5q-8 -52 -20 -112.5t-14 -69.5q-6 -32 -16 -100.5t-17 -110.5q-1 -6 -7.5 -7t-12.5 1.5t-5 7.5q4 23 4 43q0 57 -32 91q-42 46 -131 46h-228l-82 -463q-5 -34 -5 -58q0 -34 10 -48q18 -24 94 -25h53q120 0 234.5 77t189.5 206q4 8 18 2q4 -3 4 -6 q-32 -103 -69 -291q-3 -18 -9.5 -24.5t-23.5 -6.5h-850q-6 0 -6 12.5z" />
<glyph unicode="F" horiz-adv-x="993" d="M26 12.5q0 12.5 5 12.5q83 0 110.5 25.5t42.5 115.5l168 948q7 39 7 66q0 34 -11 48q-19 26 -96 27q-6 0 -6 12.5t6 12.5h805q13 0 13 -12q0 -2 -1 -6q-4 -30 -21 -135.5t-22 -139.5q-3 -7 -14 -5t-11 7q-9 114 -80.5 181t-185.5 67h-35q-60 0 -87 -11t-38 -33.5 t-22 -80.5l-78 -442h189q93 0 143.5 36.5t69.5 120.5q0 2 2 3.5t4 2t5 1t5.5 -0.5t4 -2t2.5 -3.5t1 -4.5q-8 -51 -20 -109.5t-15 -72.5q-25 -170 -32 -209q-1 -6 -7.5 -7.5t-12.5 1t-5 8.5q4 22 4 42q0 56 -32 90q-43 46 -132 46h-184l-78 -438q-5 -29 -5 -51q0 -49 23 -69 q33 -28 154 -29q5 0 5 -12.5t-5 -12.5q-12 0 -112.5 2t-192.5 2q-45 0 -121 -2t-102 -2q-5 0 -5 12.5z" />
<glyph unicode="G" horiz-adv-x="1296" d="M112 470q-1 20 -1 42q0 68 14 141q34 188 149.5 337t283.5 231t357 82q87 0 175.5 -17.5t136.5 -42.5q13 -7 15 -15q2 -5 2 -14q0 -8 -1 -18l-33 -274q-3 -6 -11.5 -6t-10.5 6q-36 156 -127.5 242.5t-231.5 86.5q-183 0 -309.5 -140.5t-163.5 -381.5q-14 -96 -14 -182 q0 -104 20 -193q38 -161 136.5 -248.5t244.5 -87.5q100 0 145 51t62 189q7 53 9.5 85t-2.5 59t-15.5 40t-35 22t-54.5 11t-80 2q-10 0 -9.5 16.5t9.5 16.5q126 -9 256 -9q97 0 197 5q7 0 8 -14.5t-8 -14.5q-38 1 -48.5 -32.5t-35.5 -206.5q-8 -58 -12 -97.5t-5 -55t-4 -28.5 q-1 -11 -5 -15t-17 -9q-244 -58 -422 -58q-105 0 -193.5 23.5t-154 67t-114 105t-72.5 136.5t-30 163z" />
<glyph unicode="H" horiz-adv-x="1382" d="M21 12.5q0 12.5 6 12.5q82 0 109 25.5t44 115.5l168 948q7 37 7 64q1 34 -11 50q-20 28 -98 27q-4 0 -4 12.5t4 12.5q27 0 102 -3t121 -3t125 3t106 3q4 0 4 -12.5t-4 -12.5q-43 0 -68 -6t-41.5 -24t-25 -43t-16.5 -72l-74 -416h535l73 416q6 38 6 65q-1 35 -11 51 q-18 28 -93 29q-6 0 -6 12.5t6 12.5q26 0 102.5 -3t122.5 -3q45 0 123.5 3t104.5 3q4 0 4 -12.5t-4 -12.5q-80 0 -107 -26.5t-45 -114.5l-168 -948q-6 -38 -6 -64q0 -34 11 -50q20 -26 98 -27q6 0 6 -12.5t-6 -12.5q-21 0 -99 2t-125 2t-125 -2t-106 -2q-4 0 -4 12.5t4 12.5 q58 0 85.5 11.5t41 38.5t25.5 91l81 471h-534l-84 -471q-8 -42 -8 -69q0 -31 10 -45q19 -26 98 -27q6 0 6 -12.5t-6 -12.5q-27 0 -104.5 2t-126.5 2q-45 0 -121 -2t-102 -2q-6 0 -6 12.5z" />
<glyph unicode="I" horiz-adv-x="688" d="M45 12.5q0 12.5 6 12.5q81 0 108 25.5t42 115.5l168 948q8 38 8 65q0 33 -12 49q-21 28 -99 27q-6 0 -6 12.5t6 12.5q27 0 103.5 -3t122.5 -3q53 0 129.5 3t101.5 3q6 0 6 -12.5t-6 -12.5q-81 0 -108 -27.5t-42 -117.5l-167 -944q-8 -41 -8 -69q0 -32 10 -46 q20 -26 100 -26q4 0 4 -12.5t-4 -12.5q-27 0 -103 2t-126 2q-46 0 -123.5 -2t-104.5 -2q-6 0 -6 12.5z" />
<glyph unicode="J" horiz-adv-x="649" d="M-62 -387q-2 5 -2 8q0 4 3 6q91 55 145 166t86 289l182 1032q6 37 6 64q0 35 -11 50q-20 27 -97 27q-6 0 -6 12.5t6 12.5q27 0 102.5 -3t122.5 -3q51 0 129 3t103 3q6 0 6 -12.5t-6 -12.5q-81 0 -107.5 -27t-44.5 -118l-172 -973q-21 -121 -54.5 -205.5t-88 -146 t-122 -102t-169.5 -78.5h-2q-4 0 -9 8z" />
<glyph unicode="K" horiz-adv-x="1280" d="M21 12.5q0 12.5 6 12.5q82 0 109 25.5t44 115.5l168 948q7 38 7 65q1 35 -11 49q-20 26 -98 27q-4 0 -4 12.5t4 12.5q27 0 102 -3t121 -3t125 3t106 3q4 0 4 -12.5t-4 -12.5q-81 0 -108.5 -27.5t-42.5 -117.5l-78 -438l428 401q47 43 61 85q6 18 6 33q0 21 -12 37 q-20 27 -73 27q-5 0 -5 12.5t5 12.5q23 0 119 -3t147 -3q55 0 117.5 3t83.5 3q6 0 6 -12.5t-6 -12.5q-82 0 -190.5 -52t-207.5 -142l-248 -230l193 -389q54 -107 83 -163t60.5 -111.5t47.5 -77t38.5 -40t39 -22t42.5 -3.5q6 0 6 -12.5t-6 -12.5h-192h-1h-1h-1h-1h-1h-1h-2 q-98 0 -122 10q-26 10 -46 54q-6 14 -21 52q-46 116 -94 212l-178 358l-86 -80l-78 -440q-12 -52 -12 -82q0 -22 6 -33q15 -26 106 -26q6 0 6 -12.5t-6 -12.5q-31 0 -103.5 2t-127.5 2q-45 0 -121 -2t-102 -2q-6 0 -6 12.5z" />
<glyph unicode="L" horiz-adv-x="1034" d="M24 12.5q0 12.5 5 12.5q82 0 107.5 25t43.5 116l168 948q7 38 7 65q1 35 -11 49q-20 26 -98 27q-4 0 -4 12.5t4 12.5q27 0 102 -3t121 -3t125 3t106 3q4 0 4 -12.5t-4 -12.5q-82 0 -109 -26.5t-42 -116.5l-166 -938q-6 -38 -6 -64q-1 -29 7 -42q14 -25 73 -25h53 q151 0 266 74.5t207 232.5q2 3 8 3q6 -1 11 -3q4 -2 4 -5l-72 -314q-5 -31 -33 -31h-872q-5 0 -5 12.5z" />
<glyph unicode="M" horiz-adv-x="1519" d="M21 12.5q0 12.5 6 12.5q69 0 122.5 63.5t73.5 171.5l172 924q-45 71 -145 71q-6 0 -6 12.5t6 12.5q14 0 57.5 -2t73.5 -2q44 0 103 2t69 2q24 0 36 -20.5t27 -85.5l179 -846l438 901q23 51 76 51q10 0 59 -2t74 -2q32 0 74.5 2t60.5 2q3 0 3 -12.5t-3 -12.5 q-66 0 -97 -27.5t-42 -109.5l-142 -952q-5 -34 -5 -59q0 -40 12 -56q19 -26 96 -26q6 0 6 -12.5t-6 -12.5q-26 0 -103 2t-125 2q-47 0 -123.5 -2t-103.5 -2q-6 0 -6 12.5t6 12.5q84 0 111 25.5t41 115.5l145 975l-555 -1127q-4 -8 -16 -7.5t-15 9.5l-225 1076l-149 -826 q-8 -47 -8 -86q0 -54 16 -91q28 -64 98 -64q6 0 6 -12.5t-6 -12.5q-21 0 -82.5 2t-101.5 2q-33 0 -92 -2t-84 -2q-6 0 -6 12.5z" />
<glyph unicode="N" d="M-10 12.5q0 12.5 6 12.5q77 0 133.5 57t73.5 156l162 897q-39 67 -76 93.5t-80 26.5q-6 0 -6 12.5t6 12.5q28 0 91.5 -2t86.5 -2q26 0 78 2t55 2q14 0 20 -8t18.5 -38.5t29.5 -59.5l469 -855l131 723q7 34 7 63q0 55 -24 93q-36 58 -116 57q-6 0 -6 12.5t6 12.5 q20 0 86.5 -3t111.5 -3q38 0 105.5 3t95.5 3q4 0 4 -12.5t-4 -12.5q-77 0 -133.5 -57.5t-75.5 -155.5l-188 -1056q0 -10 -27 -14q-5 -1 -10 -1q-18 0 -23 11l-589 1077l-148 -821q-5 -31 -5 -59q1 -58 25 -97q36 -57 115 -57q5 0 5 -12.5t-5 -12.5q-25 0 -89.5 2t-108.5 2 q-38 0 -105.5 -2t-95.5 -2q-6 0 -6 12.5z" />
<glyph unicode="O" d="M111 430q-1 25 -1 50q0 77 13 161q50 286 253.5 474t465.5 188q129 0 229.5 -51.5t158.5 -140.5t80 -210q10 -54 10 -111q0 -72 -15 -149q-27 -151 -99.5 -278t-171.5 -211t-218 -130.5t-241 -46.5q-102 0 -186.5 34t-141.5 94.5t-93.5 144t-42.5 182.5zM338 530 q0 -102 23 -192q24 -92 63 -160.5t101 -108.5t139 -40q147 0 257 136t150 367q18 98 18 190q1 41 -3 81q-12 130 -49 230t-109 160t-166 60q-147 0 -257.5 -135.5t-150.5 -367.5q-16 -115 -16 -220z" />
<glyph unicode="P" horiz-adv-x="1089" d="M26 12.5q0 12.5 5 12.5q83 0 110.5 25.5t42.5 115.5l168 948q7 39 7 66q0 34 -11 49q-19 26 -96 26q-6 0 -6 12.5t6 12.5q26 0 100.5 -3t122.5 -3q23 0 112 6t134 6q199 0 306 -92q82 -71 83 -190q0 -36 -8 -76q-18 -98 -74 -176.5t-130 -123.5t-151.5 -68t-150.5 -23 q-50 0 -84 10q-2 2 -1.5 11.5t4.5 20t9 9.5q24 -8 60 -8q51 0 97 18t86 54t69 96t41 139q8 49 8 92q-1 100 -43 167q-60 97 -160 97q-65 0 -89.5 -25t-41.5 -108l-166 -944q-7 -39 -7 -66q0 -34 11 -49q19 -26 96 -26q6 0 6 -12.5t-6 -12.5q-27 0 -104.5 2t-126.5 2 q-45 0 -121 -2t-102 -2q-5 0 -5 12.5z" />
<glyph unicode="Q" d="M111 430q-1 25 -1 50q0 77 13 161q50 286 253.5 474t465.5 188q129 0 229.5 -51.5t158.5 -140.5t80 -210q11 -54 11 -111q0 -72 -16 -149q-33 -184 -130.5 -328t-236.5 -231q68 -185 201.5 -316t222.5 -131q35 0 65 9q4 1 7 -4q5 -7 5 -13q0 -4 -3 -6q-91 -31 -152 -31 q-151 0 -292 105.5t-247 302.5q-90 -23 -170 -23q-102 0 -186.5 34t-141.5 94.5t-93.5 144t-42.5 182.5zM337 530q0 -102 24 -192q24 -92 63 -160.5t101 -108.5t139 -40q147 0 257 136t150 367q18 98 18 190q0 41 -3 81q-12 130 -49 230t-109 160t-166 60 q-147 0 -257.5 -135.5t-150.5 -367.5q-17 -115 -17 -220z" />
<glyph unicode="R" horiz-adv-x="1300" d="M32 12.5q0 12.5 7 12.5q88 0 119.5 27t48.5 114l166 948q8 40 8 68q0 32 -11 46q-20 26 -104 27q-8 0 -8 12.5t8 12.5q28 0 107.5 -3t126.5 -3q32 0 112 6t107 6q189 0 273 -68q64 -51 64 -132q0 -26 -7 -56q-20 -90 -87 -171t-163 -136q100 -263 175 -413.5 t140.5 -217.5t136.5 -67q6 0 6 -12.5t-6 -12.5h-309q-28 0 -70.5 62.5t-105 217.5t-129.5 382q-59 -15 -119 -15q-12 0 -24 4l-86 -485q-8 -41 -8 -69q0 -31 10 -45q19 -27 102 -27q5 0 7 -6.5t0.5 -12.5t-5.5 -6q-30 0 -108 2t-127 2q-48 0 -130 -2t-110 -2q-7 0 -7 12.5z M504 709q28 -7 55 -7q122 0 185 60t85 199q8 53 8 96q-1 75 -25 118q-38 68 -112 68q-26 0 -39 -0.5t-28 -5.5t-21 -12t-14 -23.5t-12.5 -37t-10.5 -54.5z" />
<glyph unicode="S" horiz-adv-x="962" d="M68 84l65 289q0 9 11.5 9t13.5 -9q75 -348 291 -348q89 0 148.5 56.5t72.5 154.5q4 24 4 46q0 25 -5 50q-9 46 -27 81t-51.5 72.5t-62.5 62t-73 58.5q-29 22 -43.5 33.5t-40.5 33t-39.5 35.5t-34 36.5t-30.5 40.5t-21.5 42.5t-15.5 48t-4.5 51.5t5.5 58q22 103 93 177 t164.5 107.5t199.5 33.5q119 0 242 -50q23 -12 23 -27q0 -3 -1 -7l-30 -267q-2 -6 -12 -6t-11 6q-32 142 -103.5 225t-162.5 83q-59 0 -103 -29.5t-65 -69t-29 -84.5q-4 -23 -4.5 -44t3 -40.5t8.5 -36.5t15.5 -34.5t19 -31t24.5 -30t27 -27.5t31 -27.5t32 -26.5t34 -27 q4 -3 6.5 -5t6 -5t6.5 -5q66 -52 101.5 -84t80 -85.5t59.5 -112.5q8 -33 9 -68q0 -28 -6 -59q-29 -155 -158.5 -254t-337.5 -99q-164 0 -313 70q-14 10 -14 26q0 6 2 13z" />
<glyph unicode="T" horiz-adv-x="1132" d="M200 1114q32 138 46 211q2 4 8.5 5t11.5 -1t4 -6q-2 -14 5 -23.5t21.5 -13.5t26 -5t27.5 -1q150 -6 375 -6q91 0 207 3t153 3q61 0 92 10t44 41q2 4 8 5h3q4 0 8 -2t3 -5v-2q-19 -66 -50.5 -211.5t-37.5 -197.5q-1 -5 -7.5 -6.5t-12.5 1t-5 7.5q6 35 6 68q0 86 -44 152 q-60 92 -168 93h-23q-53 0 -70 -23.5t-30 -99.5l-166 -944q-7 -38 -7.5 -60.5t6 -40t26.5 -25.5t49 -11.5t77 -3.5q4 0 4 -12.5t-4 -12.5q-33 0 -125 2t-153 2q-54 0 -148 -2t-129 -2q-5 0 -5 12.5t5 12.5q110 0 147 26t54 115l166 948q7 37 7 61q-1 23 -7 35q-12 24 -63 23 h-25q-99 0 -199.5 -95t-138.5 -225q-2 -8 -16 -3q-6 4 -6 7z" />
<glyph unicode="U" horiz-adv-x="1466" d="M186 381l129 733q8 41 8 68q-1 32 -11 46q-20 27 -97 27q-5 0 -5 12.5t5 12.5q27 0 102 -3t121 -3t125 3t105 3q6 0 6 -12.5t-6 -12.5q-80 0 -107.5 -27.5t-42.5 -117.5l-119 -657q-11 -62 -11 -115q0 -109 47 -181q70 -106 227 -106q79 0 155.5 32t171.5 107l160 920 q8 42 8 71q1 31 -9 45q-18 28 -97 29q-5 0 -5 12.5t5 12.5q27 0 103 -3t122 -3q45 0 123 3t106 3q5 0 5 -12.5t-5 -12.5q-81 0 -108.5 -26t-42.5 -115l-168 -948q-7 -37 -7 -63q0 -37 14 -52q24 -26 120 -26q7 0 7 -12.5t-7 -12.5q-28 0 -89 1t-96 1q-28 0 -73.5 -1 t-67.5 -1q-20 0 -23.5 6t-0.5 33l16 90q-103 -81 -200 -117.5t-204 -36.5q-201 1 -311 111q-85 86 -85 215q0 38 7 80z" />
<glyph unicode="V" horiz-adv-x="1226" d="M135 1267.5q0 12.5 6 12.5q30 0 97.5 -3t97.5 -3q64 0 145.5 3t108.5 3q6 0 6 -12.5t-6 -12.5q-69 0 -100 -28q-20 -18 -20 -52q0 -20 7 -45l203 -843l383 755q30 61 30 106q-1 29 -13 51q-32 56 -122 56q-6 0 -6 12.5t6 12.5q32 0 107.5 -3t136.5 -3q37 0 91 3t89 3 q8 0 8 -12.5t-8 -12.5q-27 0 -48 -4t-47 -17t-49.5 -36.5t-52 -64t-57.5 -97.5l-538 -1034q-5 -9 -25 -9h-5q-24 1 -25 9l-269 1108q-21 81 -47.5 113t-77.5 32q-6 0 -6 12.5z" />
<glyph unicode="W" horiz-adv-x="1705" d="M135 1267.5q0 12.5 6 12.5q30 0 97.5 -3t97.5 -3q51 0 118 3t87 3q7 0 7 -12.5t-7 -12.5q-42 1 -65 -29q-14 -17 -14 -48q0 -21 7 -48l207 -851l184 360l-115 471q-21 84 -41 114.5t-59 30.5q-6 0 -6 12.5t6 12.5q25 0 84 -3t86 -3q40 0 90.5 3t67.5 3q7 0 7 -12.5 t-7 -12.5q-34 0 -39 -20q-1 -4 -1 -11q0 -27 15 -94l64 -262l88 174q54 104 54 156q0 57 -64 57q-4 0 -4 12.5t4 12.5q19 0 65 -3t84 -3q31 0 75 3t72 3q8 0 8 -12.5t-8 -12.5q-29 0 -50.5 -7.5t-48.5 -29.5t-56.5 -66.5t-67.5 -115.5l-131 -254l121 -506l389 766 q33 64 33 114q0 18 -5 36q-17 62 -91 63q-6 0 -6 12.5t6 12.5q26 0 88.5 -3t113.5 -3q37 0 92 3t89 3q6 0 6 -12.5t-6 -12.5q-27 0 -48 -4t-47 -17t-49.5 -36.5t-52 -64t-57.5 -97.5l-539 -1034q-5 -9 -25 -9h-4q-24 1 -26 9l-135 557l-289 -557q-5 -9 -25 -9h-5 q-24 1 -25 9l-269 1108q-21 81 -47.5 113t-77.5 32q-6 0 -6 12.5z" />
<glyph unicode="X" horiz-adv-x="1187" d="M-74 12.5q0 12.5 8 12.5q66 0 149.5 56t174.5 171l285 358l-191 500q-30 78 -63.5 111.5t-85.5 33.5q-6 0 -6 12.5t6 12.5q25 0 76.5 -3t74.5 -3q54 0 145 3t117 3q6 0 6 -12.5t-6 -12.5q-37 1 -60 -21q-14 -13 -14 -32q0 -13 7 -28l149 -392l222 287q40 51 53 88 t-0.5 58t-41.5 30.5t-71 9.5q-8 0 -8 12.5t8 12.5q25 0 120.5 -3t145.5 -3q28 0 80.5 3t77.5 3q9 0 9 -12.5t-9 -12.5q-65 0 -149.5 -56.5t-173.5 -170.5l-240 -305l211 -553q31 -79 68.5 -112t101.5 -33q8 0 8 -12.5t-8 -12.5q-25 0 -89.5 2t-103.5 2q-49 0 -145.5 -2 t-122.5 -2q-7 0 -6.5 12.5t6.5 12.5q26 0 50.5 7.5t39.5 26.5t4 45l-170 449l-266 -342q-40 -51 -52.5 -88.5t1 -58t41 -30t69.5 -9.5q8 0 8 -12.5t-8 -12.5q-26 0 -120.5 2t-143.5 2q-28 0 -81.5 -2t-78.5 -2q-8 0 -8 12.5z" />
<glyph unicode="Y" horiz-adv-x="1095" d="M136 1267.5q0 12.5 7 12.5q29 0 98 -3t101 -3q42 0 128 3t108 3q8 0 8 -12.5t-8 -12.5q-70 0 -90 -17q-11 -9 -11 -27q0 -15 8 -37l197 -472l240 375q35 52 35 94q0 16 -5 31q-19 53 -92 53q-8 0 -8 12.5t8 12.5q27 0 111 -3t131 -3q29 0 70.5 3t66.5 3q6 0 6 -12.5 t-6 -12.5q-130 0 -278 -223l-259 -391l-84 -475q-7 -39 -7 -66q0 -35 12 -50q22 -25 120 -25q6 0 6 -12.5t-6 -12.5q-30 0 -113 2t-136 2q-54 0 -139 -2t-115 -2q-8 0 -8 12.5t8 12.5q97 0 130 26t48 115l76 450l-209 494q-32 75 -66.5 110t-75.5 35q-7 0 -7 12.5z" />
<glyph unicode="Z" horiz-adv-x="1140" d="M1 10q-1 3 -1 5q0 7 4 12l957 1202q9 11 8 13.5t-13 2.5q-171 0 -275 -11t-189 -45t-141.5 -88t-121.5 -149q-4 -3 -9.5 -3t-9.5 3.5t-1 8.5l149 380q3 3 8 3h2q6 0 11.5 -3.5t3.5 -7.5q-10 -35 5.5 -44t86.5 -9h725q9 0 12 -10q1 -4 1 -8q0 -6 -3 -9l-946 -1198 q-9 -11 -8 -13.5t12 -2.5h209q209 0 337 60.5t230 215.5q3 5 9.5 6t11.5 -2t4 -8l-80 -295q0 -6 -6 -13t-12 -7q-291 4 -959 4q-9 0 -11 10z" />
<glyph unicode="[" horiz-adv-x="518" d="M15.5 -236q-2.5 4 0.5 19l297 1681q1 13 5.5 17t15.5 4h317q7 0 7 -12.5t-7 -12.5q-96 0 -129 -27.5t-51 -117.5l-244 -1385q-15 -89 8.5 -117t116.5 -28q9 0 9 -12.5t-9 -12.5h-323q-11 0 -13.5 4z" />
<glyph unicode="\" horiz-adv-x="624" d="M225 1481q-1 9 20.5 15t44 6t23.5 -9l150 -1817q1 -8 -20.5 -14t-44.5 -5t-25 9z" />
<glyph unicode="]" horiz-adv-x="514" d="M-62 -227.5q0 12.5 7 12.5q96 0 129 27.5t51 117.5l244 1385q15 89 -8.5 117t-116.5 28q-9 0 -9 12.5t9 12.5h323q11 0 13.5 -4t-0.5 -19l-297 -1681q-1 -13 -5.5 -17t-15.5 -4h-317q-7 0 -7 12.5z" />
<glyph unicode="^" horiz-adv-x="722" d="M174 778l324 510q4 10 22 10t19 -10l143 -510q0 -3 -4.5 -6t-9 -3.5t-6.5 3.5l-195 227l-270 -231q-6 -4 -15.5 0.5t-7.5 9.5z" />
<glyph unicode="_" horiz-adv-x="743" d="M-22.5 -92q1.5 24 6.5 24h653q9 0 9 -48t-9 -48h-651q-6 0 -8 24t-0.5 48z" />
<glyph unicode="`" horiz-adv-x="339" d="M227 1489q5 15 48 15t94.5 -12.5t50.5 -25.5l-49 -491q0 -3 -4.5 -5t-9.5 -1.5t-5 4.5z" />
<glyph unicode="a" horiz-adv-x="909" d="M37 186q14 101 72 214.5t137.5 205t175.5 151.5t180 60q87 0 146 -53q38 27 63 70q4 4 9 4h1q6 0 11 -4t4 -7l-119 -645q-5 -29 -5 -49q0 -47 27 -47q39 0 111 72q4 4 9.5 1t7.5 -9q1 -2 1 -4q0 -3 -2 -5q-131 -159 -229 -159q-65 0 -89 48q-14 28 -14 75q0 34 7 77 l24 140q-78 -164 -185.5 -256.5t-209.5 -92.5q-75 0 -112 53q-26 37 -26 100q0 28 5 60zM227 352q-10 -58 -10 -100q0 -47 12 -75q22 -54 72 -54q62 0 128.5 67.5t112 157.5t60.5 170q6 34 6 63q0 49 -18 83q-28 54 -94 53q-95 0 -168 -101.5t-101 -263.5z" />
<glyph unicode="b" horiz-adv-x="923" d="M90 178l189 1028q7 39 7 66q0 40 -16 52q-9 7 -24 7q-30 0 -86 -26q-5 -2 -9.5 3.5t-4 11.5t5.5 9l317 156q2 1 5 1q6 0 12 -6q10 -8 8 -12l-177 -991q71 153 179.5 246.5t224.5 93.5q96 -1 141 -85q30 -57 30 -135q0 -39 -7 -83q-22 -126 -87.5 -232.5t-148.5 -171.5 t-170.5 -101t-163.5 -36q-121 -1 -181 55q-47 43 -48 111q0 18 4 39zM268 197q-3 -18 -3 -34q-1 -49 27 -85q36 -48 99 -47q95 0 178 114t113 306q12 51 12 94q0 37 -9 68q-20 67 -81 67q-112 0 -205 -133.5t-131 -349.5z" />
<glyph unicode="c" horiz-adv-x="710" d="M49 288q1 62 10 126q16 89 63.5 166t112 128t138.5 80t145 29q50 0 93 -13q43 -14 73 -46q27 -29 27 -68v-10q-3 -42 -31 -67t-74 -25q-86 0 -102 92q-9 38 -25 59t-51 21q-62 0 -108.5 -75t-67.5 -200q-10 -70 -10 -132q0 -39 4 -75q11 -92 64.5 -148t142.5 -56 q42 0 94.5 19t85.5 44q5 3 12.5 -4.5t3.5 -13.5q-74 -72 -158.5 -109t-162.5 -37q-71 0 -126 25.5t-86 69.5q-32 43 -50 100q-18 54 -17 113v7z" />
<glyph unicode="d" horiz-adv-x="921" d="M43 124q-3 22 -3 48q0 39 7 86q20 108 78.5 211.5t135.5 179t168 122t173 46.5q47 0 82 -14l74 403q7 39 7 66q1 40 -15 52q-9 7 -25 7q-30 0 -86 -26q-6 -2 -10 3.5t-4 12t6 8.5l317 156q2 1 5 1q7 0 13 -6q10 -8 7 -12l-230 -1286q-5 -28 -4 -47q0 -49 29 -49 q33 0 109 72q5 5 11 2.5t7.5 -8.5t-2.5 -11q-69 -82 -123 -120.5t-111 -38.5q-67 0 -87 50q-11 26 -11 67q0 36 8 83l27 142q-85 -165 -180.5 -258t-194.5 -93q-43 0 -78.5 15t-63.5 48.5t-36 87.5zM227 369q-9 -57 -9 -100q0 -55 14 -90q26 -62 92 -62q50 0 101 38.5t90 98 t68 123.5t44 121l10 55q1 11 1 21q0 63 -38 100q-44 43 -115 43q-200 0 -258 -348z" />
<glyph unicode="e" horiz-adv-x="731" d="M54 184q-10 44 -9 93q0 49 10 102q15 81 59 159t108 140.5t151 100.5t180 38q83 -1 126 -29q39 -26 39 -70q0 -5 -1 -11q-9 -90 -143.5 -168t-321.5 -113q-6 -46 -6 -88q0 -98 35 -170q50 -102 168 -102q105 0 184 63q5 3 11.5 -4.5t2.5 -11.5q-144 -138 -319 -138 q-114 0 -184 59.5t-90 149.5zM256 459q235 62 254 205q3 14 3 26q-1 27 -13 45q-18 27 -54 27q-66 0 -115.5 -84.5t-74.5 -218.5z" />
<glyph unicode="f" horiz-adv-x="548" d="M-254 -446q6 39 32.5 60t61.5 21q36 0 56.5 -16t26.5 -39.5t9.5 -46.5t12 -39t28.5 -16q30 0 48 74t59 352l104 723q4 29 4 49q0 32 -10 42q-16 17 -94 17q-7 0 -6.5 16.5t6.5 16.5q68 0 97 18.5t36 69.5q40 251 95.5 386.5t137 190t214.5 54.5q90 0 140 -33 q43 -28 43 -70q0 -7 -1 -14q-6 -40 -34.5 -63t-66.5 -23q-42 0 -65 16.5t-29 40t-9 47t-12.5 40t-31.5 16.5q-65 0 -111.5 -132.5t-87.5 -412.5l-18 -121q42 2 111.5 7.5t82.5 5.5q8 0 12.5 -8.5t2.5 -16.5q-5 -20 -26.5 -46t-39.5 -26l-22 4q-21 3 -58 8t-71 9l-113 -758 q-42 -292 -116.5 -406t-215.5 -114q-90 0 -140 34q-43 29 -43 70q0 6 1 13z" />
<glyph unicode="g" horiz-adv-x="870" d="M-55 -399q8 40 37.5 62t64.5 22q38 0 57.5 -22.5t27 -55t16 -65t34 -55t70.5 -22.5q36 0 65.5 17t60.5 61t59 129.5t52 212.5l76 439q-78 -165 -185.5 -258t-209.5 -93q-75 0 -112 53q-26 37 -26 100q0 28 5 60q14 101 72 214.5t137.5 205t175.5 151.5t180 60 q87 0 146 -53q38 27 63 70q4 4 9 4h1q6 -1 11 -4.5t4 -6.5l-160 -895q-44 -242 -172.5 -374.5t-315.5 -132.5q-121 0 -190 49q-56 39 -56 100q0 13 3 27zM227 352q-10 -58 -10 -100q0 -47 12 -75q22 -54 72 -54q62 0 128.5 67.5t112 157.5t60.5 170q6 34 6 63q0 49 -18 83 q-28 53 -94 53q-95 0 -168 -101.5t-101 -263.5z" />
<glyph unicode="h" horiz-adv-x="931" d="M55 0q0 4 5 26t13 58.5t13 67.5l193 1054q7 39 7 66q0 40 -16 52q-9 7 -24 7q-30 0 -86 -26q-5 -2 -9.5 3.5t-4 11.5t5.5 9l317 156q2 1 5 1q6 0 12 -6q10 -8 8 -12l-181 -1017q69 174 163 270t198 96q141 0 141 -168q0 -45 -10 -102l-68 -365q-5 -27 -5 -46 q0 -50 32 -50t108 72q4 5 10.5 2.5t8.5 -8.5q1 -2 1 -4q0 -4 -3 -7q-69 -82 -123.5 -120.5t-112.5 -38.5q-67 0 -87 50q-11 26 -10 65q0 37 9 85l60 326q10 53 10 92q0 32 -7 53q-15 47 -59 47q-89 0 -178.5 -165.5t-144.5 -458.5l-8 -51q-10 -41 -115 -41q-68 0 -68 16z " />
<glyph unicode="i" horiz-adv-x="505" d="M47 645q137 164 250 164q98 0 98 -106q0 -30 -8 -70l-86 -451q-5 -27 -5 -46q0 -50 32 -50t108 72q8 8 16 -1t1 -16q-69 -82 -123.5 -120.5t-112.5 -38.5q-98 0 -98 115q0 37 10 85l84 426q5 28 5 48q0 17 -4 28q-8 25 -32 25q-43 0 -116 -82q-7 -7 -16 1q-5 5 -5 11 q0 3 2 6zM238 1141q0 50 31 80t85 30q53 0 83 -30t30 -80q0 -57 -29.5 -88t-83.5 -31t-85 31t-31 88z" />
<glyph unicode="j" horiz-adv-x="509" d="M-225 -446q6 39 32.5 60t61.5 21q36 0 56.5 -16t26.5 -39.5t9.5 -46.5t12 -39t28.5 -16q29 0 46 68.5t67 357.5l125 704q5 27 5 47q0 54 -36 54q-43 0 -119 -82q-7 -9 -15 3q-6 9 -1 15q73 87 132 125.5t118 38.5q64 0 85 -44q12 -25 12 -64q0 -30 -7 -68l-117 -676 q-51 -290 -126 -405t-214 -115q-90 0 -140 34q-43 29 -43 70q0 6 1 13zM270 1141q0 50 31.5 80t85.5 30q53 0 83 -30t30 -80q0 -57 -29.5 -88t-83.5 -31q-55 0 -86 31t-31 88z" />
<glyph unicode="k" horiz-adv-x="843" d="M55 0q0 4 5 26t13 58.5t13 67.5l193 1054q7 39 7 66q0 40 -16 52q-9 7 -24 7q-30 0 -86 -26q-5 -2 -9.5 3.5t-4 11.5t5.5 9l317 156q3 1 5 1q6 0 12 -4q9 -6 8 -14l-142 -794q160 143 326 143q46 0 76.5 -12t43 -32t16.5 -39t1 -40q-12 -76 -99.5 -149.5t-234.5 -128.5 l129 -207q40 -65 68 -87t59 -22q45 0 111 54q5 5 11 2q8 -4 8 -12q0 -4 -3 -7q-134 -155 -215 -155q-54 0 -93.5 29.5t-88.5 107.5l-119 196q-24 44 -51 47l-59 -337q-10 -41 -115 -41q-68 0 -68 16zM305 403q150 35 221.5 92t77.5 142q1 8 1 15q0 77 -58 77 q-83 0 -148.5 -85t-91.5 -224z" />
<glyph unicode="l" horiz-adv-x="505" d="M102 182l189 1024q7 39 7 66q0 40 -16 52q-9 7 -24 7q-30 0 -86 -26q-9 -3 -13 9t5 15l317 156q2 1 5 1q6 0 12 -6q10 -8 8 -12l-230 -1286q-6 -30 -6 -50q0 -46 31 -46q33 0 109 72q5 5 11 2.5t7.5 -8.5t-2.5 -11q-69 -82 -122.5 -120.5t-110.5 -38.5q-67 0 -88 50 q-11 27 -11 68q0 35 8 82z" />
<glyph unicode="m" horiz-adv-x="1402" d="M45 645q73 87 132 125.5t118 38.5q64 0 85 -44q12 -25 12 -64q0 -30 -7 -68l-31 -172q68 170 158 263t190 93q81 0 115 -66q20 -39 20 -101q0 -44 -10 -99l-14 -84q67 168 156 259t186 91q83 1 115 -67q18 -38 18 -96q0 -47 -12 -107l-66 -365q-5 -27 -4 -46 q0 -50 31 -50q20 0 43.5 17.5t62.5 54.5q7 8 16 -1q5 -5 5 -9t-4 -7q-69 -82 -123 -120.5t-111 -38.5q-68 0 -88 50q-11 26 -10 67q0 36 8 83l62 326q10 56 10 95q0 97 -59 97q-76 0 -160.5 -154t-138.5 -431l-17 -90q-7 -41 -115 -41q-67 0 -67 16q0 4 5 26t13 58.5 t13 67.5l67 360q10 53 10 91q0 97 -65 97q-80 0 -165.5 -164t-137.5 -444l-12 -67q-10 -41 -115 -41q-68 0 -68 16q0 4 5 26t13 58.5t13 67.5l84 456q5 27 5 47q0 54 -36 54q-43 0 -119 -82q-7 -9 -15 3q-3 5 -3 9q0 3 2 6z" />
<glyph unicode="n" horiz-adv-x="972" d="M45 645q73 87 132 125.5t118 38.5q64 0 85 -44q12 -25 12 -64q0 -30 -7 -68l-33 -187q71 177 165 274t198 97q141 0 141 -168q0 -45 -10 -102l-68 -365q-5 -27 -5 -46q0 -50 32 -50t108 72q4 5 10 2.5t8 -8.5q1 -2 1 -5t-2 -6q-69 -82 -123.5 -120.5t-112.5 -38.5 q-66 0 -86 50q-11 26 -11 65q0 37 9 85l60 326q10 53 10 92q0 32 -7 53q-15 47 -59 47q-89 0 -179.5 -169t-145.5 -468l-6 -38q-10 -41 -115 -41q-68 0 -68 16q0 4 5 26t13 58.5t13 67.5l84 456q5 27 5 47q0 54 -36 54q-43 0 -119 -82q-7 -9 -15 3q-3 5 -3 9q0 3 2 6z" />
<glyph unicode="o" horiz-adv-x="835" d="M48 234q-4 27 -3 56q0 51 12 105q35 187 162 304.5t291 117.5q166 -1 236 -119q47 -78 46 -186q0 -55 -12 -117q-26 -135 -100 -233.5t-166 -144.5t-190 -46q-83 0 -143.5 34.5t-91.5 93t-41 135.5zM248 254q8 -102 47 -166.5t98 -64.5q65 0 113 75.5t72 206.5 q14 90 14 168q0 31 -2 61q-8 103 -48 168.5t-100 65.5q-61 0 -109 -71.5t-73 -213.5q-14 -91 -14 -169q0 -31 2 -60z" />
<glyph unicode="p" horiz-adv-x="829" d="M-141 -539q58 13 75 39.5t35 120.5l176 981q-37 -21 -104 -70q-6 -5 -12 -1.5t-6.5 10.5t4.5 12q74 60 125 94l26 144q1 4 41.5 26.5t85 59t53.5 73.5q2 5 8 6h3q4 0 8 -2q5 -3 4 -8l-35 -194q121 53 238 53q123 0 176 -73q38 -54 38 -142q0 -34 -5 -72 q-20 -138 -95.5 -258t-182.5 -191t-218 -71q-32 0 -82 4l-65 -367q-7 -35 -7 -58q0 -30 11 -42q13 -15 53 -15q17 0 39 3q5 0 8.5 -5.5t3.5 -11t-6 -6.5l-389 -63h-1q-3 0 -6 4.5t-3 10.5q0 8 6 9zM229 88q71 -29 144 -29q98 0 155.5 106t79.5 286q4 26 4 51q0 22 -3 43 q-6 46 -22.5 81.5t-53.5 57t-91 21.5q-50 0 -106 -15z" />
<glyph unicode="q" horiz-adv-x="862" d="M41 211q21 157 101.5 295.5t204.5 224.5t259 86q89 0 146 -51q34 22 65 68q3 4 8 4h1q6 -1 11.5 -4.5t4.5 -6.5l-219 -1192q-5 -28 -5 -50q0 -39 16 -57q18 -21 65 -21q21 0 46 4q7 3 10 -10q3 -12 -5 -13l-426 -51q-5 0 -8 5.5t-2.5 11.5t5.5 7q68 10 89.5 37t40.5 123 l110 633q-72 -132 -169.5 -206.5t-190.5 -74.5q-88 0 -132 59q-31 42 -31 114q0 30 5 65zM224 307v-19q0 -18 2 -42q2 -38 11.5 -62t32 -42.5t56.5 -18.5q67 0 125.5 52.5t94.5 130.5t52 169q9 51 9 92q0 56 -18 91q-31 59 -120 59q-87 0 -151 -84.5t-89 -270.5 q-3 -32 -5 -55z" />
<glyph unicode="r" horiz-adv-x="729" d="M38 637q0 4 3 8q73 87 132 125.5t118 38.5q64 0 84 -44q12 -26 12 -67q0 -29 -6 -65l-41 -225q122 401 268 401q53 -1 101 -39q42 -34 42 -75q0 -6 -1 -13q-3 -31 -29 -57.5t-62 -26.5q-34 0 -75.5 30.5t-61.5 30.5q-36 0 -89 -113.5t-97 -259t-64 -259.5v-2 q-7 -41 -114 -41q-68 0 -68 16q0 4 5.5 26t14 58.5t13.5 67.5l84 456q4 24 4 42q0 59 -37 59q-41 0 -117 -82q-5 -5 -11 -2q-8 4 -8 12z" />
<glyph unicode="s" horiz-adv-x="647" d="M10 125q6 40 31.5 62t60.5 22q29 0 51 -16.5t37.5 -40.5l31 -48t40 -40.5t57.5 -16.5q36 0 53 19.5t23 62.5q2 13 2 25q1 36 -15 69q-20 44 -56 74.5t-77 65t-75.5 66t-52.5 77.5q-12 29 -12 61q0 18 4 37q14 79 101 143t204 64q98 0 152 -33q49 -30 49 -79q0 -5 -1 -11 q-6 -39 -33 -61.5t-59 -22.5q-36 0 -58 15.5t-32 37.5t-20.5 44t-31 37.5t-54.5 15.5t-52 -19t-22 -45q-2 -13 -3 -25q1 -26 11 -50q14 -36 41.5 -65t62.5 -56.5t69 -56.5t61 -60t40 -71q8 -25 8 -51q0 -16 -3 -34q-15 -88 -106 -166t-216 -78q-93 -1 -157 43q-56 38 -55 90 q0 7 1 15z" />
<glyph unicode="t" horiz-adv-x="616" d="M98 193l80 434q6 33 6 55q0 23 -6 33q-12 20 -69 20q-7 0 -6.5 16.5t6.5 16.5q164 0 260 180q1 2 5 4q3 1 8 2h3q6 0 11.5 -2t9 -4.5t2.5 -5.5l-31 -168q64 2 147 9.5t99 7.5q8 0 12 -8q3 -5 3 -11q0 -3 -1 -6q-4 -20 -26 -48t-42 -28q-1 0 -30.5 5t-78.5 11t-93 9 l-86 -488q-4 -24 -4 -44q0 -39 16 -61q24 -34 88 -34q78 0 172 76q5 3 13.5 -5t2.5 -14q-95 -91 -167.5 -130.5t-143.5 -39.5q-167 0 -167 151q0 31 7 67z" />
<glyph unicode="u" horiz-adv-x="974" d="M49 638q-1 2 -1 4q0 4 3 7q70 83 122.5 121.5t109.5 38.5q100 0 100 -117q0 -36 -10 -84l-64 -325q-10 -54 -10 -93q1 -32 7 -52q16 -48 59 -48q89 0 179.5 169t145.5 468l6 39q10 41 115 41q68 0 68 -16q0 -4 -5 -26t-13 -58.5t-13 -67.5l-84 -457q-5 -27 -5 -47 q0 -53 36 -53q42 0 118 82q6 8 15 -3q4 -5 4 -10q0 -3 -2 -6q-73 -87 -132 -125t-118 -38q-64 0 -85 44q-12 25 -12 64q0 30 7 68l33 186q-71 -177 -165 -274t-198 -97q-88 -1 -122 67q-20 38 -20 100q0 46 11 104l72 364q5 27 5 47q0 50 -32 50q-20 0 -43.5 -17.5 t-62.5 -54.5q-5 -5 -11 -3t-8 8z" />
<glyph unicode="v" horiz-adv-x="917" d="M131 744q41 50 127 49h191q17 0 20.5 -5t-4.5 -20q-106 -245 -125 -381q-5 -34 -5 -64q0 -72 30 -122q43 -70 124 -70q89 0 165.5 77.5t93.5 199.5q3 22 3 41q0 37 -11 65q-16 40 -60 92q-53 57 -53 105q0 50 31.5 75t80.5 25q45 0 71 -21t36 -79q5 -30 5 -70 q0 -39 -5 -88q-11 -114 -57 -222t-110 -186t-141.5 -125t-150.5 -47q-94 0 -156 72q-57 67 -57 157v15q4 51 25.5 106t66 137.5t60.5 117.5q8 17 11 26t3.5 17t-5 11t-16.5 3h-98q-71 0 -104 -20.5t-49 -67.5q-5 -11 -19 -6q-6 3 -6 9q0 87 88 194z" />
<glyph unicode="w" horiz-adv-x="1286" d="M131 744q41 50 127 49h191q17 0 20.5 -5t-4.5 -20q-106 -245 -125 -381q-5 -34 -6 -64q0 -72 31 -122q43 -70 124 -70q52 0 105 43q-16 73 -16 157q0 89 18 191q26 146 69 213.5t107 67.5q55 0 74 -49q11 -27 11 -72q0 -35 -7 -80q-28 -204 -135 -379q69 -92 176 -92 q79 0 144.5 77.5t78.5 199.5q3 22 3 42q0 40 -11 66q-16 40 -59 90q-54 58 -54 105q0 50 32 75t81 25q44 0 69 -21.5t37 -78.5q6 -28 6 -67.5t-6 -90.5q-14 -152 -79.5 -287.5t-157.5 -214t-184 -78.5q-115 0 -173 125q-115 -125 -231 -125q-107 0 -157 79q-35 55 -36 137 q0 36 7 77q22 137 125 312q19 31 17.5 44t-24.5 13h-98q-71 0 -104 -20.5t-49 -67.5q-5 -11 -19 -6q-6 3 -6 9q0 87 88 194zM642 408q10 -72 40 -132q76 115 96 234q3 20 3 36q0 75 -60 75q-59 0 -76 -84q-7 -32 -8 -69q1 -29 5 -60z" />
<glyph unicode="x" horiz-adv-x="880" d="M-18 113q3 30 28.5 52.5t61.5 22.5q33 0 55.5 -15t39 -29.5t36.5 -14.5q22 0 51 41l111 162l-89 266q-18 57 -41.5 75.5t-54.5 18.5q-48 0 -106 -55q-4 -5 -10.5 -2t-8.5 8.5t2 9.5q150 156 252 156q54 0 84 -30.5t58 -112.5l47 -148l92 144q58 93 88.5 120t75.5 27 q53 -1 95 -41q37 -35 37 -79q0 -6 -1 -13q-5 -31 -30.5 -54.5t-61.5 -23.5q-32 0 -54.5 15t-39.5 30.5t-37 15.5q-23 0 -52 -41l-96 -145l92 -285q18 -57 41 -74.5t55 -17.5q52 0 105 56q8 6 15.5 -3t0.5 -16q-78 -80 -137 -118t-113 -38q-55 0 -84.5 31.5t-56.5 114.5 l-53 166l-103 -162q-60 -94 -90.5 -122t-74.5 -28q-53 0 -95 42q-36 36 -35 79q0 7 1 15z" />
<glyph unicode="y" horiz-adv-x="921" d="M14 -420q10 54 39.5 79.5t65.5 25.5q38 0 58 -22.5t27.5 -54.5t16.5 -63.5t37 -54t78 -22.5q39 0 70 25.5t63 103.5t55 210l94 529q-70 -173 -162.5 -268t-195.5 -95q-88 0 -122 67q-20 39 -20 100q0 46 11 104l72 364q5 27 5 47q0 50 -32 50q-20 0 -43.5 -17.5 t-62.5 -54.5q-5 -5 -11 -2.5t-8 8t2 10.5q70 83 122.5 121.5t109.5 38.5q100 0 100 -117q0 -36 -10 -84l-64 -325q-10 -54 -10 -93q0 -31 7 -52q15 -48 59 -48q82 0 169.5 155t145.5 425l20 108q2 13 27 21t68 8q38 0 57 -1.5t24 -3.5t5 -7q0 -17 -31 -156l-143 -782 q-34 -193 -156 -312.5t-297 -119.5q-116 0 -185 45q-57 37 -57 89q0 10 2 21z" />
<glyph unicode="z" horiz-adv-x="704" d="M-25 12l527 582h-4q-46 0 -157 23.5t-142 23.5q-39 0 -62 -17.5t-41 -58.5q-5 -9 -15.5 -4.5t-6.5 14.5q36 114 58 159.5t47 59.5q23 13 70 13h7q45 -3 165 -27.5t175 -27.5q34 0 58.5 12.5t54.5 46.5q2 1 3 1q3 0 8 -3q7 -5 12 -12q4 -5 4 -7q0 -1 -1 -2l-524 -585h4 q55 0 183.5 -23.5t164.5 -23.5q63 0 92 80q3 5 13.5 1.5t9.5 -10.5q-30 -109 -54 -159q-22 -51 -46 -65q-22 -13 -62 -13h-6q-58 1 -196 27t-199 28q-33 0 -58 -12.5t-55 -46.5h-2q-2 0 -8 4q-8 6 -14 13q-4 5 -4 8z" />
<glyph unicode="{" horiz-adv-x="538" d="M54 623.5q0 13.5 5 13.5q71 12 111 50.5t70.5 128.5t60.5 267q16 89 32 150.5t38.5 107.5t47.5 73t63.5 43.5t80.5 22t103 5.5q6 0 6 -12.5t-6 -12.5q-110 0 -146 -217q-22 -118 -38 -192t-38 -141.5t-43.5 -105.5t-57 -73.5t-76 -58t-101.5 -47.5q45 -17 76.5 -33 t55 -36t37 -40.5t20 -51t7 -61t-5 -76.5t-13.5 -92t-20 -113q-14 -77 -22 -120q-17 -98 3 -157.5t63 -59.5q5 0 5 -12.5t-5 -12.5q-70 0 -114 5.5t-76 24t-46 43.5t-17.5 75t3 107t22.5 149q13 75 20.5 124t12 96t2 76t-8.5 55.5t-21 42.5t-35 29t-50 23q-5 0 -5 13.5z" />
<glyph unicode="|" horiz-adv-x="311" d="M-10 -309l317 1806q2 9 24.5 10.5t43.5 -4t20 -14.5l-319 -1804q-2 -9 -24 -11t-42.5 3t-19.5 14z" />
<glyph unicode="}" horiz-adv-x="540" d="M-51 -227.5q0 12.5 6 12.5q109 0 145 217q22 118 38 192t38 141.5t44 106t57.5 74t76 58t101.5 47.5q-166 61 -189.5 160.5t32.5 343.5q14 76 21 118q17 98 -2.5 157.5t-62.5 59.5q-4 0 -4 12.5t4 12.5q52 0 88.5 -3t67 -12.5t49 -22t30.5 -36.5t16.5 -51.5t2.5 -71.5 t-8.5 -91t-18.5 -116q-13 -75 -20.5 -124t-12 -96t-2 -76t8.5 -55.5t21 -42.5t35 -29t50 -23q5 0 5 -13.5t-5 -13.5q-71 -12 -111 -50.5t-70.5 -128.5t-60.5 -267q-19 -106 -40 -175t-47.5 -115.5t-67 -70t-88 -32.5t-121.5 -9q-6 0 -6 12.5z" />
<glyph unicode="~" horiz-adv-x="907" d="M74 307q84 111 132 148t107 37q47 0 174.5 -33t167.5 -33q96 0 166 74q6 6 14 -5q3 -6 1 -10q-80 -105 -133 -144.5t-119 -39.5q-43 0 -167.5 33t-174.5 33q-37 0 -66 -11t-44 -23t-44 -40q-2 -2 -6 -0.5t-7 6t-1 8.5z" />
<glyph unicode="&#xa1;" horiz-adv-x="446" d="M-51 -547q137 333 280 881q1 7 7 8.5t11.5 -1.5t4.5 -9q-31 -462 -37 -879q0 -8 -45.5 -16t-89.5 -8q-84 0 -123 16q-8 5 -8 8zM160 625q0 56 29 86t83 30t85.5 -30.5t31.5 -85.5q0 -51 -31.5 -81t-85.5 -30q-53 0 -82.5 29.5t-29.5 81.5z" />
<glyph unicode="&#xa2;" horiz-adv-x="1220" d="M110 495.5q0 71.5 13 145.5q26 140 91.5 257.5t156.5 199t200 132t226 66.5l32 183q2 9 17 10t29 -5t12 -14l-29 -167h35q82 0 169.5 -17.5t135.5 -42.5q13 -7 15.5 -15.5t0.5 -31.5l-32 -274q0 -6 -11 -6t-12 6q-33 142 -113 226.5t-198 96.5l-215 -1227q10 -2 35 -2 q203 0 434 312q4 5 9.5 4.5t9.5 -4t3 -6.5l-55 -236q-6 -26 -12.5 -34.5t-24.5 -12.5q-187 -64 -377 -64h-30l-35 -198q-3 -9 -18 -10.5t-28.5 4t-11.5 14.5l35 195q-99 10 -178.5 43t-130.5 83.5t-85.5 112.5t-48.5 133.5t-14 143zM352 709q-36 -245 26 -434.5t197 -241.5 l213 1214q-170 -9 -286 -151t-150 -387z" />
<glyph unicode="&#xa3;" horiz-adv-x="899" d="M16 12q-3 12 2 13q74 36 117 106t64 182q20 110 12 281h-96q-12 0 -12 29.5t12 29.5h94q-4 136 12 221q18 109 62.5 194t104 135t125.5 75t136 25q126 0 209 -33q22 -13 19 -33l-50 -281q-3 -9 -13.5 -9t-10.5 9q-15 156 -58 230t-120 74q-55 0 -98.5 -44.5t-66.5 -107 t-34 -137.5q-4 -31 -6 -62t-2 -69.5t0.5 -58t3 -68.5t2.5 -60h201q11 0 11 -29.5t-11 -29.5h-199q4 -113 -8 -184q-23 -153 -142 -252l291 -4q109 -1 151 31t79 141q2 4 8 4t10.5 -2.5t3.5 -5.5q-35 -126 -67 -291q-5 -18 -11.5 -24.5t-21.5 -6.5h-694q-6 0 -9 12z" />
<glyph unicode="&#xa4;" horiz-adv-x="786" d="M57 131l101 98q-48 85 -29 197q16 96 90 170l-69 96l77 72l76 -113q69 35 146 35q76 0 129 -41l112 113l49 -66l-112 -106q46 -78 28 -187q-17 -92 -82 -161l72 -99l-84 -73l-69 108q-77 -41 -158 -41q-70 0 -123 37l-102 -104zM259.5 323q2.5 -59 31 -100t76.5 -41 q51 0 90.5 53t56.5 146q18 103 -9 179.5t-97 76.5q-51 0 -89 -50t-53 -141q-9 -64 -6.5 -123z" />
<glyph unicode="&#xa5;" horiz-adv-x="1079" d="M136 1267.5q0 12.5 7 12.5q29 0 98 -3t101 -3q42 0 128 3t108 3q8 0 8 -12.5t-8 -12.5q-70 0 -90.5 -17t-2.5 -64l197 -472l240 375q48 72 29.5 125t-91.5 53q-8 0 -8 12.5t8 12.5q27 0 111 -3t131 -3q29 0 70.5 3t66.5 3q6 0 6 -12.5t-6 -12.5q-130 0 -278 -223 l-259 -391h191q15 0 15 -29.5t-15 -29.5h-201l-16 -93h190q15 0 15 -30.5t-15 -30.5h-200l-48 -262q-17 -90 5 -115.5t120 -25.5q6 0 6 -12.5t-6 -12.5q-30 0 -113 2t-136 2q-54 0 -139 -2t-115 -2q-8 0 -8 12.5t8 12.5q97 0 130 26t48 115l45 262h-187q-15 0 -15 30.5 t15 30.5h197l16 93h-188q-13 0 -13 29.5t13 29.5h182l-198 469q-32 75 -66.5 110t-75.5 35q-7 0 -7 12.5z" />
<glyph unicode="&#xa6;" horiz-adv-x="311" d="M-12 -315l131 757q2 9 25 11t44.5 -3t20.5 -14l-135 -760q-1 -9 -23 -10.5t-43 4.5t-20 15zM174 737l133 760q1 9 23.5 10.5t44 -4t20.5 -14.5l-135 -758q-1 -9 -23 -11t-43 3t-20 14z" />
<glyph unicode="&#xa7;" horiz-adv-x="835" d="M88 -326l43 252q0 4 10.5 4t12.5 -4q37 -117 64 -165q55 -95 134 -95q93 0 113 125q9 57 -7.5 108t-49.5 90t-74 77t-81.5 76.5t-72.5 80t-47 96t-4 115.5q23 138 195 281q-81 98 -56 227q24 115 121.5 172t237.5 57q99 0 166 -26q17 -10 14 -33l-43 -252q0 -6 -10 -6 t-11 6q-38 117 -67 166q-56 92 -133 92q-91 0 -111 -125q-9 -56 7 -107t49 -90.5t74 -77.5t81.5 -76.5t72.5 -80t46.5 -95t3.5 -114.5q-22 -136 -195 -282q82 -95 56 -226q-24 -115 -121 -172t-238 -57q-104 0 -166 27q-16 12 -14 32zM300 408q10 -58 40.5 -103t58.5 -73.5 t76 -69t70 -62.5q34 63 47 150q7 35 5 69.5t-5.5 60.5t-14.5 52.5t-22 46t-28.5 40.5t-32.5 37t-35.5 34t-37 32t-36.5 31.5t-35 32.5q-36 -62 -49 -149q-11 -71 -1 -129z" />
<glyph unicode="&#xa8;" horiz-adv-x="563" d="M125 1063q0 49 29 76.5t82 27.5q50 0 77 -27.5t27 -76.5q0 -54 -27 -83.5t-77 -29.5q-53 0 -82 29.5t-29 83.5zM451 1063q0 50 29 77t81 27q50 0 77.5 -27.5t27.5 -76.5q0 -54 -27.5 -83.5t-77.5 -29.5q-53 0 -81.5 29.5t-28.5 83.5z" />
<glyph unicode="&#xa9;" horiz-adv-x="1488" d="M129 383q0 113 39 215t108 179.5t158.5 135t194.5 87.5t213 30q120 0 222.5 -39.5t171 -106t106.5 -153.5t38 -182q0 -90 -40 -174.5t-109.5 -150t-172.5 -105t-220 -39.5q-98 0 -173 27.5t-117.5 74.5t-63.5 101.5t-21 115.5q0 80 31.5 147t83 109.5t115 66t130.5 23.5 q88 0 154.5 -31.5t66.5 -92.5q0 -86 -88 -86q-32 0 -52 19t-38 54q-12 22 -19 33t-20 26t-30 22t-39 7q-64 0 -86.5 -53t-22.5 -172q0 -69 17 -127.5t52 -105.5t94 -74t136 -27q119 0 207 96t88 250q0 209 -136 354.5t-339 145.5q-114 0 -207.5 -44t-154 -119t-93 -174 t-32.5 -210q0 -266 155 -423.5t416 -157.5q107 0 196.5 23t182.5 81q7 4 13 -7q4 -6 -1 -9q-115 -91 -229 -125.5t-236 -34.5q-132 0 -249 41t-206.5 115.5t-141.5 189.5t-52 254z" />
<glyph unicode="&#xaa;" horiz-adv-x="565" d="M82.5 625.5q1.5 15.5 5.5 15.5h463q9 0 9 -30.5t-9 -30.5h-461q-5 0 -7 15t-0.5 30.5zM113 901q13 85 69.5 177.5t135 155t147.5 62.5q57 0 92 -32q24 17 39 41q4 4 10 1.5t6 -6.5l-80 -428q-12 -61 17 -61q21 0 84 66q2 2 6.5 -1.5t8 -8.5t1.5 -7q-92 -115 -166 -115 q-80 0 -59 127l8 56q-50 -94 -114 -141.5t-125 -47.5q-47 0 -69 40t-11 122zM229 869q12 -38 43 -38q51 0 104 72t79 156l2 16l2 2l6 29q12 59 -6 92t-60 33q-59 0 -104 -63t-64 -164q-14 -97 -2 -135z" />
<glyph unicode="&#xab;" horiz-adv-x="888" d="M83 409.5q2 14.5 13 24.5l418 311q4 2 9.5 -1t8.5 -7.5t0 -7.5l-225 -317l115 -316q4 -7 -7 -14q-6 -5 -9 0l-318 305q-7 8 -5 22.5zM384.5 410q1.5 14 12.5 24l420 311q3 2 9 -1t8.5 -7.5t-0.5 -7.5l-226 -317l115 -316q5 -7 -6 -14q-7 -5 -10 0l-316 305q-8 9 -6.5 23z " />
<glyph unicode="&#xac;" horiz-adv-x="833" d="M73.5 531.5q1.5 23.5 6.5 23.5h678v-387q0 -6 -24 -8t-48 -0.5t-24 6.5v295h-580q-6 0 -8 23.5t-0.5 47z" />
<glyph unicode="&#xad;" horiz-adv-x="577" d="M56 411.5q0 23.5 3 28.5l439 72q6 1 10 -24.5t4 -52t-6 -27.5l-436 -72q-6 -1 -10 25.5t-4 50z" />
<glyph unicode="&#xae;" horiz-adv-x="1538" d="M213 858q0 142 56 261.5t150.5 198.5t217.5 123t258 44q267 0 430.5 -159t163.5 -402q0 -131 -51.5 -250t-139.5 -204.5t-211 -136t-260 -50.5q-158 0 -297 69t-228 202.5t-89 303.5zM340 934q0 -173 75 -310t204 -212.5t286 -75.5q220 0 334.5 143.5t114.5 376.5 q0 272 -148 426t-389 154q-122 0 -216 -41t-150 -111.5t-83.5 -159t-27.5 -190.5zM517.5 579q0.5 5 2.5 11t4 6q43 0 57.5 15.5t24.5 76.5l76 440q12 56 3.5 73.5t-50.5 17.5q-2 1 -2 6.5t2 11.5t4 6q20 0 69.5 -1t73.5 -1q26 0 87 3t83 3q105 0 150.5 -33.5t30.5 -107.5 q-20 -116 -144 -170q45 -151 90 -226.5t113 -119.5q4 -2 3.5 -9.5t-5.5 -7.5h-201q-34 0 -125 328q-50 -4 -78 -4l-36 -209q-10 -61 1.5 -76.5t67.5 -15.5q2 -1 2 -6t-2 -11t-4 -6q-18 0 -67.5 1t-81.5 1q-25 0 -78 -1t-68 -1q-3 1 -2.5 6zM793 928q92 -6 131 23.5t53 113.5 q32 156 -62 156q-44 0 -60.5 -15.5t-27.5 -81.5z" />
<glyph unicode="&#xaf;" horiz-adv-x="681" d="M195 1010q0 41 20 41h467q14 0 19.5 -20.5t0 -41t-19.5 -20.5h-467q-20 0 -20 41z" />
<glyph unicode="&#xb0;" horiz-adv-x="612" d="M141.5 977q-1.5 40 3.5 78q20 96 109 165.5t209 69.5q56 0 100 -17.5t69.5 -46.5t42 -66.5t17.5 -78t-4 -80.5q-20 -104 -108 -170.5t-203 -66.5q-57 0 -102 18.5t-71.5 48t-43.5 68t-18.5 78.5zM318.5 883q20.5 -78 82.5 -78q92 0 113 182q38 264 -74 264 q-92 0 -121 -190q-21 -100 -0.5 -178z" />
<glyph unicode="&#xb1;" horiz-adv-x="815" d="M61.5 68q1.5 22 6.5 22h677q9 0 9 -44t-9 -44h-675q-6 0 -8 22t-0.5 44zM61.5 541q1.5 24 6.5 24h290v291q0 9 48.5 9t48.5 -9v-291h290q9 0 9 -48t-9 -48h-290v-289q0 -6 -24.5 -8t-48.5 -0.5t-24 6.5v291h-288q-6 0 -8 24t-0.5 48z" />
<glyph unicode="&#xb2;" horiz-adv-x="479" d="M121 831.5q-2 6.5 2 16.5q31 79 73.5 142.5t80 102.5t71.5 74t57 74.5t29 87.5q10 107 -63 107q-38 0 -76.5 -31t-58.5 -80q-4 -5 -10 -5.5t-11.5 4t-3.5 9.5q76 160 217 160q80 0 116 -46t23 -118q-8 -41 -32 -78.5t-55.5 -64t-69.5 -55.5t-72.5 -54t-66 -59t-48.5 -70 q159 0 218.5 19t68.5 71q1 6 7 6.5t11 -3t4 -9.5l-38 -205q0 -5 -3 -3q-1 1 -2 1h-360q-6 0 -8 6.5z" />
<glyph unicode="&#xb3;" horiz-adv-x="479" d="M141 954q0 6 11.5 8.5t13.5 -4.5q1 -41 30.5 -65.5t69.5 -24.5q44 0 80 36t47 106q18 101 -24 151q-20 -10 -70 -26q-10 -5 -15 9q-3 8 1 9q135 56 139 168q6 96 -70 96q-38 0 -63.5 -22t-46.5 -62q-4 -11 -18 -6q-7 4 -5 10q65 156 203 156q74 0 117 -40t34 -103 q-17 -102 -159 -168q61 -24 95 -74t24 -111q-12 -76 -82 -130t-158 -54q-71 0 -111.5 38t-42.5 103z" />
<glyph unicode="&#xb4;" horiz-adv-x="434" d="M223 975l154 491q4 19 105 30q96 11 101 -3q0 -2 -1 -4l-338 -520q-4 -8 -18 -1q-6 4 -3 7z" />
<glyph unicode="&#xb6;" horiz-adv-x="1216" d="M163.5 578q-16.5 91 4.5 213q46 243 210.5 369t412.5 126q39 0 127.5 -6t144.5 -6q36 0 106 3t99 3q9 0 9 -12.5t-9 -12.5q-80 0 -133 -43t-66 -122l-170 -977q-47 -262 -148.5 -385t-261.5 -123q-83 0 -124 29t-35 83q12 80 92 80q32 0 49 -14.5t22 -34.5t9.5 -40.5 t19 -35t41.5 -14.5q40 0 55.5 45t49.5 236q9 49 14 77l43 240q-74 -6 -162 -6q-70 0 -132.5 17t-121 56t-94 101.5t-52 153.5z" />
<glyph unicode="&#xb7;" horiz-adv-x="428" d="M111 453q0 51 31 80.5t85 29.5t83.5 -29.5t29.5 -80.5q0 -56 -29.5 -86.5t-83.5 -30.5t-85 31t-31 86z" />
<glyph unicode="&#xb8;" horiz-adv-x="401" d="M-156 -455q4 34 29 52t57 18q34 0 53.5 -21.5t25 -48t20.5 -48t41 -21.5q46 0 53 49q3 34 -24.5 79t-80.5 113q-16 21 -15 50t9.5 50t28.5 60l59 123h33q-7 -15 -10.5 -29t-6 -25t-0.5 -24.5t2 -21t6.5 -21t8.5 -18.5t12 -19.5t12 -17.5t14.5 -19t14.5 -18 q42 -54 58.5 -93t9.5 -77q-11 -66 -75 -123t-171 -57q-75 0 -123 30t-41 78z" />
<glyph unicode="&#xb9;" horiz-adv-x="495" d="M152 836.5q0 11.5 6 11.5q81 0 102.5 21.5t38.5 119.5l43 242q17 95 -6 118t-98 -14q-6 -3 -10 2t-4 10.5t3 8.5l281 141q8 4 14.5 -0.5t3.5 -11.5l-86 -496q-6 -36 -8 -56t-0.5 -38t6 -25.5t17 -13.5t27.5 -7t42 -1q8 0 8 -11.5t-8 -11.5q-22 0 -80 2t-96 2 q-37 0 -102 -2t-88 -2q-6 0 -6 11.5z" />
<glyph unicode="&#xba;" horiz-adv-x="550" d="M91.5 625.5q1.5 15.5 6.5 15.5h453q9 0 9 -30.5t-9 -30.5h-451q-6 0 -8 15t-0.5 30.5zM135 876.5q-12 63.5 2 141.5q22 120 103.5 196t187.5 76q109 0 155.5 -77.5t22.5 -198.5q-24 -131 -109.5 -206t-185.5 -75q-71 0 -117.5 40t-58.5 103.5zM264 1073q-22 -127 3 -214 t87 -87q88 0 125 184q24 121 -3 209t-91 88q-41 0 -73 -44t-48 -136z" />
<glyph unicode="&#xbb;" horiz-adv-x="886" d="M59 94l226 316l-115 315q-4 7 7 14q6 5 9 0l318 -305q7 -8 5 -22.5t-13 -24.5l-420 -311q-5 -3 -13 4.5t-4 13.5zM362 94l226 316l-117 315q-2 4 1.5 9t8.5 6.5t8 -1.5l316 -305q8 -8 6.5 -22.5t-14.5 -24.5l-418 -311q-6 -3 -14.5 4.5t-2.5 13.5z" />
<glyph unicode="&#xbc;" horiz-adv-x="1142" d="M115 644q0 11 6 11q81 0 102.5 22t38.5 120l43 241q17 95 -6 118.5t-98 -13.5q-6 -3 -10 1.5t-4 10t3 8.5l281 142q7 4 14 -0.5t4 -12.5l-86 -495q-6 -36 -8 -56t-0.5 -38t6 -25.5t17 -14t27.5 -7.5t42 -1q7 0 7 -11t-7 -11q-22 0 -80 2t-96 2q-37 0 -102 -2t-88 -2 q-6 0 -6 11zM272 18l693 1266q3 5 19.5 -1.5t30 -16.5t9.5 -15l-692 -1263q-1 -2 -8 0t-16 6t-17.5 9t-14 9t-4.5 6zM636.5 197q-0.5 3 2.5 6l397 471q5 6 20.5 -1t14.5 -16l-67 -405q12 1 34.5 2t34.5 2q3 -3 2.5 -20.5t-4 -37.5t-6.5 -20q-46 4 -72 4l-16 -98 q-8 -41 1 -52.5t58 -11.5q9 0 9 -12t-9 -12q-19 0 -61.5 2t-71.5 2q-34 0 -89 -2t-75 -2q-9 0 -9 12t9 12q59 0 77.5 11.5t25.5 52.5l18 104q-63 2 -219 2q-1 0 -2.5 2t-2 5zM739 250q-9 -6 4 -6q88 0 127 2l37 213z" />
<glyph unicode="&#xbd;" horiz-adv-x="1173" d="M115 644q0 11 6 11q81 0 102.5 22t38.5 120l43 241q17 95 -6 118.5t-98 -13.5q-6 -3 -10 1.5t-4 10t3 8.5l281 142q7 4 14 -0.5t4 -12.5l-86 -495q-6 -36 -8 -56t-0.5 -38t6 -25.5t17 -14t27.5 -7.5t42 -1q7 0 7 -11t-7 -11q-22 0 -80 2t-96 2q-37 0 -102 -2t-88 -2 q-6 0 -6 11zM272 18l693 1266q3 5 19.5 -1.5t30 -16.5t9.5 -15l-692 -1263q-1 -2 -8 0t-16 6t-17.5 9t-14 9t-4.5 6zM672 6q-2 6 2 17q31 79 73.5 142.5t80 102.5t71.5 74t57 74.5t29 87.5q10 106 -63 106q-38 0 -77 -31t-59 -79q-4 -5 -10 -5.5t-11 4t-3 9.5 q76 160 217 160q80 0 116 -46t23 -118q-8 -41 -32 -78.5t-55.5 -64t-69.5 -55.5t-72.5 -54t-66 -59t-48.5 -70q159 0 218.5 19t68.5 71q1 6 7 6.5t11 -3t4 -9.5l-39 -205q-1 -3 -2 -3l-2 1h-360q-6 0 -8 6z" />
<glyph unicode="&#xbe;" horiz-adv-x="1126" d="M104 762q0 6 12 8.5t13 -4.5q1 -41 30.5 -65.5t69.5 -24.5q45 0 80.5 35.5t46.5 105.5q18 101 -24 152q-26 -13 -70 -27q-10 -5 -15 9q-2 8 1 10q135 56 139 167q6 97 -70 97q-38 0 -63.5 -22t-46.5 -62q-4 -11 -18 -6q-7 4 -5 10q65 155 203 155q74 0 117.5 -40 t34.5 -103q-17 -101 -160 -168q61 -24 95 -73.5t24 -110.5q-12 -76 -82 -130t-158 -54q-71 0 -111.5 38t-42.5 103zM256 18l692 1266q3 5 19.5 -1.5t30.5 -16.5t10 -15l-693 -1263q-1 -2 -8 0t-16 6t-17.5 9t-13.5 9t-4 6zM620.5 197q-0.5 3 2.5 6l397 471q5 6 20.5 -1 t14.5 -16l-68 -405q12 1 35 2t35 2q3 -3 2.5 -20.5t-4 -37.5t-6.5 -20q-46 4 -72 4l-16 -98q-8 -41 1 -52.5t58 -11.5q9 0 9 -12t-9 -12q-19 0 -61.5 2t-71.5 2q-34 0 -89 -2t-75 -2q-9 0 -9 12t9 12q58 0 76 11.5t26 52.5l19 104q-63 2 -219 2q-1 0 -2.5 2t-2 5zM723 250 q-9 -6 4 -6q88 0 127 2l37 213z" />
<glyph unicode="&#xbf;" horiz-adv-x="669" d="M-31 -317q4 19 10.5 38t12 33.5t17.5 32t18 28t23 28t22.5 24t25.5 24l24 21t27 22.5t25 21q95 72 135 126.5t51 125.5q7 58 -4 117q-1 9 13.5 14.5t17.5 -2.5q42 -54 64 -126t16 -118q-9 -55 -40.5 -100t-70.5 -77.5t-78.5 -66t-71 -82t-40.5 -108.5q-4 -44 -1 -84 t22 -68t51 -28q55 0 63 82q11 125 111 125q54 0 77 -33t13 -78q-13 -66 -95.5 -101.5t-185.5 -35.5q-132 0 -202.5 63t-49.5 183zM293 616q0 56 29.5 86.5t83.5 30.5t85 -31t31 -86q0 -51 -31 -80.5t-85 -29.5t-83.5 29.5t-29.5 80.5z" />
<glyph unicode="&#xc0;" horiz-adv-x="1239" d="M-78 12.5q0 12.5 8 12.5q58 0 135.5 65.5t145.5 188.5l571 1019q5 7 20 5.5t17 -7.5l223 -1124q9 -50 14.5 -72t19.5 -42.5t36.5 -26.5t61.5 -6q8 0 8 -12.5t-8 -12.5q-34 0 -108.5 4t-119.5 4t-114 -4t-103 -4q-7 0 -7 12.5t7 12.5q78 0 101.5 31t5.5 116l-88 432h-295 l-187 -340q-70 -128 -45.5 -183.5t150.5 -55.5q5 0 6.5 -6.5t-0.5 -12.5t-8 -6q-28 0 -115.5 4t-134.5 4q-41 0 -98 -4t-91 -4q-8 0 -8 12.5zM485 662h252l-67 335zM584 1548q-30 8 34 34q85 35 159 43q29 3 34 -3q28 -32 54.5 -58.5t64 -62t67.5 -65.5q3 -4 1 -9.5t-8.5 -9 t-12.5 -0.5q-168 65 -393 131z" />
<glyph unicode="&#xc1;" horiz-adv-x="1239" d="M-78 12.5q0 12.5 8 12.5q58 0 135.5 65.5t145.5 188.5l571 1019q5 7 20 5.5t17 -7.5l223 -1124q9 -50 14.5 -72t19.5 -42.5t36.5 -26.5t61.5 -6q8 0 8 -12.5t-8 -12.5q-34 0 -108.5 4t-119.5 4t-114 -4t-103 -4q-7 0 -7 12.5t7 12.5q78 0 101.5 31t5.5 116l-88 432h-295 l-187 -340q-70 -128 -45.5 -183.5t150.5 -55.5q5 0 6.5 -6.5t-0.5 -12.5t-8 -6q-28 0 -115.5 4t-134.5 4q-41 0 -98 -4t-91 -4q-8 0 -8 12.5zM485 662h252l-67 335zM673.5 1402.5q0.5 5.5 4.5 8.5q58 42 154 125t102 88q17 14 125 -24q92 -32 92 -47q0 -4 -8 -5 q-223 -55 -455 -157q-6 -3 -10.5 1.5t-4 10z" />
<glyph unicode="&#xc2;" horiz-adv-x="1239" d="M-78 12.5q0 12.5 8 12.5q58 0 135.5 65.5t145.5 188.5l571 1019q5 7 20 5.5t17 -7.5l223 -1124q9 -50 14.5 -72t19.5 -42.5t36.5 -26.5t61.5 -6q8 0 8 -12.5t-8 -12.5q-34 0 -108.5 4t-119.5 4t-114 -4t-103 -4q-7 0 -7 12.5t7 12.5q78 0 101.5 31t5.5 116l-88 432h-295 l-187 -340q-70 -128 -45.5 -183.5t150.5 -55.5q5 0 6.5 -6.5t-0.5 -12.5t-8 -6q-28 0 -115.5 4t-134.5 4q-41 0 -98 -4t-91 -4q-8 0 -8 12.5zM485 662h252l-67 335zM584.5 1359q-1.5 4 1.5 7l237 236q7 9 19 9t18 -9l170 -236q3 -3 1 -7.5t-6.5 -6.5t-8.5 0l-193 78 l-225 -78q-3 -2 -7.5 0.5t-6 6.5z" />
<glyph unicode="&#xc3;" horiz-adv-x="1239" d="M-78 12.5q0 12.5 8 12.5q58 0 135.5 65.5t145.5 188.5l571 1019q5 7 20 5.5t17 -7.5l223 -1124q9 -50 14.5 -72t19.5 -42.5t36.5 -26.5t61.5 -6q8 0 8 -12.5t-8 -12.5q-34 0 -108.5 4t-119.5 4t-114 -4t-103 -4q-7 0 -7 12.5t7 12.5q78 0 101.5 31t5.5 116l-88 432h-295 l-187 -340q-70 -128 -45.5 -183.5t150.5 -55.5q5 0 6.5 -6.5t-0.5 -12.5t-8 -6q-28 0 -115.5 4t-134.5 4q-41 0 -98 -4t-91 -4q-8 0 -8 12.5zM485 662h252l-67 335zM547 1419q21 32 36.5 52.5t43.5 51t60 46.5t65 16q23 0 110 -25.5t135 -25.5q45 0 72.5 12t58.5 43 q3 3 10.5 -3.5t4.5 -10.5q-62 -100 -102 -133t-93 -33q-35 0 -122 25.5t-134 25.5q-16 0 -28.5 -0.5t-24 -4.5t-17.5 -5t-17 -9t-13 -9.5t-15.5 -13t-15.5 -13.5t-6 -0.5t-7 6t-1 8.5z" />
<glyph unicode="&#xc4;" horiz-adv-x="1239" d="M-78 12.5q0 12.5 8 12.5q58 0 135.5 65.5t145.5 188.5l571 1019q5 7 20 5.5t17 -7.5l223 -1124q9 -50 14.5 -72t19.5 -42.5t36.5 -26.5t61.5 -6q8 0 8 -12.5t-8 -12.5q-34 0 -108.5 4t-119.5 4t-114 -4t-103 -4q-7 0 -7 12.5t7 12.5q78 0 101.5 31t5.5 116l-88 432h-295 l-187 -340q-70 -128 -45.5 -183.5t150.5 -55.5q5 0 6.5 -6.5t-0.5 -12.5t-8 -6q-28 0 -115.5 4t-134.5 4q-41 0 -98 -4t-91 -4q-8 0 -8 12.5zM485 662h252l-67 335zM565 1552q0 50 29.5 77.5t81.5 27.5q49 0 76.5 -27.5t27.5 -77.5q0 -54 -27 -83t-77 -29q-53 0 -82 29 t-29 83zM891 1552q0 50 29 77.5t81 27.5q49 0 77 -27.5t28 -77.5q0 -54 -27.5 -83t-77.5 -29q-53 0 -81.5 29t-28.5 83z" />
<glyph unicode="&#xc5;" horiz-adv-x="1239" d="M-78 12.5q0 12.5 8 12.5q58 0 135.5 65.5t145.5 188.5l571 1019q5 7 20 5.5t17 -7.5l223 -1124q9 -50 14.5 -72t19.5 -42.5t36.5 -26.5t61.5 -6q8 0 8 -12.5t-8 -12.5q-34 0 -108.5 4t-119.5 4t-114 -4t-103 -4q-7 0 -7 12.5t7 12.5q78 0 101.5 31t5.5 116l-88 432h-295 l-187 -340q-70 -128 -45.5 -183.5t150.5 -55.5q5 0 6.5 -6.5t-0.5 -12.5t-8 -6q-28 0 -115.5 4t-134.5 4q-41 0 -98 -4t-91 -4q-8 0 -8 12.5zM485 662h252l-67 335zM584 1516q0 49 37 86t90 54t110 17q91 0 155 -47.5t64 -116.5q0 -71 -72 -114t-165 -43q-100 0 -159.5 48.5 t-59.5 115.5zM733 1554q0 -66 27.5 -120t73.5 -54q29 0 42 22.5t13 72.5q0 68 -32.5 119t-76.5 51q-47 0 -47 -91z" />
<glyph unicode="&#xc6;" horiz-adv-x="1581" d="M-124 12.5q0 12.5 9 12.5q85 0 164 53t176 198l617 906q33 55 18 64t-122 9h-4.5h-4h-4.5h-4q-9 0 -9 12.5t9 12.5h835q16 0 13 -18l-43 -275q-2 -7 -13.5 -5t-11.5 7q-9 120 -80.5 191t-183.5 71h-37q-52 0 -80 -34t-37 -105l-53 -418h182q92 0 143.5 36.5t69.5 119.5 q1 6 7.5 7.5t12.5 -1t5 -8.5q-13 -80 -35 -182q-8 -38 -17.5 -107t-15.5 -104q-1 -6 -7.5 -7t-12 1.5t-4.5 7.5q15 88 -28 134t-132 46h-174l-59 -463q-11 -87 6.5 -112t91.5 -25h27q105 0 205.5 78t168.5 211q2 4 8 4t11 -2.5t4 -5.5q-31 -92 -70 -291q-3 -18 -9.5 -24.5 t-23.5 -6.5h-763q-9 0 -9 12.5t9 12.5q76 0 102.5 26.5t36.5 114.5l61 471h-276l-266 -385q-65 -94 -31.5 -160.5t145.5 -66.5q9 0 8 -12.5t-8 -12.5q-35 0 -149 4t-162 4q-45 0 -104 -4t-93 -4q-9 0 -9 12.5zM584 694h243l58 434z" />
<glyph unicode="&#xc7;" horiz-adv-x="1204" d="M109.5 510.5q1.5 64.5 13.5 130.5q28 154 104 281t181.5 209t230.5 127t254 45q82 0 169.5 -17.5t135.5 -42.5q13 -7 15.5 -15.5t0.5 -31.5l-32 -274q0 -6 -11 -6t-12 6q-36 154 -127 239.5t-223 85.5q-178 0 -300 -143t-157 -395q-26 -186 3 -344t111 -253.5t202 -95.5 q203 0 434 312q4 5 9.5 4.5t9.5 -4t3 -6.5l-55 -236q-6 -26 -12.5 -34.5t-24.5 -12.5q-184 -64 -373 -64q-4 -14 -6.5 -26.5t-1 -25t2 -21.5t6.5 -22t8.5 -18.5t12.5 -19.5l12.5 -17.5t15 -19.5t14.5 -18q42 -54 58.5 -93t9.5 -77q-11 -66 -75 -123t-171 -57q-75 0 -123 30 t-41 78q4 34 29 52t57 18q28 0 45.5 -14.5t25 -34.5t14 -40.5t19.5 -35t35 -14.5q46 0 53 49q3 34 -24.5 79.5t-79.5 112.5q-16 21 -15 50t9.5 50t28.5 60l47 98q-96 3 -175 26t-134.5 60t-97 88t-65 108.5t-34.5 123t-9.5 130z" />
<glyph unicode="&#xc8;" horiz-adv-x="1087" d="M35 12.5q0 12.5 6 12.5q82 0 108 25t44 116l165 948q17 87 -2.5 114t-97.5 27q-4 0 -4 12.5t4 12.5h805q15 0 12 -18l-43 -275q-2 -7 -13 -5t-11 7q-7 114 -79.5 181t-185.5 67h-36q-84 0 -108 -22t-38 -103l-74 -418h232q93 0 143.5 36t69.5 120q1 6 7.5 7.5t12 -1 t4.5 -8.5q-8 -52 -20 -112.5t-14 -69.5q-6 -32 -16 -100.5t-17 -110.5q-1 -6 -7.5 -7t-12.5 1.5t-5 7.5q15 88 -27.5 134t-131.5 46h-228l-82 -463q-13 -82 5.5 -106.5t93.5 -24.5h53q120 0 234.5 77t189.5 206q4 8 18 2q4 -3 4 -6q-32 -103 -69 -291q-3 -18 -9.5 -24.5 t-23.5 -6.5h-850q-6 0 -6 12.5zM510 1548q-30 8 34 34q85 35 159 43q29 3 34 -3q28 -32 55 -58.5t64.5 -62t67.5 -65.5q3 -4 0.5 -9.5t-9 -9t-12.5 -0.5q-168 65 -393 131z" />
<glyph unicode="&#xc9;" horiz-adv-x="1087" d="M35 12.5q0 12.5 6 12.5q82 0 108 25t44 116l165 948q17 87 -2.5 114t-97.5 27q-4 0 -4 12.5t4 12.5h805q15 0 12 -18l-43 -275q-2 -7 -13 -5t-11 7q-7 114 -79.5 181t-185.5 67h-36q-84 0 -108 -22t-38 -103l-74 -418h232q93 0 143.5 36t69.5 120q1 6 7.5 7.5t12 -1 t4.5 -8.5q-8 -52 -20 -112.5t-14 -69.5q-6 -32 -16 -100.5t-17 -110.5q-1 -6 -7.5 -7t-12.5 1.5t-5 7.5q15 88 -27.5 134t-131.5 46h-228l-82 -463q-13 -82 5.5 -106.5t93.5 -24.5h53q120 0 234.5 77t189.5 206q4 8 18 2q4 -3 4 -6q-32 -103 -69 -291q-3 -18 -9.5 -24.5 t-23.5 -6.5h-850q-6 0 -6 12.5zM599.5 1402.5q0.5 5.5 4.5 8.5q58 42 154 125t102 88q17 14 125 -24q92 -32 92 -47q0 -4 -8 -5q-223 -55 -455 -157q-6 -3 -10.5 1.5t-4 10z" />
<glyph unicode="&#xca;" horiz-adv-x="1087" d="M35 12.5q0 12.5 6 12.5q82 0 108 25t44 116l165 948q17 87 -2.5 114t-97.5 27q-4 0 -4 12.5t4 12.5h805q15 0 12 -18l-43 -275q-2 -7 -13 -5t-11 7q-7 114 -79.5 181t-185.5 67h-36q-84 0 -108 -22t-38 -103l-74 -418h232q93 0 143.5 36t69.5 120q1 6 7.5 7.5t12 -1 t4.5 -8.5q-8 -52 -20 -112.5t-14 -69.5q-6 -32 -16 -100.5t-17 -110.5q-1 -6 -7.5 -7t-12.5 1.5t-5 7.5q15 88 -27.5 134t-131.5 46h-228l-82 -463q-13 -82 5.5 -106.5t93.5 -24.5h53q120 0 234.5 77t189.5 206q4 8 18 2q4 -3 4 -6q-32 -103 -69 -291q-3 -18 -9.5 -24.5 t-23.5 -6.5h-850q-6 0 -6 12.5zM510.5 1359q-1.5 4 1.5 7l238 236q8 9 19 9t17 -9l170 -236q3 -3 1 -7.5t-6.5 -6.5t-8.5 0l-192 78l-226 -78q-3 -2 -7.5 0.5t-6 6.5z" />
<glyph unicode="&#xcb;" horiz-adv-x="1087" d="M35 12.5q0 12.5 6 12.5q82 0 108 25t44 116l165 948q17 87 -2.5 114t-97.5 27q-4 0 -4 12.5t4 12.5h805q15 0 12 -18l-43 -275q-2 -7 -13 -5t-11 7q-7 114 -79.5 181t-185.5 67h-36q-84 0 -108 -22t-38 -103l-74 -418h232q93 0 143.5 36t69.5 120q1 6 7.5 7.5t12 -1 t4.5 -8.5q-8 -52 -20 -112.5t-14 -69.5q-6 -32 -16 -100.5t-17 -110.5q-1 -6 -7.5 -7t-12.5 1.5t-5 7.5q15 88 -27.5 134t-131.5 46h-228l-82 -463q-13 -82 5.5 -106.5t93.5 -24.5h53q120 0 234.5 77t189.5 206q4 8 18 2q4 -3 4 -6q-32 -103 -69 -291q-3 -18 -9.5 -24.5 t-23.5 -6.5h-850q-6 0 -6 12.5zM492 1552q0 50 29 77.5t81 27.5q50 0 77.5 -27.5t27.5 -77.5q0 -54 -27.5 -83t-77.5 -29q-53 0 -81.5 29t-28.5 83zM817 1552q0 50 29.5 77.5t81.5 27.5q49 0 76.5 -27.5t27.5 -77.5q0 -54 -27 -83t-77 -29q-53 0 -82 29t-29 83z" />
<glyph unicode="&#xcc;" horiz-adv-x="688" d="M45 12.5q0 12.5 6 12.5q81 0 108 25.5t42 115.5l168 948q17 86 -4 113.5t-99 27.5q-6 0 -6 12.5t6 12.5q27 0 103.5 -3t122.5 -3q53 0 129.5 3t101.5 3q6 0 6 -12.5t-6 -12.5q-81 0 -108 -27.5t-42 -117.5l-167 -944q-17 -89 2.5 -115t99.5 -26q4 0 4 -12.5t-4 -12.5 q-27 0 -103 2t-126 2q-46 0 -123.5 -2t-104.5 -2q-6 0 -6 12.5zM287 1548q-30 8 34 34q85 35 159 43q29 3 34 -3q28 -32 54.5 -58.5t64 -62t67.5 -65.5q3 -4 1 -9.5t-8.5 -9t-12.5 -0.5q-168 65 -393 131z" />
<glyph unicode="&#xcd;" horiz-adv-x="688" d="M45 12.5q0 12.5 6 12.5q81 0 108 25.5t42 115.5l168 948q17 86 -4 113.5t-99 27.5q-6 0 -6 12.5t6 12.5q27 0 103.5 -3t122.5 -3q53 0 129.5 3t101.5 3q6 0 6 -12.5t-6 -12.5q-81 0 -108 -27.5t-42 -117.5l-167 -944q-17 -89 2.5 -115t99.5 -26q4 0 4 -12.5t-4 -12.5 q-27 0 -103 2t-126 2q-46 0 -123.5 -2t-104.5 -2q-6 0 -6 12.5zM376.5 1402.5q0.5 5.5 4.5 8.5q58 42 154 125t102 88q17 14 125 -24q92 -32 92 -47q0 -4 -8 -5q-223 -55 -455 -157q-6 -3 -10.5 1.5t-4 10z" />
<glyph unicode="&#xce;" horiz-adv-x="688" d="M45 12.5q0 12.5 6 12.5q81 0 108 25.5t42 115.5l168 948q17 86 -4 113.5t-99 27.5q-6 0 -6 12.5t6 12.5q27 0 103.5 -3t122.5 -3q53 0 129.5 3t101.5 3q6 0 6 -12.5t-6 -12.5q-81 0 -108 -27.5t-42 -117.5l-167 -944q-17 -89 2.5 -115t99.5 -26q4 0 4 -12.5t-4 -12.5 q-27 0 -103 2t-126 2q-46 0 -123.5 -2t-104.5 -2q-6 0 -6 12.5zM287.5 1359q-1.5 4 1.5 7l237 236q8 9 19.5 9t17.5 -9l170 -236q3 -3 1 -7.5t-6.5 -6.5t-8.5 0l-193 78l-225 -78q-3 -2 -7.5 0.5t-6 6.5z" />
<glyph unicode="&#xcf;" horiz-adv-x="688" d="M45 12.5q0 12.5 6 12.5q81 0 108 25.5t42 115.5l168 948q17 86 -4 113.5t-99 27.5q-6 0 -6 12.5t6 12.5q27 0 103.5 -3t122.5 -3q53 0 129.5 3t101.5 3q6 0 6 -12.5t-6 -12.5q-81 0 -108 -27.5t-42 -117.5l-167 -944q-17 -89 2.5 -115t99.5 -26q4 0 4 -12.5t-4 -12.5 q-27 0 -103 2t-126 2q-46 0 -123.5 -2t-104.5 -2q-6 0 -6 12.5zM276 1552q0 49 31 78t82 29q50 0 77.5 -28.5t27.5 -78.5q0 -54 -27 -83t-78 -29q-52 0 -82.5 29.5t-30.5 82.5zM596 1552q0 50 27 77.5t79 27.5q50 0 77.5 -27.5t27.5 -77.5q0 -54 -27.5 -83t-77.5 -29 q-106 0 -106 112z" />
<glyph unicode="&#xd0;" horiz-adv-x="1251" d="M21 12.5q0 12.5 6 12.5q82 0 109 25.5t44 115.5l78 442h-117q-9 0 -9 29t9 29h127l80 448q15 88 -4.5 114.5t-97.5 26.5q-4 0 -4 12.5t4 12.5q28 0 105.5 -3t125.5 -3q38 0 119 5t119 5q195 0 333.5 -78.5t197.5 -220.5t26 -323q-35 -196 -153 -351.5t-277.5 -237 t-327.5 -81.5q-31 0 -123.5 6t-136.5 6q-49 0 -124.5 -2t-102.5 -2q-6 0 -6 12.5zM385 188q-14 -84 10.5 -119.5t110.5 -35.5q197 0 341 154t193 429q13 75 14.5 147.5t-8 144t-36 131.5t-67 106t-104 72t-143.5 26q-74 0 -104 -30t-43 -103l-80 -444h209q9 0 9 -29t-9 -29 h-219z" />
<glyph unicode="&#xd1;" d="M-10 12.5q0 12.5 6 12.5q77 0 133.5 57t73.5 156l162 897q-39 67 -76 93.5t-80 26.5q-6 0 -6 12.5t6 12.5q28 0 91.5 -2t86.5 -2q26 0 78 2t55 2q14 0 20 -8t18.5 -38.5t29.5 -59.5l469 -855l131 723q19 98 -17 155.5t-116 57.5q-6 0 -6 12.5t6 12.5q20 0 86.5 -3 t111.5 -3q38 0 105.5 3t95.5 3q4 0 4 -12.5t-4 -12.5q-77 0 -133.5 -57.5t-75.5 -155.5l-188 -1056q0 -11 -27 -14.5t-33 10.5l-589 1077l-148 -821q-17 -99 19.5 -156t115.5 -57q5 0 5 -12.5t-5 -12.5q-25 0 -89.5 2t-108.5 2q-38 0 -105.5 -2t-95.5 -2q-6 0 -6 12.5z M578 1419q21 32 36.5 52.5t43.5 51t59.5 46.5t64.5 16q23 0 110.5 -25.5t135.5 -25.5q45 0 72.5 12t58.5 43q3 3 10.5 -3.5t4.5 -10.5q-62 -100 -102 -133t-93 -33q-35 0 -122 25.5t-134 25.5q-16 0 -28.5 -0.5t-24 -4.5t-17.5 -5t-17 -9t-13 -9.5t-15.5 -13t-15.5 -13.5 t-6 -0.5t-7 6t-1 8.5z" />
<glyph unicode="&#xd2;" d="M111 430q-6 99 12 211q50 286 253.5 474t465.5 188q129 0 229.5 -51.5t158.5 -140.5t80.5 -210t-5.5 -260q-27 -151 -99.5 -278t-171.5 -211t-218 -130.5t-241 -46.5q-102 0 -186.5 34t-141.5 94.5t-93.5 144t-42.5 182.5zM337.5 534.5q-0.5 -104.5 23.5 -196.5 t63 -160.5t101 -108.5t139 -40q147 0 257 136t150 367q26 141 14.5 271t-48.5 230t-109 160t-166 60q-147 0 -257.5 -135.5t-150.5 -367.5q-16 -111 -16.5 -215.5zM610 1548q-30 8 34 34q85 35 160 43q29 3 34 -3q28 -32 54.5 -58.5t64 -62t67.5 -65.5q3 -4 1 -9.5t-8.5 -9 t-12.5 -0.5q-165 64 -394 131z" />
<glyph unicode="&#xd3;" d="M111 430q-6 99 12 211q50 286 253.5 474t465.5 188q129 0 229.5 -51.5t158.5 -140.5t80.5 -210t-5.5 -260q-27 -151 -99.5 -278t-171.5 -211t-218 -130.5t-241 -46.5q-102 0 -186.5 34t-141.5 94.5t-93.5 144t-42.5 182.5zM337.5 534.5q-0.5 -104.5 23.5 -196.5 t63 -160.5t101 -108.5t139 -40q147 0 257 136t150 367q26 141 14.5 271t-48.5 230t-109 160t-166 60q-147 0 -257.5 -135.5t-150.5 -367.5q-16 -111 -16.5 -215.5zM700.5 1402.5q0.5 5.5 4.5 8.5q58 42 154 125t102 88q17 14 124 -23q92 -33 92 -48q0 -4 -8 -5 q-220 -55 -454 -157q-6 -3 -10.5 1.5t-4 10z" />
<glyph unicode="&#xd4;" d="M111 430q-6 99 12 211q50 286 253.5 474t465.5 188q129 0 229.5 -51.5t158.5 -140.5t80.5 -210t-5.5 -260q-27 -151 -99.5 -278t-171.5 -211t-218 -130.5t-241 -46.5q-102 0 -186.5 34t-141.5 94.5t-93.5 144t-42.5 182.5zM337.5 534.5q-0.5 -104.5 23.5 -196.5 t63 -160.5t101 -108.5t139 -40q147 0 257 136t150 367q26 141 14.5 271t-48.5 230t-109 160t-166 60q-147 0 -257.5 -135.5t-150.5 -367.5q-16 -111 -16.5 -215.5zM610.5 1359q-1.5 4 1.5 7l238 236q8 9 19.5 9t17.5 -9l170 -236q3 -3 0.5 -7.5t-7 -6.5t-8.5 0l-192 78 l-225 -78q-3 -2 -8 0.5t-6.5 6.5z" />
<glyph unicode="&#xd5;" d="M111 430q-6 99 12 211q50 286 253.5 474t465.5 188q129 0 229.5 -51.5t158.5 -140.5t80.5 -210t-5.5 -260q-27 -151 -99.5 -278t-171.5 -211t-218 -130.5t-241 -46.5q-102 0 -186.5 34t-141.5 94.5t-93.5 144t-42.5 182.5zM337.5 534.5q-0.5 -104.5 23.5 -196.5 t63 -160.5t101 -108.5t139 -40q147 0 257 136t150 367q26 141 14.5 271t-48.5 230t-109 160t-166 60q-147 0 -257.5 -135.5t-150.5 -367.5q-16 -111 -16.5 -215.5zM573 1419q21 32 36.5 52.5t43.5 51t60 46.5t65 16q23 0 110.5 -25.5t135.5 -25.5q45 0 72.5 12t58.5 43 q2 2 6 -0.5t7 -6.5t1 -7q-62 -100 -101.5 -133t-92.5 -33q-35 0 -122 25.5t-134 25.5q-16 0 -28.5 -0.5t-24 -4.5t-17.5 -5t-17 -9t-13 -9.5t-15.5 -13t-15.5 -13.5t-6.5 -0.5t-7.5 6t-1 8.5z" />
<glyph unicode="&#xd6;" d="M111 430q-6 99 12 211q50 286 253.5 474t465.5 188q129 0 229.5 -51.5t158.5 -140.5t80.5 -210t-5.5 -260q-27 -151 -99.5 -278t-171.5 -211t-218 -130.5t-241 -46.5q-102 0 -186.5 34t-141.5 94.5t-93.5 144t-42.5 182.5zM337.5 534.5q-0.5 -104.5 23.5 -196.5 t63 -160.5t101 -108.5t139 -40q147 0 257 136t150 367q26 141 14.5 271t-48.5 230t-109 160t-166 60q-147 0 -257.5 -135.5t-150.5 -367.5q-16 -111 -16.5 -215.5zM592 1552q0 50 29 77.5t81 27.5q50 0 77.5 -27.5t27.5 -77.5q0 -54 -27.5 -83t-77.5 -29q-53 0 -81.5 29 t-28.5 83zM918 1552q0 50 29 77.5t81 27.5q50 0 77.5 -27.5t27.5 -77.5q0 -54 -27.5 -83t-77.5 -29q-53 0 -81.5 29t-28.5 83z" />
<glyph unicode="&#xd7;" horiz-adv-x="817" d="M133 182l205 205l-205 205q-4 5 11.5 24t34 34.5t22.5 11.5l207 -205l204 205q6 6 40 -28t28 -40l-205 -207l205 -205q4 -4 -11.5 -22t-34 -33.5t-22.5 -11.5l-204 204l-205 -204q-5 -4 -24 11.5t-34.5 33.5t-11.5 22z" />
<glyph unicode="&#xd8;" d="M55 14l146 148q-62 91 -82 214.5t4 264.5q50 286 253.5 474t465.5 188q218 0 348 -140l135 137q3 4 15.5 -3.5t22.5 -18.5t5 -16l-143 -146q64 -90 85 -211.5t-5 -263.5q-27 -151 -99.5 -278t-171.5 -211t-218 -130.5t-241 -46.5q-210 0 -337 140l-142 -144q-4 -4 -16 5 t-21 21t-4 17zM354 750q-39 -236 11 -422l679 688q-41 111 -112.5 174t-169.5 63q-147 0 -257.5 -135.5t-150.5 -367.5zM383 262q40 -108 111.5 -170.5t169.5 -62.5q147 0 257 136t150 367q41 230 -8 420z" />
<glyph unicode="&#xd9;" horiz-adv-x="1466" d="M186 381l129 733q17 87 -2.5 114t-97.5 27q-5 0 -5 12.5t5 12.5q27 0 102 -3t121 -3t125 3t105 3q6 0 6 -12.5t-6 -12.5q-80 0 -107.5 -27.5t-42.5 -117.5l-119 -657q-34 -190 36 -296t227 -106q79 0 155.5 32t171.5 107l160 920q17 88 -1.5 116.5t-96.5 28.5 q-5 0 -5 12.5t5 12.5q27 0 103 -3t122 -3q45 0 123 3t106 3q5 0 5 -12.5t-5 -12.5q-81 0 -108.5 -26t-42.5 -115l-168 -948q-17 -89 7 -115t120 -26q7 0 7 -12.5t-7 -12.5q-28 0 -89 1t-96 1q-28 0 -73.5 -1t-67.5 -1q-20 0 -23.5 6t-0.5 33l16 90q-103 -81 -200 -117.5 t-204 -36.5q-201 0 -311 110.5t-78 295.5zM655 1548q-30 8 34 34q85 35 160 43q29 3 34 -3q28 -32 54.5 -58.5t64 -62t67.5 -65.5q3 -4 1 -9.5t-8.5 -9t-12.5 -0.5q-165 64 -394 131z" />
<glyph unicode="&#xda;" horiz-adv-x="1466" d="M186 381l129 733q17 87 -2.5 114t-97.5 27q-5 0 -5 12.5t5 12.5q27 0 102 -3t121 -3t125 3t105 3q6 0 6 -12.5t-6 -12.5q-80 0 -107.5 -27.5t-42.5 -117.5l-119 -657q-34 -190 36 -296t227 -106q79 0 155.5 32t171.5 107l160 920q17 88 -1.5 116.5t-96.5 28.5 q-5 0 -5 12.5t5 12.5q27 0 103 -3t122 -3q45 0 123 3t106 3q5 0 5 -12.5t-5 -12.5q-81 0 -108.5 -26t-42.5 -115l-168 -948q-17 -89 7 -115t120 -26q7 0 7 -12.5t-7 -12.5q-28 0 -89 1t-96 1q-28 0 -73.5 -1t-67.5 -1q-20 0 -23.5 6t-0.5 33l16 90q-103 -81 -200 -117.5 t-204 -36.5q-201 0 -311 110.5t-78 295.5zM745.5 1402.5q0.5 5.5 4.5 8.5q58 42 154 125t102 88q17 14 124 -23q92 -33 92 -48q0 -4 -8 -5q-220 -55 -454 -157q-6 -3 -10.5 1.5t-4 10z" />
<glyph unicode="&#xdb;" horiz-adv-x="1466" d="M186 381l129 733q17 87 -2.5 114t-97.5 27q-5 0 -5 12.5t5 12.5q27 0 102 -3t121 -3t125 3t105 3q6 0 6 -12.5t-6 -12.5q-80 0 -107.5 -27.5t-42.5 -117.5l-119 -657q-34 -190 36 -296t227 -106q79 0 155.5 32t171.5 107l160 920q17 88 -1.5 116.5t-96.5 28.5 q-5 0 -5 12.5t5 12.5q27 0 103 -3t122 -3q45 0 123 3t106 3q5 0 5 -12.5t-5 -12.5q-81 0 -108.5 -26t-42.5 -115l-168 -948q-17 -89 7 -115t120 -26q7 0 7 -12.5t-7 -12.5q-28 0 -89 1t-96 1q-28 0 -73.5 -1t-67.5 -1q-20 0 -23.5 6t-0.5 33l16 90q-103 -81 -200 -117.5 t-204 -36.5q-201 0 -311 110.5t-78 295.5zM655.5 1359q-1.5 4 1.5 7l238 236q7 9 19 9t18 -9l170 -236q3 -3 0.5 -7.5t-7 -6.5t-8.5 0l-192 78l-225 -78q-3 -2 -8 0.5t-6.5 6.5z" />
<glyph unicode="&#xdc;" horiz-adv-x="1466" d="M186 381l129 733q17 87 -2.5 114t-97.5 27q-5 0 -5 12.5t5 12.5q27 0 102 -3t121 -3t125 3t105 3q6 0 6 -12.5t-6 -12.5q-80 0 -107.5 -27.5t-42.5 -117.5l-119 -657q-34 -190 36 -296t227 -106q79 0 155.5 32t171.5 107l160 920q17 88 -1.5 116.5t-96.5 28.5 q-5 0 -5 12.5t5 12.5q27 0 103 -3t122 -3q45 0 123 3t106 3q5 0 5 -12.5t-5 -12.5q-81 0 -108.5 -26t-42.5 -115l-168 -948q-17 -89 7 -115t120 -26q7 0 7 -12.5t-7 -12.5q-28 0 -89 1t-96 1q-28 0 -73.5 -1t-67.5 -1q-20 0 -23.5 6t-0.5 33l16 90q-103 -81 -200 -117.5 t-204 -36.5q-201 0 -311 110.5t-78 295.5zM637 1552q0 50 29.5 77.5t81.5 27.5q49 0 76.5 -27.5t27.5 -77.5q0 -54 -27 -83t-77 -29q-53 0 -82 29t-29 83zM963 1552q0 50 29 77.5t81 27.5q49 0 77 -27.5t28 -77.5q0 -54 -27.5 -83t-77.5 -29q-53 0 -81.5 29t-28.5 83z" />
<glyph unicode="&#xdd;" horiz-adv-x="1095" d="M136 1267.5q0 12.5 7 12.5q29 0 98 -3t101 -3q42 0 128 3t108 3q8 0 8 -12.5t-8 -12.5q-70 0 -90.5 -17t-2.5 -64l197 -472l240 375q48 72 29.5 125t-91.5 53q-8 0 -8 12.5t8 12.5q27 0 111 -3t131 -3q29 0 70.5 3t66.5 3q6 0 6 -12.5t-6 -12.5q-130 0 -278 -223 l-259 -391l-84 -475q-17 -90 5 -115.5t120 -25.5q6 0 6 -12.5t-6 -12.5q-30 0 -113 2t-136 2q-54 0 -139 -2t-115 -2q-8 0 -8 12.5t8 12.5q97 0 130 26t48 115l76 450l-209 494q-32 75 -66.5 110t-75.5 35q-7 0 -7 12.5zM597.5 1402.5q0.5 5.5 4.5 8.5q58 42 154 125t102 88 q17 14 125 -24q92 -32 92 -47q0 -4 -8 -5q-223 -55 -455 -157q-6 -3 -10.5 1.5t-4 10z" />
<glyph unicode="&#xde;" horiz-adv-x="1118" d="M26 12.5q0 12.5 5 12.5q83 0 110.5 25.5t42.5 115.5l168 948q15 88 -4 114.5t-96 26.5q-6 0 -6 12.5t6 12.5q26 0 100.5 -3t122.5 -3q63 0 155.5 3t123.5 3q6 0 6 -12.5t-6 -12.5q-65 0 -96.5 -3.5t-55 -20.5t-32.5 -42.5t-19 -78.5l-16 -94q67 6 131 6q234 0 355 -100.5 t81 -282.5q-20 -93 -78.5 -166.5t-135 -115.5t-157.5 -63.5t-158 -21.5q-38 0 -84 11q-2 1 -2.5 5t0.5 10t3 11.5t5 9.5t5 3q30 -9 61 -9q47 0 92.5 14t91 45t80 89t49.5 137q10 60 9 115.5t-22 104t-54.5 84.5t-88.5 56.5t-124 20.5q-22 0 -68 -4l-141 -809 q-7 -39 -7 -61.5t6 -40t25.5 -25t48 -11t77.5 -3.5q5 0 5 -12.5t-5 -12.5q-32 0 -126.5 2t-154.5 2q-45 0 -121 -2t-102 -2q-5 0 -5 12.5z" />
<glyph unicode="&#xdf;" horiz-adv-x="972" d="M-256 -446q3 37 30 59t68 22q34 0 53 -16t25 -39.5t10 -46.5t13 -39t28 -16q25 0 49 92.5t60 333.5l141 952q20 137 61 250t104.5 199t153.5 134t199 48q110 0 171 -48.5t51 -140.5q-6 -53 -35 -101.5t-66.5 -85.5t-75 -72t-66.5 -77t-36 -85q-6 -39 9.5 -85.5 t43.5 -88.5t59.5 -93.5t58 -100.5t39.5 -111t3 -122q-20 -128 -102 -213.5t-205 -85.5q-83 0 -130.5 38.5t-47.5 84.5q0 43 25 72t69 29q37 0 59 -16.5t31 -39.5t16 -46t23 -39.5t43 -16.5q42 0 60 27.5t26 72.5q8 55 -14 116.5t-57.5 118t-71 115t-56.5 126t-12 131.5 q9 60 43.5 127.5t70 118.5t67 125.5t36.5 148.5q6 83 -21.5 126.5t-84.5 43.5q-97 0 -159 -132.5t-106 -408.5l-139 -942q-42 -292 -116.5 -406t-215.5 -114q-90 0 -139 33t-43 84z" />
<glyph unicode="&#xe0;" horiz-adv-x="909" d="M37 186q14 101 72 214.5t137.5 205t175.5 151.5t180 60q87 0 146 -53q38 27 63 70q4 4 10 3.5t11 -4t4 -6.5l-119 -645q-17 -96 22 -96t111 72q4 4 9.5 1t7.5 -8.5t-1 -9.5q-131 -159 -229 -159q-66 0 -89.5 48t-6.5 152l24 140q-78 -164 -185.5 -256.5t-209.5 -92.5 q-75 0 -112 53t-21 160zM227 352q-20 -121 2 -175t72 -54q62 0 128.5 67.5t112 157.5t60.5 170q17 92 -11.5 145.5t-94.5 53.5q-95 0 -168 -101.5t-101 -263.5zM485 1489q5 15 48 15t94.5 -12.5t50.5 -25.5l-49 -491q0 -3 -4.5 -5t-9.5 -1.5t-5 4.5z" />
<glyph unicode="&#xe1;" horiz-adv-x="909" d="M37 186q14 101 72 214.5t137.5 205t175.5 151.5t180 60q87 0 146 -53q38 27 63 70q4 4 10 3.5t11 -4t4 -6.5l-119 -645q-17 -96 22 -96t111 72q4 4 9.5 1t7.5 -8.5t-1 -9.5q-131 -159 -229 -159q-66 0 -89.5 48t-6.5 152l24 140q-78 -164 -185.5 -256.5t-209.5 -92.5 q-75 0 -112 53t-21 160zM227 352q-20 -121 2 -175t72 -54q62 0 128.5 67.5t112 157.5t60.5 170q17 92 -11.5 145.5t-94.5 53.5q-95 0 -168 -101.5t-101 -263.5zM567 975l154 491q4 19 105 30q96 11 101 -3q0 -2 -1 -4l-338 -520q-4 -8 -18 -1q-6 4 -3 7z" />
<glyph unicode="&#xe2;" horiz-adv-x="909" d="M37 186q14 101 72 214.5t137.5 205t175.5 151.5t180 60q87 0 146 -53q38 27 63 70q4 4 10 3.5t11 -4t4 -6.5l-119 -645q-17 -96 22 -96t111 72q4 4 9.5 1t7.5 -8.5t-1 -9.5q-131 -159 -229 -159q-66 0 -89.5 48t-6.5 152l24 140q-78 -164 -185.5 -256.5t-209.5 -92.5 q-75 0 -112 53t-21 160zM227 352q-20 -121 2 -175t72 -54q62 0 128.5 67.5t112 157.5t60.5 170q17 92 -11.5 145.5t-94.5 53.5q-95 0 -168 -101.5t-101 -263.5zM438 977l246 510q4 11 20.5 11t16.5 -11l65 -510q0 -5 -11 -5.5t-13 3.5l-109 221l-192 -225q-4 -4 -9.5 -3.5 t-10 3.5t-3.5 6z" />
<glyph unicode="&#xe3;" horiz-adv-x="909" d="M37 186q14 101 72 214.5t137.5 205t175.5 151.5t180 60q87 0 146 -53q38 27 63 70q4 4 10 3.5t11 -4t4 -6.5l-119 -645q-17 -96 22 -96t111 72q4 4 9.5 1t7.5 -8.5t-1 -9.5q-131 -159 -229 -159q-66 0 -89.5 48t-6.5 152l24 140q-78 -164 -185.5 -256.5t-209.5 -92.5 q-75 0 -112 53t-21 160zM227 352q-20 -121 2 -175t72 -54q62 0 128.5 67.5t112 157.5t60.5 170q17 92 -11.5 145.5t-94.5 53.5q-95 0 -168 -101.5t-101 -263.5zM322 977q21 32 36.5 52.5t43.5 51t59 46.5t63 16q23 0 111.5 -25.5t136.5 -25.5q43 0 70.5 12t58.5 43 q2 2 6 0.5t7 -6t1 -8.5q-62 -99 -101.5 -131.5t-92.5 -32.5q-35 0 -121.5 24.5t-134.5 24.5q-47 0 -69.5 -10t-51.5 -37l-8 -8q-2 -2 -6 0.5t-7 6.5t-1 7z" />
<glyph unicode="&#xe4;" horiz-adv-x="909" d="M37 186q14 101 72 214.5t137.5 205t175.5 151.5t180 60q87 0 146 -53q38 27 63 70q4 4 10 3.5t11 -4t4 -6.5l-119 -645q-17 -96 22 -96t111 72q4 4 9.5 1t7.5 -8.5t-1 -9.5q-131 -159 -229 -159q-66 0 -89.5 48t-6.5 152l24 140q-78 -164 -185.5 -256.5t-209.5 -92.5 q-75 0 -112 53t-21 160zM227 352q-20 -121 2 -175t72 -54q62 0 128.5 67.5t112 157.5t60.5 170q17 92 -11.5 145.5t-94.5 53.5q-95 0 -168 -101.5t-101 -263.5zM348 1063q0 49 29 76.5t82 27.5q49 0 76.5 -27.5t27.5 -76.5q0 -54 -27 -83.5t-77 -29.5q-53 0 -82 29.5 t-29 83.5zM674 1063q0 50 29 77t81 27q50 0 77.5 -27.5t27.5 -76.5q0 -54 -27.5 -83.5t-77.5 -29.5q-53 0 -81.5 29.5t-28.5 83.5z" />
<glyph unicode="&#xe5;" horiz-adv-x="909" d="M37 186q14 101 72 214.5t137.5 205t175.5 151.5t180 60q87 0 146 -53q38 27 63 70q4 4 10 3.5t11 -4t4 -6.5l-119 -645q-17 -96 22 -96t111 72q4 4 9.5 1t7.5 -8.5t-1 -9.5q-131 -159 -229 -159q-66 0 -89.5 48t-6.5 152l24 140q-78 -164 -185.5 -256.5t-209.5 -92.5 q-75 0 -112 53t-21 160zM227 352q-20 -121 2 -175t72 -54q62 0 128.5 67.5t112 157.5t60.5 170q17 92 -11.5 145.5t-94.5 53.5q-95 0 -168 -101.5t-101 -263.5zM391 1120q0 74 73.5 117t164.5 43q89 0 153 -48.5t64 -115.5q0 -71 -72 -114.5t-166 -43.5q-99 0 -158 48 t-59 114zM541 1161q0 -68 27 -121t73 -53q55 0 55 92q0 69 -32 120.5t-76 51.5q-47 0 -47 -90z" />
<glyph unicode="&#xe6;" horiz-adv-x="1206" d="M37 186q13 99 65.5 209.5t128 204.5t176.5 155.5t201 61.5q63 0 110.5 -23.5t57.5 -72.5q128 96 289 96q96 0 134 -33.5t28 -91.5q-8 -46 -46.5 -87t-141 -93.5t-271.5 -108.5q-14 -159 34 -245t136 -86q81 0 152 59q6 6 14 -2t2 -14q-148 -140 -295 -140 q-140 0 -194.5 109t-20.5 297q-87 -185 -197.5 -296.5t-218.5 -111.5q-77 0 -117.5 57.5t-25.5 155.5zM232 238.5q1 -42.5 15.5 -66t29.5 -31.5t34 -8q43 0 107.5 62.5t119 154.5t70.5 170q20 97 -9.5 164.5t-92.5 67.5q-79 0 -158 -117t-108 -285q-9 -69 -8 -111.5z M772 434q235 102 254 228q5 40 -9.5 71t-53.5 31q-67 0 -120.5 -90.5t-70.5 -233.5v-6z" />
<glyph unicode="&#xe7;" horiz-adv-x="710" d="M49 289.5q1 61.5 10 124.5q16 89 63.5 166t112 128t138.5 80t145 29q50 0 93 -13t73.5 -45.5t26.5 -78.5q-3 -42 -31 -67t-74 -25q-86 0 -102 92q-9 38 -25 59t-51 21q-62 0 -108.5 -75t-67.5 -200q-17 -116 -6 -207.5t64.5 -147.5t142.5 -56q42 0 94.5 19t85.5 44 q5 3 12.5 -4.5t3.5 -13.5q-139 -136 -303 -146q-4 -13 -6.5 -25.5t-1 -25t2 -21t6.5 -21.5t8.5 -18.5t12.5 -19.5l12.5 -17.5t15 -19t14.5 -18.5q42 -54 58 -93t9 -77q-11 -66 -75 -123t-171 -57q-74 0 -122 30t-41 78q4 34 29 52t57 18q28 0 45.5 -14.5t25 -34.5t14 -40.5 t19.5 -35t35 -14.5q46 0 53 49q3 34 -24.5 79.5t-79.5 112.5q-16 21 -15.5 49.5t9 50t28.5 60.5l47 96q-67 3 -118.5 30t-80.5 70t-46.5 99t-16.5 117.5z" />
<glyph unicode="&#xe8;" horiz-adv-x="731" d="M54.5 184.5q-19.5 89.5 0.5 194.5q15 81 59 159t108 140.5t151 100.5t180 38q83 0 126 -28.5t38 -81.5q-9 -90 -143.5 -168t-321.5 -113q-21 -157 29 -258.5t168 -101.5q105 0 184 63q5 3 11.5 -4.5t2.5 -11.5q-144 -138 -319 -138q-114 0 -184 60t-89.5 149.5zM256 459 q235 62 254 205q8 44 -9.5 71t-54.5 27q-66 0 -115.5 -84.5t-74.5 -218.5zM391 1489q5 15 48 15t94.5 -12.5t50.5 -25.5l-49 -491q0 -3 -4.5 -5t-9.5 -1.5t-5 4.5z" />
<glyph unicode="&#xe9;" horiz-adv-x="731" d="M54.5 184.5q-19.5 89.5 0.5 194.5q15 81 59 159t108 140.5t151 100.5t180 38q83 0 126 -28.5t38 -81.5q-9 -90 -143.5 -168t-321.5 -113q-21 -157 29 -258.5t168 -101.5q105 0 184 63q5 3 11.5 -4.5t2.5 -11.5q-144 -138 -319 -138q-114 0 -184 60t-89.5 149.5zM256 459 q235 62 254 205q8 44 -9.5 71t-54.5 27q-66 0 -115.5 -84.5t-74.5 -218.5zM473 975l154 491q4 19 104 30q94 11 101 -3q0 -2 -1 -4l-337 -520q-4 -8 -18 -1q-6 4 -3 7z" />
<glyph unicode="&#xea;" horiz-adv-x="731" d="M54.5 184.5q-19.5 89.5 0.5 194.5q15 81 59 159t108 140.5t151 100.5t180 38q83 0 126 -28.5t38 -81.5q-9 -90 -143.5 -168t-321.5 -113q-21 -157 29 -258.5t168 -101.5q105 0 184 63q5 3 11.5 -4.5t2.5 -11.5q-144 -138 -319 -138q-114 0 -184 60t-89.5 149.5zM256 459 q235 62 254 205q8 44 -9.5 71t-54.5 27q-66 0 -115.5 -84.5t-74.5 -218.5zM344 979l244 510q6 11 22.5 11t16.5 -11l65 -510q0 -6 -11 -7t-13 5l-109 219l-192 -225q-5 -5 -14.5 -1.5t-8.5 9.5z" />
<glyph unicode="&#xeb;" horiz-adv-x="731" d="M54.5 184.5q-19.5 89.5 0.5 194.5q15 81 59 159t108 140.5t151 100.5t180 38q83 0 126 -28.5t38 -81.5q-9 -90 -143.5 -168t-321.5 -113q-21 -157 29 -258.5t168 -101.5q105 0 184 63q5 3 11.5 -4.5t2.5 -11.5q-144 -138 -319 -138q-114 0 -184 60t-89.5 149.5zM254 1063 q0 49 29 76.5t82 27.5q49 0 76.5 -27.5t27.5 -76.5q0 -54 -27 -83.5t-77 -29.5q-53 0 -82 29.5t-29 83.5zM256 459q235 62 254 205q8 44 -9.5 71t-54.5 27q-66 0 -115.5 -84.5t-74.5 -218.5zM580 1063q0 50 29 77t81 27q50 0 77.5 -27.5t27.5 -76.5q0 -54 -27.5 -83.5 t-77.5 -29.5q-53 0 -81.5 29.5t-28.5 83.5z" />
<glyph unicode="&#xec;" horiz-adv-x="505" d="M47 645q137 164 250 164q126 0 90 -176l-86 -451q-17 -96 27 -96q32 0 108 72q8 8 16 -1t1 -16q-69 -82 -123.5 -120.5t-112.5 -38.5q-129 0 -88 200l84 426q10 51 1.5 76t-32.5 25q-43 0 -116 -82q-7 -7 -16 1.5t-3 16.5zM199 1489q5 15 48 15t94 -12.5t50 -25.5 l-49 -491q0 -3 -4.5 -5t-9 -1.5t-4.5 4.5z" />
<glyph unicode="&#xed;" horiz-adv-x="505" d="M47 645q137 164 250 164q126 0 90 -176l-86 -451q-17 -96 27 -96q32 0 108 72q8 8 16 -1t1 -16q-69 -82 -123.5 -120.5t-112.5 -38.5q-129 0 -88 200l84 426q10 51 1.5 76t-32.5 25q-43 0 -116 -82q-7 -7 -16 1.5t-3 16.5zM281 975l153 491q4 19 105 30q96 11 101 -3 q0 -2 -1 -4l-338 -520q-4 -8 -17 -1q-6 4 -3 7z" />
<glyph unicode="&#xee;" horiz-adv-x="505" d="M47 645q137 164 250 164q126 0 90 -176l-86 -451q-17 -96 27 -96q32 0 108 72q8 8 16 -1t1 -16q-69 -82 -123.5 -120.5t-112.5 -38.5q-129 0 -88 200l84 426q10 51 1.5 76t-32.5 25q-43 0 -116 -82q-7 -7 -16 1.5t-3 16.5zM152 977l245 510q5 11 21 11t16 -11l66 -510 q0 -5 -12 -5.5t-13 3.5l-108 221l-193 -225q-4 -4 -9 -3.5t-9.5 3.5t-3.5 6z" />
<glyph unicode="&#xef;" horiz-adv-x="505" d="M47 645q137 164 250 164q126 0 90 -176l-86 -451q-17 -96 27 -96q32 0 108 72q8 8 16 -1t1 -16q-69 -82 -123.5 -120.5t-112.5 -38.5q-129 0 -88 200l84 426q10 51 1.5 76t-32.5 25q-43 0 -116 -82q-7 -7 -16 1.5t-3 16.5zM70 1063q0 49 30.5 77.5t81.5 28.5t78 -28 t27 -78q0 -54 -27 -83.5t-78 -29.5q-52 0 -82 30t-30 83zM389 1063q0 50 27.5 77t79.5 27q50 0 77 -27.5t27 -76.5q0 -54 -27 -83.5t-77 -29.5q-52 0 -79.5 29.5t-27.5 83.5z" />
<glyph unicode="&#xf0;" horiz-adv-x="821" d="M41 381q20 107 71 193.5t117 137.5t135 78t132 27q52 0 98 -18q-19 185 -64 329l-239 -114q-5 -3 -13.5 7t-12.5 21t1 15l248 119q-63 189 -162 282q-4 5 2 13.5t14.5 13.5t12.5 0q150 -87 254 -254l192 92q4 2 12.5 -8.5t12 -20.5t-1.5 -14l-191 -90q94 -164 129 -361.5 t0 -386.5q-41 -224 -174.5 -346.5t-298.5 -122.5q-106 0 -177 57t-95 149.5t-2 201.5zM241.5 232q9.5 -93 44 -151t85.5 -58q77 0 134 96t85 299q21 175 -6.5 265.5t-116.5 90.5q-75 0 -138.5 -90t-84.5 -244q-12 -115 -2.5 -208z" />
<glyph unicode="&#xf1;" horiz-adv-x="972" d="M45 645q73 87 132 125.5t118 38.5q64 0 85 -44t5 -132l-33 -187q71 177 165 274t198 97q179 0 131 -270l-68 -365q-17 -96 27 -96q32 0 108 72q4 5 10 2.5t8 -8.5t-1 -11q-69 -82 -123.5 -120.5t-112.5 -38.5q-66 0 -86.5 49.5t-1.5 150.5l60 326q18 98 3 145t-59 47 q-89 0 -179.5 -169t-145.5 -468l-6 -38q-10 -41 -115 -41q-68 0 -68 16q0 4 5 26t13 58.5t13 67.5l84 456q18 101 -31 101q-43 0 -119 -82q-7 -9 -15 3q-6 9 -1 15zM291 977q21 32 36.5 52.5t43.5 51t59.5 46.5t63.5 16q23 0 111 -25.5t136 -25.5q43 0 70.5 12t58.5 43 q2 2 6.5 0.5t7.5 -6t1 -8.5q-62 -98 -102 -131t-93 -33q-35 0 -121.5 24.5t-134.5 24.5q-47 0 -69.5 -10t-51.5 -37l-8 -8q-2 -2 -6 0.5t-7 6.5t-1 7z" />
<glyph unicode="&#xf2;" horiz-adv-x="835" d="M48.5 234q-10.5 77 8.5 161q35 187 162 304.5t291 117.5q165 0 235.5 -118.5t34.5 -303.5q-26 -135 -100 -233.5t-166 -144.5t-190 -46q-83 0 -143.5 34.5t-91 93t-41 135.5zM248 253.5q8 -102.5 47 -166.5t98 -64q65 0 113 75.5t72 206.5q20 126 12 229t-48 168.5 t-100 65.5q-61 0 -109 -71.5t-73 -213.5q-20 -127 -12 -229.5zM395 1489q5 15 48 15t94.5 -12.5t50.5 -25.5l-49 -491q0 -3 -4.5 -5t-9.5 -1.5t-5 4.5z" />
<glyph unicode="&#xf3;" horiz-adv-x="835" d="M48.5 234q-10.5 77 8.5 161q35 187 162 304.5t291 117.5q165 0 235.5 -118.5t34.5 -303.5q-26 -135 -100 -233.5t-166 -144.5t-190 -46q-83 0 -143.5 34.5t-91 93t-41 135.5zM248 253.5q8 -102.5 47 -166.5t98 -64q65 0 113 75.5t72 206.5q20 126 12 229t-48 168.5 t-100 65.5q-61 0 -109 -71.5t-73 -213.5q-20 -127 -12 -229.5zM477 975l154 491q4 19 105 30q96 11 101 -3q0 -2 -1 -4l-338 -520q-4 -8 -18 -1q-6 4 -3 7z" />
<glyph unicode="&#xf4;" horiz-adv-x="835" d="M48.5 234q-10.5 77 8.5 161q35 187 162 304.5t291 117.5q165 0 235.5 -118.5t34.5 -303.5q-26 -135 -100 -233.5t-166 -144.5t-190 -46q-83 0 -143.5 34.5t-91 93t-41 135.5zM248 253.5q8 -102.5 47 -166.5t98 -64q65 0 113 75.5t72 206.5q20 126 12 229t-48 168.5 t-100 65.5q-61 0 -109 -71.5t-73 -213.5q-20 -127 -12 -229.5zM348 979l244 510q6 11 22.5 11t16.5 -11l65 -510q0 -6 -11 -7t-13 5l-109 219l-192 -225q-5 -5 -14.5 -1.5t-8.5 9.5z" />
<glyph unicode="&#xf5;" horiz-adv-x="835" d="M48.5 234q-10.5 77 8.5 161q35 187 162 304.5t291 117.5q165 0 235.5 -118.5t34.5 -303.5q-26 -135 -100 -233.5t-166 -144.5t-190 -46q-83 0 -143.5 34.5t-91 93t-41 135.5zM231 977q21 32 36.5 52.5t43.5 51t59.5 46.5t63.5 16q23 0 111.5 -25.5t136.5 -25.5 q43 0 70.5 12t58.5 43q2 2 6 0.5t7 -6t1 -8.5q-62 -99 -101.5 -131.5t-92.5 -32.5q-35 0 -121.5 24.5t-134.5 24.5q-47 0 -69.5 -10t-51.5 -37l-8 -8t-10.5 3.5t-4.5 10.5zM248 253.5q8 -102.5 47 -166.5t98 -64q65 0 113 75.5t72 206.5q20 126 12 229t-48 168.5t-100 65.5 q-61 0 -109 -71.5t-73 -213.5q-20 -127 -12 -229.5z" />
<glyph unicode="&#xf6;" horiz-adv-x="835" d="M48.5 234q-10.5 77 8.5 161q35 187 162 304.5t291 117.5q165 0 235.5 -118.5t34.5 -303.5q-26 -135 -100 -233.5t-166 -144.5t-190 -46q-83 0 -143.5 34.5t-91 93t-41 135.5zM248 253.5q8 -102.5 47 -166.5t98 -64q65 0 113 75.5t72 206.5q20 126 12 229t-48 168.5 t-100 65.5q-61 0 -109 -71.5t-73 -213.5q-20 -127 -12 -229.5zM258 1063q0 49 29 76.5t82 27.5q49 0 76.5 -27.5t27.5 -76.5q0 -54 -27 -83.5t-77 -29.5q-53 0 -82 29.5t-29 83.5zM584 1063q0 50 29 77t81 27q50 0 77.5 -27.5t27.5 -76.5q0 -54 -27.5 -83.5t-77.5 -29.5 q-53 0 -81.5 29.5t-28.5 83.5z" />
<glyph unicode="&#xf7;" horiz-adv-x="806" d="M61.5 437q1.5 24 6.5 24h677q9 0 9 -48t-9 -48h-675q-6 0 -8 24t-0.5 48zM289 750q0 51 31.5 80.5t85.5 29.5t83 -29t29 -81q0 -56 -29 -86.5t-83 -30.5t-85.5 31t-31.5 86zM293 100q0 51 31.5 81t85.5 30q53 0 82.5 -29.5t29.5 -81.5q0 -56 -29 -86t-83 -30t-85.5 30.5 t-31.5 85.5z" />
<glyph unicode="&#xf8;" horiz-adv-x="835" d="M-10 0l98 100q-63 114 -31 295q35 187 162 304.5t291 117.5q130 0 203 -76l78 82q3 4 13.5 -1.5t18.5 -14.5t4 -14l-86 -88q78 -117 39 -310q-26 -135 -100 -233.5t-166 -144.5t-190 -46q-135 0 -207 88l-92 -96q-6 -5 -23.5 12.5t-11.5 24.5zM248 264l332 342 q-18 76 -53 119t-85 43q-61 0 -109 -71.5t-73 -213.5q-19 -105 -12 -219zM256 203q14 -83 49.5 -131.5t87.5 -48.5q65 0 113 75.5t72 206.5q23 124 10 242z" />
<glyph unicode="&#xf9;" horiz-adv-x="974" d="M49 638.5q-2 5.5 2 10.5q70 83 122.5 121.5t109.5 38.5q131 0 90 -201l-64 -325q-19 -98 -3.5 -145.5t59.5 -47.5q89 0 179.5 169t145.5 468l6 39q10 41 115 41q68 0 68 -16q0 -4 -5 -26t-13 -58.5t-13 -67.5l-84 -457q-18 -100 31 -100q42 0 118 82q6 8 15 -3 q6 -9 2 -16q-73 -87 -132 -125t-118 -38q-64 0 -85 44t-5 132l33 186q-71 -177 -165 -274t-198 -97q-88 0 -122.5 67.5t-8.5 203.5l72 364q17 97 -27 97q-20 0 -43.5 -17.5t-62.5 -54.5q-5 -5 -11 -2.5t-8 8zM440 1489q5 15 48 15t94.5 -12.5t50.5 -25.5l-49 -491 q0 -3 -5 -5t-9.5 -1.5t-4.5 4.5z" />
<glyph unicode="&#xfa;" horiz-adv-x="974" d="M49 638.5q-2 5.5 2 10.5q70 83 122.5 121.5t109.5 38.5q131 0 90 -201l-64 -325q-19 -98 -3.5 -145.5t59.5 -47.5q89 0 179.5 169t145.5 468l6 39q10 41 115 41q68 0 68 -16q0 -4 -5 -26t-13 -58.5t-13 -67.5l-84 -457q-18 -100 31 -100q42 0 118 82q6 8 15 -3 q6 -9 2 -16q-73 -87 -132 -125t-118 -38q-64 0 -85 44t-5 132l33 186q-71 -177 -165 -274t-198 -97q-88 0 -122.5 67.5t-8.5 203.5l72 364q17 97 -27 97q-20 0 -43.5 -17.5t-62.5 -54.5q-5 -5 -11 -2.5t-8 8zM522 975l154 491q4 19 105 30q96 11 101 -3q0 -2 -1 -4 l-338 -520q-4 -8 -18 -1q-6 4 -3 7z" />
<glyph unicode="&#xfb;" horiz-adv-x="974" d="M49 638.5q-2 5.5 2 10.5q70 83 122.5 121.5t109.5 38.5q131 0 90 -201l-64 -325q-19 -98 -3.5 -145.5t59.5 -47.5q89 0 179.5 169t145.5 468l6 39q10 41 115 41q68 0 68 -16q0 -4 -5 -26t-13 -58.5t-13 -67.5l-84 -457q-18 -100 31 -100q42 0 118 82q6 8 15 -3 q6 -9 2 -16q-73 -87 -132 -125t-118 -38q-64 0 -85 44t-5 132l33 186q-71 -177 -165 -274t-198 -97q-88 0 -122.5 67.5t-8.5 203.5l72 364q17 97 -27 97q-20 0 -43.5 -17.5t-62.5 -54.5q-5 -5 -11 -2.5t-8 8zM393 979l244 510q6 11 22.5 11t16.5 -11l65 -510q0 -6 -11.5 -7 t-12.5 5l-109 219l-192 -225q-5 -5 -14.5 -1.5t-8.5 9.5z" />
<glyph unicode="&#xfc;" horiz-adv-x="974" d="M49 638.5q-2 5.5 2 10.5q70 83 122.5 121.5t109.5 38.5q131 0 90 -201l-64 -325q-19 -98 -3.5 -145.5t59.5 -47.5q89 0 179.5 169t145.5 468l6 39q10 41 115 41q68 0 68 -16q0 -4 -5 -26t-13 -58.5t-13 -67.5l-84 -457q-18 -100 31 -100q42 0 118 82q6 8 15 -3 q6 -9 2 -16q-73 -87 -132 -125t-118 -38q-64 0 -85 44t-5 132l33 186q-71 -177 -165 -274t-198 -97q-88 0 -122.5 67.5t-8.5 203.5l72 364q17 97 -27 97q-20 0 -43.5 -17.5t-62.5 -54.5q-5 -5 -11 -2.5t-8 8zM303 1063q0 49 29 76.5t82 27.5q50 0 77 -27.5t27 -76.5 q0 -54 -27 -83.5t-77 -29.5q-53 0 -82 29.5t-29 83.5zM629 1063q0 50 29 77t81 27q50 0 77.5 -27.5t27.5 -76.5q0 -54 -27.5 -83.5t-77.5 -29.5q-53 0 -81.5 29.5t-28.5 83.5z" />
<glyph unicode="&#xfd;" horiz-adv-x="921" d="M14 -420q10 54 39.5 79.5t65.5 25.5q38 0 58 -22.5t27.5 -54.5t16.5 -63.5t37 -54t78 -22.5q39 0 70 25.5t63 103.5t55 210l94 529q-70 -173 -162.5 -268t-195.5 -95q-88 0 -122.5 67.5t-8.5 203.5l72 364q17 97 -27 97q-20 0 -43.5 -17.5t-62.5 -54.5q-5 -5 -11 -2.5 t-8 8t2 10.5q70 83 122.5 121.5t109.5 38.5q131 0 90 -201l-64 -325q-19 -98 -3.5 -145.5t59.5 -47.5q82 0 169.5 155t145.5 425l20 108q2 13 27 21t68 8q38 0 57 -1.5t24 -3.5t5 -7q0 -17 -31 -156l-143 -782q-34 -193 -156 -312.5t-297 -119.5q-116 0 -185 45t-55 110z M530 975l154 491q4 19 105 30q96 11 101 -3q0 -2 -1 -4l-338 -520q-4 -8 -18 -1q-6 4 -3 7z" />
<glyph unicode="&#xfe;" horiz-adv-x="841" d="M-146.5 -546.5q0.5 6.5 5.5 7.5q58 13 75 39.5t35 120.5l176 981q-48 -29 -104 -70q-6 -5 -12 -1.5t-6.5 10.5t4.5 12q47 40 127 94l100 559q19 98 -4.5 118.5t-108.5 -19.5q-6 -2 -11 3.5t-4.5 11.5t5.5 9l320 156q8 3 17 -4.5t7 -12.5l-127 -714q124 51 236 51 q124 0 182.5 -74.5t38.5 -212.5q-20 -137 -98.5 -258t-188.5 -191.5t-221 -70.5q-28 0 -82 4l-65 -367q-15 -79 4 -100t92 -12q5 0 8.5 -5.5t3.5 -11t-6 -6.5l-389 -63q-4 -1 -7 4.5t-2.5 12zM229 88q71 -29 144 -29q67 0 119.5 53t83.5 139t45 200q5 50 -1.5 94t-26 81 t-58.5 58t-93 21q-50 0 -106 -15z" />
<glyph unicode="&#xff;" horiz-adv-x="921" d="M14 -420q10 54 39.5 79.5t65.5 25.5q38 0 58 -22.5t27.5 -54.5t16.5 -63.5t37 -54t78 -22.5q39 0 70 25.5t63 103.5t55 210l94 529q-70 -173 -162.5 -268t-195.5 -95q-88 0 -122.5 67.5t-8.5 203.5l72 364q17 97 -27 97q-20 0 -43.5 -17.5t-62.5 -54.5q-5 -5 -11 -2.5 t-8 8t2 10.5q70 83 122.5 121.5t109.5 38.5q131 0 90 -201l-64 -325q-19 -98 -3.5 -145.5t59.5 -47.5q82 0 169.5 155t145.5 425l20 108q2 13 27 21t68 8q38 0 57 -1.5t24 -3.5t5 -7q0 -17 -31 -156l-143 -782q-34 -193 -156 -312.5t-297 -119.5q-116 0 -185 45t-55 110z M311 1063q0 49 29 76.5t82 27.5q50 0 77 -27.5t27 -76.5q0 -54 -27 -83.5t-77 -29.5q-53 0 -82 29.5t-29 83.5zM637 1063q0 49 29 76.5t82 27.5q50 0 77 -27.5t27 -76.5q0 -54 -27 -83.5t-77 -29.5q-53 0 -82 29.5t-29 83.5z" />
<glyph unicode="&#x152;" horiz-adv-x="1656" d="M119 633q28 146 102 269.5t175.5 206.5t224 129t249.5 46q32 0 126.5 -2t138.5 -2h518q15 0 12 -18q-4 -30 -21 -135.5t-22 -139.5q-2 -7 -13.5 -5t-11.5 7q-10 123 -56.5 185.5t-154.5 62.5h-34q-45 0 -69 -4t-40.5 -20t-23.5 -37t-15 -64l-74 -418h185q94 0 145 36.5 t68 119.5q1 6 7.5 7.5t12 -1t4.5 -8.5q-7 -45 -17.5 -100t-14.5 -82q-5 -30 -16 -98.5t-19 -112.5q-1 -6 -7.5 -7t-12.5 1.5t-5 7.5q15 88 -28 134t-132 46h-180l-80 -463q-15 -86 3.5 -111.5t95.5 -25.5h51q59 0 108 19t91 60.5t76 89t75 120.5q2 4 8.5 4t12 -2.5t4.5 -5.5 q-40 -119 -70 -291q-5 -18 -11.5 -24.5t-23.5 -6.5h-538q-44 0 -133 -4t-121 -4q-192 0 -329.5 84.5t-195 230.5t-24.5 326zM346.5 346.5q26.5 -143.5 108 -228.5t198.5 -85q52 0 77.5 3t50 16t36.5 40.5t19 75.5l161 919q15 90 -7 122t-105 32q-201 0 -345 -145t-190 -418 q-30 -188 -3.5 -331.5z" />
<glyph unicode="&#x153;" horiz-adv-x="1243" d="M36.5 234q-10.5 77 8.5 161q37 187 163.5 304.5t289.5 117.5q178 0 247 -139q149 139 332 139q83 0 126 -28.5t38 -81.5q-9 -90 -143.5 -168t-321.5 -113q-21 -157 29 -258.5t168 -101.5q105 0 184 63q5 3 11.5 -4.5t2.5 -11.5q-141 -138 -319 -138q-163 0 -238 123 q-65 -62 -144 -94.5t-159 -32.5q-83 0 -143.5 34.5t-90.5 93t-40.5 135.5zM237.5 253.5q7.5 -102.5 46 -166.5t97.5 -64q65 0 112.5 75t71.5 207q20 126 12 229t-47 168.5t-98 65.5q-62 0 -110 -71.5t-72 -213.5q-20 -127 -12.5 -229.5zM780 459q235 62 254 205q8 44 -9 71 t-54 27q-66 0 -116.5 -84.5t-74.5 -218.5z" />
<glyph unicode="&#x178;" horiz-adv-x="1095" d="M136 1267.5q0 12.5 7 12.5q29 0 98 -3t101 -3q42 0 128 3t108 3q8 0 8 -12.5t-8 -12.5q-70 0 -90.5 -17t-2.5 -64l197 -472l240 375q48 72 29.5 125t-91.5 53q-8 0 -8 12.5t8 12.5q27 0 111 -3t131 -3q29 0 70.5 3t66.5 3q6 0 6 -12.5t-6 -12.5q-130 0 -278 -223 l-259 -391l-84 -475q-17 -90 5 -115.5t120 -25.5q6 0 6 -12.5t-6 -12.5q-30 0 -113 2t-136 2q-54 0 -139 -2t-115 -2q-8 0 -8 12.5t8 12.5q97 0 130 26t48 115l76 450l-209 494q-32 75 -66.5 110t-75.5 35q-7 0 -7 12.5zM489 1552q0 50 29.5 77.5t81.5 27.5q50 0 77.5 -27.5 t27.5 -77.5q0 -54 -27.5 -83t-77.5 -29q-53 0 -82 29t-29 83zM815 1552q0 50 29.5 77.5t81.5 27.5q49 0 76.5 -27.5t27.5 -77.5q0 -54 -27 -83t-77 -29q-53 0 -82 29t-29 83z" />
<glyph unicode="&#x2c6;" horiz-adv-x="489" d="M186 979l244 510q6 11 22.5 11t16.5 -11l66 -510q0 -6 -11.5 -7t-13.5 5l-109 219l-192 -225q-5 -5 -14.5 -1.5t-8.5 9.5z" />
<glyph unicode="&#x2dc;" horiz-adv-x="559" d="M98 977q21 32 36.5 52.5t43.5 51t59.5 46.5t63.5 16q23 0 111.5 -25.5t136.5 -25.5q43 0 70.5 12t58.5 43q2 2 6 0.5t7 -6t1 -8.5q-62 -99 -101.5 -131.5t-92.5 -32.5q-35 0 -121.5 24.5t-134.5 24.5q-47 0 -69.5 -10t-51.5 -37q-2 -3 -4 -4.5t-4 -3.5q-3 -3 -10.5 3.5 t-4.5 10.5z" />
<glyph unicode="&#x2000;" horiz-adv-x="836" />
<glyph unicode="&#x2001;" horiz-adv-x="1673" />
<glyph unicode="&#x2002;" horiz-adv-x="836" />
<glyph unicode="&#x2003;" horiz-adv-x="1673" />
<glyph unicode="&#x2004;" horiz-adv-x="557" />
<glyph unicode="&#x2005;" horiz-adv-x="418" />
<glyph unicode="&#x2006;" horiz-adv-x="278" />
<glyph unicode="&#x2007;" horiz-adv-x="278" />
<glyph unicode="&#x2008;" horiz-adv-x="209" />
<glyph unicode="&#x2009;" horiz-adv-x="334" />
<glyph unicode="&#x200a;" horiz-adv-x="92" />
<glyph unicode="&#x2010;" horiz-adv-x="577" d="M56 411.5q0 23.5 3 28.5l439 72q6 1 10 -24.5t4 -52t-6 -27.5l-436 -72q-6 -1 -10 25.5t-4 50z" />
<glyph unicode="&#x2011;" horiz-adv-x="577" d="M56 411.5q0 23.5 3 28.5l439 72q6 1 10 -24.5t4 -52t-6 -27.5l-436 -72q-6 -1 -10 25.5t-4 50z" />
<glyph unicode="&#x2012;" horiz-adv-x="577" d="M56 411.5q0 23.5 3 28.5l439 72q6 1 10 -24.5t4 -52t-6 -27.5l-436 -72q-6 -1 -10 25.5t-4 50z" />
<glyph unicode="&#x2013;" horiz-adv-x="815" d="M61.5 412q1.5 24 6.5 24h677q9 0 9 -48t-9 -48h-675q-6 0 -8 24t-0.5 48z" />
<glyph unicode="&#x2014;" horiz-adv-x="1294" d="M61.5 412q1.5 24 6.5 24h1157q9 0 9 -48t-9 -48h-1155q-6 0 -8 24t-0.5 48z" />
<glyph unicode="&#x2018;" horiz-adv-x="315" d="M123 1004q17 80 82 168t153 149q5 4 10.5 0.5t7 -9t-2.5 -9.5q-138 -122 -160 -259q-6 -31 0 -49q15 15 49 15q60 0 88.5 -43.5t18.5 -92.5q-8 -41 -39 -67.5t-84 -26.5q-78 0 -112 61t-11 163z" />
<glyph unicode="&#x2019;" horiz-adv-x="307" d="M151 768.5q-1 5.5 3 9.5q137 121 159 258q6 31 0 49q-14 -14 -49 -14q-60 0 -88 43t-18 92q8 41 39 67.5t84 26.5q78 0 111.5 -60.5t10.5 -162.5q-17 -80 -82 -168t-153 -149q-5 -4 -10.5 -0.5t-6.5 9z" />
<glyph unicode="&#x201a;" horiz-adv-x="292" d="M-35.5 -318.5q-1.5 5.5 2.5 9.5q139 122 160 258q6 31 0 49q-14 -14 -49 -14q-60 0 -88.5 43t-18.5 92q8 41 39 67.5t84 26.5q78 0 112 -60.5t11 -162.5q-17 -81 -82 -169t-153 -149q-5 -4 -10.5 0t-7 9.5z" />
<glyph unicode="&#x201c;" horiz-adv-x="641" d="M127 1004q17 80 82 168t153 149q5 4 10.5 0.5t7 -9t-2.5 -9.5q-138 -122 -160 -259q-6 -31 0 -49q15 15 49 15q60 0 88.5 -43.5t18.5 -92.5q-8 -41 -39 -67.5t-84 -26.5q-78 0 -112 61t-11 163zM461 1004q17 80 82 168t153 149q5 4 10.5 0.5t7 -9t-2.5 -9.5 q-138 -122 -160 -259q-6 -31 0 -49q15 15 49 15q60 0 88.5 -43.5t18.5 -92.5q-8 -41 -39 -67.5t-84 -26.5q-78 0 -112 61t-11 163z" />
<glyph unicode="&#x201d;" horiz-adv-x="641" d="M153 768.5q-1 5.5 3 9.5q137 121 159 258q6 31 0 49q-14 -14 -49 -14q-60 0 -88 43t-18 92q8 41 39 67.5t84 26.5q78 0 112 -60.5t11 -162.5q-17 -80 -82 -168t-154 -149q-5 -4 -10.5 -0.5t-6.5 9zM486.5 768.5q-1.5 5.5 2.5 9.5q139 122 160 258q6 31 0 49 q-14 -14 -49 -14q-60 0 -88 43t-18 92q8 41 39 67.5t83 26.5q78 0 112 -60.5t11 -162.5q-17 -80 -82 -168t-153 -149q-5 -4 -10.5 -0.5t-7 9z" />
<glyph unicode="&#x201e;" horiz-adv-x="641" d="M-35.5 -318.5q-1.5 5.5 2.5 9.5q139 122 160 258q6 31 0 49q-14 -14 -49 -14q-60 0 -88.5 43t-18.5 92q8 41 39 67.5t84 26.5q78 0 112 -60.5t11 -162.5q-17 -81 -82 -169t-153 -149q-5 -4 -10.5 0t-7 9.5zM298 -318.5q-1 5.5 3 9.5q139 122 160 258q6 31 0 49 q-14 -14 -49 -14q-60 0 -88.5 43t-18.5 92q8 41 39 67.5t84 26.5q78 0 112 -60.5t11 -162.5q-17 -80 -82.5 -168.5t-153.5 -149.5q-5 -4 -10.5 0t-6.5 9.5z" />
<glyph unicode="&#x2022;" horiz-adv-x="659" d="M115 408q0 88 64.5 151.5t154.5 63.5q88 0 151.5 -63.5t63.5 -151.5q0 -90 -63.5 -152.5t-151.5 -62.5q-91 0 -155 62.5t-64 152.5z" />
<glyph unicode="&#x2026;" horiz-adv-x="1382" d="M43 100q0 51 31.5 81t85.5 30q53 0 82.5 -29.5t29.5 -81.5q0 -56 -29 -86t-83 -30t-85.5 30.5t-31.5 85.5zM522 100q0 51 31.5 81t85.5 30q53 0 83 -29.5t30 -81.5q0 -55 -29.5 -85.5t-83.5 -30.5t-85.5 30.5t-31.5 85.5zM1001 100q0 51 31.5 81t85.5 30t83.5 -29.5 t29.5 -81.5q0 -55 -29.5 -85.5t-83.5 -30.5t-85.5 30.5t-31.5 85.5z" />
<glyph unicode="&#x202f;" horiz-adv-x="334" />
<glyph unicode="&#x2039;" horiz-adv-x="587" d="M83 409.5q2 14.5 13 24.5l418 311q4 2 9.5 -1t8.5 -7.5t0 -7.5l-225 -317l115 -316q4 -7 -7 -14q-6 -5 -9 0l-318 305q-7 8 -5 22.5z" />
<glyph unicode="&#x203a;" horiz-adv-x="583" d="M59 94l226 316l-115 315q-4 7 7 14q6 5 9 0l318 -305q7 -8 5 -22.5t-13 -24.5l-420 -311q-5 -3 -13 4.5t-4 13.5z" />
<glyph unicode="&#x205f;" horiz-adv-x="418" />
<glyph unicode="&#x20ac;" horiz-adv-x="1210" d="M101.5 521q-1.5 15 3 29.5t12.5 14.5h78q3 45 12 88l4 17h-74q-8 0 -10 15t3 30.5t13 15.5h82q51 173 165.5 305t260 199.5t299.5 67.5q172 0 291 -78q17 -12 20.5 -19.5t-4.5 -29.5l-124 -238q-3 -2 -8.5 -1t-10.5 5t-2 8q7 15 8 38.5t-6 51.5t-19.5 57.5t-34 57t-49 49 t-66 34.5t-81.5 13q-69 0 -136 -33t-127 -95.5t-106 -163.5t-67 -228h600q13 0 0 -33q-11 -27 -22 -28h-588q-4 -35 -8 -105h542q14 0 2 -32q-11 -26 -22 -27h-522q1 -99 17 -184.5t47 -155t83.5 -110t120.5 -40.5q96 0 204.5 83t215.5 249q3 4 8 4.5t9 -2t3 -6.5l-69 -272 q-6 -24 -12 -32.5t-21 -14.5q-158 -50 -314 -50q-113 0 -202.5 29.5t-147.5 79.5t-95.5 119t-53 144t-13.5 159h-79q-8 0 -9.5 15z" />
<glyph unicode="&#x2122;" horiz-adv-x="1513" d="M188 1124q34 111 43 181q4 8 18 7q7 -3 7 -7q-1 -8 2.5 -13t13 -7t16 -2.5t19.5 -0.5q23 0 86 -1t99 -1q43 0 94.5 1t68.5 1q41 0 60.5 5t27.5 24q5 7 18 4q5 -2 5 -4q-2 -12 -18.5 -90.5t-18.5 -96.5q-5 -7 -20 -4q-3 2 -4 4q7 45 -21.5 86t-67.5 41q-31 0 -42 -13 t-19 -56l-66 -379q-8 -45 6 -59.5t68 -14.5q3 0 3 -12t-3 -12q-20 0 -75.5 1t-92.5 1q-31 0 -86.5 -1t-77.5 -1q-3 0 -3 12t3 12q55 0 74 14.5t25 59.5l67 381q7 44 1 55.5t-36 11.5q-46 0 -89 -36.5t-60 -90.5q-2 -7 -19 -4q-6 2 -6 4zM691 717q0 12 3 12q47 0 80 25t43 77 l72 349q-30 75 -92 75q-3 0 -3 12.5t3 12.5q11 0 47.5 -2t42.5 -2q11 0 47.5 2t40.5 2q18 0 30 -12.5t23 -50.5l121 -351l231 381q6 14 19 23.5t24 9.5q1 0 27 -2t43 -2q25 0 57 2t45 2q3 0 3 -12.5t-3 -12.5q-46 0 -69.5 -17t-30.5 -67l-53 -368q-5 -46 6 -60t59 -14 q3 0 3 -12t-3 -12q-19 0 -69.5 1t-79.5 1q-31 0 -77.5 -1t-63.5 -1q-3 0 -3 12t3 12q47 0 62.5 14.5t20.5 59.5l41 313l-243 -401q-4 -7 -23 -7t-24 7l-133 385l-58 -269q-12 -54 0 -78t49 -24q5 0 5 -12t-5 -12q-10 0 -41.5 1t-56.5 1l-117 -2q-3 0 -3 12z" />
<glyph unicode="&#x25fc;" horiz-adv-x="808" d="M0 0v809h809v-809h-809z" />
</font>
</defs>
</svg>
